OpenAirWindow.ufo
<glyph name="quotedbl" format="2">
  <advance width="432"/>
  <unicode hex="0022"/>
  <outline>
    <contour>
      <point x="23" y="516" type="line"/>
      <point x="23" y="524" type="line"/>
      <point x="23" y="626" type="line" smooth="yes"/>
      <point x="23" y="649"/>
      <point x="41" y="668"/>
      <point x="64" y="668" type="curve" smooth="yes"/>
      <point x="152" y="668" type="line" smooth="yes"/>
      <point x="162" y="668"/>
      <point x="172" y="664"/>
      <point x="179" y="658" type="curve"/>
      <point x="186" y="664"/>
      <point x="196" y="668"/>
      <point x="206" y="668" type="curve" smooth="yes"/>
      <point x="294" y="668" type="line" smooth="yes"/>
      <point x="317" y="668"/>
      <point x="335" y="650"/>
      <point x="335" y="627" type="curve" smooth="yes"/>
      <point x="335" y="626" type="line"/>
      <point x="335" y="524" type="line"/>
      <point x="335" y="517" type="line"/>
      <point x="314" y="398" type="line" smooth="yes"/>
      <point x="311" y="378"/>
      <point x="293" y="363"/>
      <point x="273" y="363" type="curve" smooth="yes"/>
      <point x="227" y="363" type="line" smooth="yes"/>
      <point x="207" y="363"/>
      <point x="190" y="377"/>
      <point x="186" y="397" type="curve" smooth="yes"/>
      <point x="180" y="434" type="line"/>
      <point x="174" y="398" type="line" smooth="yes"/>
      <point x="171" y="378"/>
      <point x="153" y="363"/>
      <point x="133" y="363" type="curve" smooth="yes"/>
      <point x="86" y="363" type="line" smooth="yes"/>
      <point x="66" y="363"/>
      <point x="49" y="377"/>
      <point x="45" y="397" type="curve" smooth="yes"/>
    </contour>
    <contour>
      <point x="77" y="522" type="line"/>
      <point x="98" y="403" type="line" smooth="yes"/>
      <point x="99" y="399"/>
      <point x="103" y="396"/>
      <point x="107" y="396" type="curve" smooth="yes"/>
      <point x="154" y="396" type="line" smooth="yes"/>
      <point x="158" y="396"/>
      <point x="161" y="399"/>
      <point x="162" y="403" type="curve" smooth="yes"/>
      <point x="181" y="522" type="line"/>
      <point x="181" y="524" type="line"/>
      <point x="181" y="626" type="line" smooth="yes"/>
      <point x="181" y="631"/>
      <point x="178" y="635"/>
      <point x="173" y="635" type="curve" smooth="yes"/>
      <point x="85" y="635" type="line" smooth="yes"/>
      <point x="80" y="635"/>
      <point x="77" y="631"/>
      <point x="77" y="626" type="curve" smooth="yes"/>
      <point x="77" y="524" type="line"/>
    </contour>
    <contour>
      <point x="93" y="525" type="line"/>
      <point x="93" y="618" type="line"/>
      <point x="164" y="618" type="line"/>
      <point x="164" y="524" type="line"/>
      <point x="146" y="413" type="line"/>
      <point x="113" y="413" type="line"/>
    </contour>
    <contour>
      <point x="219" y="522" type="line"/>
      <point x="240" y="403" type="line" smooth="yes"/>
      <point x="241" y="399"/>
      <point x="244" y="396"/>
      <point x="248" y="396" type="curve" smooth="yes"/>
      <point x="294" y="396" type="line" smooth="yes"/>
      <point x="298" y="396"/>
      <point x="301" y="399"/>
      <point x="302" y="403" type="curve" smooth="yes"/>
      <point x="323" y="522" type="line"/>
      <point x="323" y="524" type="line"/>
      <point x="323" y="626" type="line" smooth="yes"/>
      <point x="323" y="631"/>
      <point x="320" y="635"/>
      <point x="315" y="635" type="curve" smooth="yes"/>
      <point x="227" y="635" type="line" smooth="yes"/>
      <point x="222" y="635"/>
      <point x="219" y="631"/>
      <point x="219" y="626" type="curve" smooth="yes"/>
      <point x="219" y="524" type="line"/>
    </contour>
    <contour>
      <point x="235" y="525" type="line"/>
      <point x="235" y="618" type="line"/>
      <point x="306" y="618" type="line"/>
      <point x="306" y="525" type="line"/>
      <point x="287" y="413" type="line"/>
      <point x="255" y="413" type="line"/>
    </contour>
  </outline>
</glyph>
<glyph name="numbersign" format="2">
  <advance width="638"/>
  <unicode hex="0023"/>
  <outline>
    <contour>
      <point x="23" y="171" type="curve" smooth="yes"/>
      <point x="23" y="235" type="line" smooth="yes"/>
      <point x="23" y="258"/>
      <point x="42" y="277"/>
      <point x="65" y="277" type="curve" smooth="yes"/>
      <point x="116" y="277" type="line"/>
      <point x="131" y="348" type="line"/>
      <point x="65" y="348" type="line" smooth="yes"/>
      <point x="42" y="348"/>
      <point x="23" y="367"/>
      <point x="23" y="390" type="curve" smooth="yes"/>
      <point x="23" y="454" type="line" smooth="yes"/>
      <point x="23" y="477"/>
      <point x="42" y="495"/>
      <point x="65" y="495" type="curve" smooth="yes"/>
      <point x="161" y="495" type="line"/>
      <point x="191" y="645" type="line" smooth="yes"/>
      <point x="195" y="664"/>
      <point x="212" y="679"/>
      <point x="232" y="679" type="curve" smooth="yes"/>
      <point x="296" y="679" type="line" smooth="yes"/>
      <point x="309" y="679"/>
      <point x="320" y="673"/>
      <point x="328" y="663" type="curve" smooth="yes"/>
      <point x="334" y="655"/>
      <point x="338" y="647"/>
      <point x="338" y="637" type="curve" smooth="yes"/>
      <point x="338" y="634"/>
      <point x="338" y="632"/>
      <point x="337" y="629" type="curve" smooth="yes"/>
      <point x="310" y="495" type="line"/>
      <point x="359" y="495" type="line"/>
      <point x="390" y="645" type="line" smooth="yes"/>
      <point x="394" y="664"/>
      <point x="410" y="679"/>
      <point x="430" y="679" type="curve" smooth="yes"/>
      <point x="495" y="679" type="line" smooth="yes"/>
      <point x="507" y="679"/>
      <point x="519" y="673"/>
      <point x="527" y="663" type="curve" smooth="yes"/>
      <point x="533" y="655"/>
      <point x="537" y="647"/>
      <point x="537" y="637" type="curve" smooth="yes"/>
      <point x="537" y="634"/>
      <point x="537" y="632"/>
      <point x="536" y="629" type="curve" smooth="yes"/>
      <point x="509" y="495" type="line"/>
      <point x="532" y="495" type="line" smooth="yes"/>
      <point x="555" y="495"/>
      <point x="573" y="477"/>
      <point x="573" y="454" type="curve" smooth="yes"/>
      <point x="573" y="390" type="line" smooth="yes"/>
      <point x="573" y="367"/>
      <point x="555" y="348"/>
      <point x="532" y="348" type="curve" smooth="yes"/>
      <point x="479" y="348" type="line"/>
      <point x="464" y="277" type="line"/>
      <point x="532" y="277" type="line" smooth="yes"/>
      <point x="555" y="277"/>
      <point x="573" y="258"/>
      <point x="573" y="235" type="curve" smooth="yes"/>
      <point x="573" y="171" type="line" smooth="yes"/>
      <point x="573" y="148"/>
      <point x="555" y="130"/>
      <point x="532" y="130" type="curve" smooth="yes"/>
      <point x="434" y="130" type="line"/>
      <point x="404" y="-19" type="line" smooth="yes"/>
      <point x="400" y="-38"/>
      <point x="383" y="-52"/>
      <point x="363" y="-52" type="curve" smooth="yes"/>
      <point x="299" y="-52" type="line" smooth="yes"/>
      <point x="287" y="-52"/>
      <point x="275" y="-47"/>
      <point x="267" y="-37" type="curve" smooth="yes"/>
      <point x="261" y="-29"/>
      <point x="257" y="-21"/>
      <point x="257" y="-11" type="curve" smooth="yes"/>
      <point x="257" y="-8"/>
      <point x="257" y="-5"/>
      <point x="258" y="-2" type="curve" smooth="yes"/>
      <point x="285" y="130" type="line"/>
      <point x="235" y="130" type="line"/>
      <point x="205" y="-19" type="line" smooth="yes"/>
      <point x="201" y="-38"/>
      <point x="184" y="-52"/>
      <point x="164" y="-52" type="curve" smooth="yes"/>
      <point x="100" y="-52" type="line" smooth="yes"/>
      <point x="87" y="-52"/>
      <point x="76" y="-47"/>
      <point x="68" y="-37" type="curve" smooth="yes"/>
      <point x="62" y="-29"/>
      <point x="59" y="-21"/>
      <point x="59" y="-11" type="curve" smooth="yes"/>
      <point x="59" y="-8"/>
      <point x="58" y="-5"/>
      <point x="59" y="-2" type="curve" smooth="yes"/>
      <point x="86" y="130" type="line"/>
      <point x="65" y="130" type="line" smooth="yes"/>
      <point x="42" y="130"/>
      <point x="23" y="148"/>
    </contour>
    <contour>
      <point x="78" y="171" type="line" smooth="yes"/>
      <point x="78" y="166"/>
      <point x="81" y="163"/>
      <point x="86" y="163" type="curve" smooth="yes"/>
      <point x="148" y="163" type="line"/>
      <point x="113" y="-9" type="line" smooth="yes"/>
      <point x="113" y="-11"/>
      <point x="113" y="-14"/>
      <point x="115" y="-16" type="curve" smooth="yes"/>
      <point x="117" y="-18"/>
      <point x="118" y="-19"/>
      <point x="121" y="-19" type="curve" smooth="yes"/>
      <point x="185" y="-19" type="line" smooth="yes"/>
      <point x="189" y="-19"/>
      <point x="192" y="-16"/>
      <point x="193" y="-12" type="curve" smooth="yes"/>
      <point x="229" y="163" type="line"/>
      <point x="346" y="163" type="line"/>
      <point x="312" y="-9" type="line" smooth="yes"/>
      <point x="312" y="-11"/>
      <point x="311" y="-14"/>
      <point x="313" y="-16" type="curve" smooth="yes"/>
      <point x="315" y="-18"/>
      <point x="318" y="-19"/>
      <point x="320" y="-19" type="curve" smooth="yes"/>
      <point x="384" y="-19" type="line" smooth="yes"/>
      <point x="388" y="-19"/>
      <point x="391" y="-16"/>
      <point x="392" y="-12" type="curve" smooth="yes"/>
      <point x="428" y="163" type="line"/>
      <point x="553" y="163" type="line" smooth="yes"/>
      <point x="558" y="163"/>
      <point x="561" y="166"/>
      <point x="561" y="171" type="curve" smooth="yes"/>
      <point x="561" y="235" type="line" smooth="yes"/>
      <point x="561" y="240"/>
      <point x="558" y="243"/>
      <point x="553" y="243" type="curve" smooth="yes"/>
      <point x="444" y="243" type="line"/>
      <point x="473" y="382" type="line"/>
      <point x="553" y="382" type="line" smooth="yes"/>
      <point x="558" y="382"/>
      <point x="561" y="385"/>
      <point x="561" y="390" type="curve" smooth="yes"/>
      <point x="561" y="454" type="line" smooth="yes"/>
      <point x="561" y="459"/>
      <point x="558" y="462"/>
      <point x="553" y="462" type="curve" smooth="yes"/>
      <point x="489" y="462" type="line"/>
      <point x="524" y="635" type="line" smooth="yes"/>
      <point x="524" y="637"/>
      <point x="524" y="640"/>
      <point x="522" y="642" type="curve" smooth="yes"/>
      <point x="520" y="644"/>
      <point x="518" y="645"/>
      <point x="516" y="645" type="curve" smooth="yes"/>
      <point x="451" y="645" type="line" smooth="yes"/>
      <point x="447" y="645"/>
      <point x="444" y="643"/>
      <point x="443" y="639" type="curve" smooth="yes"/>
      <point x="407" y="462" type="line"/>
      <point x="290" y="462" type="line"/>
      <point x="325" y="635" type="line" smooth="yes"/>
      <point x="325" y="637"/>
      <point x="325" y="640"/>
      <point x="323" y="642" type="curve" smooth="yes"/>
      <point x="321" y="644"/>
      <point x="320" y="645"/>
      <point x="317" y="645" type="curve" smooth="yes"/>
      <point x="253" y="645" type="line" smooth="yes"/>
      <point x="249" y="645"/>
      <point x="245" y="643"/>
      <point x="244" y="639" type="curve" smooth="yes"/>
      <point x="209" y="462" type="line"/>
      <point x="86" y="462" type="line" smooth="yes"/>
      <point x="81" y="462"/>
      <point x="78" y="459"/>
      <point x="78" y="454" type="curve" smooth="yes"/>
      <point x="78" y="390" type="line" smooth="yes"/>
      <point x="78" y="385"/>
      <point x="81" y="382"/>
      <point x="86" y="382" type="curve" smooth="yes"/>
      <point x="192" y="382" type="line"/>
      <point x="164" y="243" type="line"/>
      <point x="86" y="243" type="line" smooth="yes"/>
      <point x="81" y="243"/>
      <point x="78" y="240"/>
      <point x="78" y="235" type="curve" smooth="yes"/>
    </contour>
    <contour>
      <point x="94" y="180" type="line"/>
      <point x="94" y="227" type="line"/>
      <point x="171" y="227" type="line" smooth="yes"/>
      <point x="175" y="227"/>
      <point x="178" y="229"/>
      <point x="179" y="233" type="curve" smooth="yes"/>
      <point x="211" y="388" type="line" smooth="yes"/>
      <point x="211" y="390"/>
      <point x="211" y="393"/>
      <point x="209" y="395" type="curve" smooth="yes"/>
      <point x="207" y="397"/>
      <point x="206" y="398"/>
      <point x="203" y="398" type="curve" smooth="yes"/>
      <point x="94" y="398" type="line"/>
      <point x="94" y="445" type="line"/>
      <point x="215" y="445" type="line" smooth="yes"/>
      <point x="219" y="445"/>
      <point x="223" y="448"/>
      <point x="224" y="452" type="curve" smooth="yes"/>
      <point x="259" y="629" type="line"/>
      <point x="306" y="629" type="line"/>
      <point x="271" y="455" type="line" smooth="yes"/>
      <point x="271" y="453"/>
      <point x="271" y="450"/>
      <point x="273" y="448" type="curve" smooth="yes"/>
      <point x="275" y="446"/>
      <point x="277" y="445"/>
      <point x="280" y="445" type="curve" smooth="yes"/>
      <point x="414" y="445" type="line" smooth="yes"/>
      <point x="418" y="445"/>
      <point x="421" y="448"/>
      <point x="422" y="452" type="curve" smooth="yes"/>
      <point x="458" y="629" type="line"/>
      <point x="506" y="629" type="line"/>
      <point x="470" y="455" type="line" smooth="yes"/>
      <point x="470" y="453"/>
      <point x="470" y="450"/>
      <point x="472" y="448" type="curve" smooth="yes"/>
      <point x="474" y="446"/>
      <point x="477" y="445"/>
      <point x="479" y="445" type="curve" smooth="yes"/>
      <point x="544" y="445" type="line"/>
      <point x="544" y="398" type="line"/>
      <point x="466" y="398" type="line" smooth="yes"/>
      <point x="462" y="398"/>
      <point x="459" y="396"/>
      <point x="458" y="392" type="curve" smooth="yes"/>
      <point x="426" y="237" type="line" smooth="yes"/>
      <point x="425" y="235"/>
      <point x="425" y="232"/>
      <point x="427" y="230" type="curve" smooth="yes"/>
      <point x="429" y="228"/>
      <point x="431" y="227"/>
      <point x="434" y="227" type="curve" smooth="yes"/>
      <point x="544" y="227" type="line"/>
      <point x="544" y="180" type="line"/>
      <point x="421" y="180" type="line" smooth="yes"/>
      <point x="417" y="180"/>
      <point x="414" y="177"/>
      <point x="413" y="173" type="curve" smooth="yes"/>
      <point x="377" y="-2" type="line"/>
      <point x="330" y="-2" type="line"/>
      <point x="365" y="170" type="line" smooth="yes"/>
      <point x="365" y="172"/>
      <point x="365" y="175"/>
      <point x="363" y="177" type="curve" smooth="yes"/>
      <point x="361" y="179"/>
      <point x="358" y="180"/>
      <point x="356" y="180" type="curve" smooth="yes"/>
      <point x="222" y="180" type="line" smooth="yes"/>
      <point x="218" y="180"/>
      <point x="215" y="177"/>
      <point x="214" y="173" type="curve" smooth="yes"/>
      <point x="178" y="-2" type="line"/>
      <point x="131" y="-2" type="line"/>
      <point x="166" y="170" type="line" smooth="yes"/>
      <point x="166" y="172"/>
      <point x="167" y="175"/>
      <point x="165" y="177" type="curve" smooth="yes"/>
      <point x="163" y="179"/>
      <point x="161" y="180"/>
      <point x="158" y="180" type="curve" smooth="yes"/>
    </contour>
    <contour>
      <point x="227" y="237" type="line" smooth="yes"/>
      <point x="227" y="235"/>
      <point x="227" y="232"/>
      <point x="229" y="230" type="curve" smooth="yes"/>
      <point x="231" y="228"/>
      <point x="233" y="227"/>
      <point x="235" y="227" type="curve" smooth="yes"/>
      <point x="369" y="227" type="line" smooth="yes"/>
      <point x="373" y="227"/>
      <point x="376" y="229"/>
      <point x="377" y="233" type="curve" smooth="yes"/>
      <point x="409" y="388" type="line" smooth="yes"/>
      <point x="410" y="390"/>
      <point x="410" y="393"/>
      <point x="408" y="395" type="curve" smooth="yes"/>
      <point x="406" y="397"/>
      <point x="404" y="398"/>
      <point x="401" y="398" type="curve" smooth="yes"/>
      <point x="267" y="398" type="line" smooth="yes"/>
      <point x="263" y="398"/>
      <point x="260" y="396"/>
      <point x="259" y="392" type="curve" smooth="yes"/>
    </contour>
    <contour>
      <point x="245" y="243" type="line"/>
      <point x="274" y="382" type="line"/>
      <point x="391" y="382" type="line"/>
      <point x="362" y="243" type="line"/>
    </contour>
    <contour>
      <point x="265" y="277" type="line"/>
      <point x="314" y="277" type="line"/>
      <point x="329" y="348" type="line"/>
      <point x="280" y="348" type="line"/>
    </contour>
  </outline>
</glyph>
<glyph name="dollar" format="2">
  <advance width="583"/>
  <unicode hex="0024"/>
  <outline>
    <contour>
      <point x="13" y="174" type="curve" smooth="yes"/>
      <point x="13" y="194"/>
      <point x="27" y="209"/>
      <point x="47" y="213" type="curve" smooth="yes"/>
      <point x="124" y="229" type="line" smooth="yes"/>
      <point x="127" y="229"/>
      <point x="129" y="230"/>
      <point x="132" y="230" type="curve" smooth="yes"/>
      <point x="141" y="230"/>
      <point x="149" y="227"/>
      <point x="156" y="222" type="curve" smooth="yes"/>
      <point x="165" y="215"/>
      <point x="172" y="205"/>
      <point x="174" y="194" type="curve" smooth="yes"/>
      <point x="179" y="162"/>
      <point x="184" y="138"/>
      <point x="196" y="123" type="curve" smooth="yes"/>
      <point x="197" y="122"/>
      <point x="198" y="120"/>
      <point x="199" y="119" type="curve"/>
      <point x="199" y="264" type="line"/>
      <point x="174" y="272"/>
      <point x="150" y="283"/>
      <point x="124" y="297" type="curve" smooth="yes"/>
      <point x="92" y="315"/>
      <point x="68" y="339"/>
      <point x="51" y="370" type="curve" smooth="yes"/>
      <point x="35" y="400"/>
      <point x="26" y="435"/>
      <point x="26" y="473" type="curve" smooth="yes"/>
      <point x="26" y="541"/>
      <point x="49" y="595"/>
      <point x="97" y="637" type="curve" smooth="yes"/>
      <point x="122" y="659"/>
      <point x="156" y="674"/>
      <point x="199" y="683" type="curve"/>
      <point x="199" y="684" type="line" smooth="yes"/>
      <point x="199" y="707"/>
      <point x="218" y="726"/>
      <point x="241" y="726" type="curve" smooth="yes"/>
      <point x="286" y="726" type="line" smooth="yes"/>
      <point x="309" y="726"/>
      <point x="328" y="708"/>
      <point x="328" y="685" type="curve" smooth="yes"/>
      <point x="328" y="683" type="line"/>
      <point x="365" y="675"/>
      <point x="395" y="660"/>
      <point x="419" y="640" type="curve" smooth="yes"/>
      <point x="460" y="606"/>
      <point x="487" y="559"/>
      <point x="495" y="499" type="curve"/>
      <point x="495" y="493" type="line" smooth="yes"/>
      <point x="495" y="473"/>
      <point x="481" y="455"/>
      <point x="460" y="452" type="curve" smooth="yes"/>
      <point x="380" y="439" type="line"/>
      <point x="374" y="439" type="line" smooth="yes"/>
      <point x="354" y="439"/>
      <point x="336" y="454"/>
      <point x="333" y="475" type="curve" smooth="yes"/>
      <point x="332" y="483"/>
      <point x="330" y="490"/>
      <point x="328" y="497" type="curve"/>
      <point x="328" y="393" type="line"/>
      <point x="353" y="386"/>
      <point x="371" y="380"/>
      <point x="381" y="376" type="curve" smooth="yes"/>
      <point x="410" y="363"/>
      <point x="433" y="347"/>
      <point x="451" y="329" type="curve" smooth="yes"/>
      <point x="470" y="310"/>
      <point x="485" y="287"/>
      <point x="495" y="261" type="curve" smooth="yes"/>
      <point x="505" y="236"/>
      <point x="510" y="208"/>
      <point x="510" y="179" type="curve" smooth="yes"/>
      <point x="510" y="177" type="line" smooth="yes"/>
      <point x="510" y="113"/>
      <point x="489" y="59"/>
      <point x="448" y="16" type="curve" smooth="yes"/>
      <point x="415" y="-18"/>
      <point x="376" y="-40"/>
      <point x="328" y="-49" type="curve"/>
      <point x="328" y="-90" type="line" smooth="yes"/>
      <point x="328" y="-113"/>
      <point x="309" y="-132"/>
      <point x="286" y="-132" type="curve" smooth="yes"/>
      <point x="241" y="-132" type="line" smooth="yes"/>
      <point x="218" y="-132"/>
      <point x="199" y="-113"/>
      <point x="199" y="-90" type="curve" smooth="yes"/>
      <point x="199" y="-49" type="line"/>
      <point x="171" y="-43"/>
      <point x="148" y="-34"/>
      <point x="128" y="-24" type="curve" smooth="yes"/>
      <point x="98" y="-8"/>
      <point x="72" y="15"/>
      <point x="50" y="50" type="curve" smooth="yes"/>
      <point x="30" y="82"/>
      <point x="13" y="126"/>
    </contour>
    <contour>
      <point x="67" y="173" type="curve" smooth="yes"/>
      <point x="67" y="132"/>
      <point x="79" y="97"/>
      <point x="97" y="68" type="curve" smooth="yes"/>
      <point x="115" y="39"/>
      <point x="139" y="18"/>
      <point x="164" y="5" type="curve" smooth="yes"/>
      <point x="187" y="-7"/>
      <point x="218" y="-16"/>
      <point x="254" y="-21" type="curve"/>
      <point x="254" y="-90" type="line" smooth="yes"/>
      <point x="254" y="-95"/>
      <point x="257" y="-98"/>
      <point x="262" y="-98" type="curve" smooth="yes"/>
      <point x="307" y="-98" type="line" smooth="yes"/>
      <point x="312" y="-98"/>
      <point x="316" y="-95"/>
      <point x="316" y="-90" type="curve" smooth="yes"/>
      <point x="316" y="-20" type="line"/>
      <point x="369" y="-20"/>
      <point x="411" y="4"/>
      <point x="445" y="39" type="curve" smooth="yes"/>
      <point x="480" y="76"/>
      <point x="498" y="122"/>
      <point x="498" y="178" type="curve" smooth="yes"/>
      <point x="498" y="203"/>
      <point x="493" y="227"/>
      <point x="485" y="249" type="curve" smooth="yes"/>
      <point x="476" y="271"/>
      <point x="465" y="289"/>
      <point x="449" y="305" type="curve" smooth="yes"/>
      <point x="433" y="321"/>
      <point x="412" y="335"/>
      <point x="387" y="346" type="curve" smooth="yes"/>
      <point x="375" y="351"/>
      <point x="352" y="358"/>
      <point x="316" y="367" type="curve"/>
      <point x="316" y="572" type="line"/>
      <point x="334" y="567"/>
      <point x="349" y="558"/>
      <point x="360" y="545" type="curve" smooth="yes"/>
      <point x="373" y="530"/>
      <point x="383" y="508"/>
      <point x="387" y="480" type="curve" smooth="yes"/>
      <point x="388" y="475"/>
      <point x="391" y="472"/>
      <point x="396" y="473" type="curve" smooth="yes"/>
      <point x="475" y="485" type="line" smooth="yes"/>
      <point x="480" y="486"/>
      <point x="483" y="489"/>
      <point x="482" y="494" type="curve" smooth="yes"/>
      <point x="475" y="545"/>
      <point x="454" y="585"/>
      <point x="419" y="614" type="curve" smooth="yes"/>
      <point x="393" y="636"/>
      <point x="359" y="650"/>
      <point x="316" y="655" type="curve"/>
      <point x="316" y="684" type="line" smooth="yes"/>
      <point x="316" y="689"/>
      <point x="312" y="692"/>
      <point x="307" y="692" type="curve" smooth="yes"/>
      <point x="262" y="692" type="line" smooth="yes"/>
      <point x="257" y="692"/>
      <point x="254" y="689"/>
      <point x="254" y="684" type="curve" smooth="yes"/>
      <point x="254" y="655" type="line"/>
      <point x="205" y="649"/>
      <point x="167" y="635"/>
      <point x="141" y="612" type="curve" smooth="yes"/>
      <point x="100" y="576"/>
      <point x="80" y="530"/>
      <point x="80" y="473" type="curve" smooth="yes"/>
      <point x="80" y="441"/>
      <point x="87" y="411"/>
      <point x="101" y="386" type="curve" smooth="yes"/>
      <point x="115" y="360"/>
      <point x="135" y="340"/>
      <point x="161" y="326" type="curve" smooth="yes"/>
      <point x="193" y="308"/>
      <point x="224" y="297"/>
      <point x="254" y="290" type="curve"/>
      <point x="254" y="61" type="line"/>
      <point x="230" y="66"/>
      <point x="209" y="80"/>
      <point x="191" y="103" type="curve" smooth="yes"/>
      <point x="177" y="122"/>
      <point x="167" y="151"/>
      <point x="161" y="190" type="curve" smooth="yes"/>
      <point x="161" y="192"/>
      <point x="159" y="194"/>
      <point x="157" y="195" type="curve" smooth="yes"/>
      <point x="155" y="196"/>
      <point x="153" y="197"/>
      <point x="151" y="197" type="curve" smooth="yes"/>
      <point x="74" y="182" type="line" smooth="yes"/>
      <point x="70" y="181"/>
      <point x="67" y="177"/>
    </contour>
    <contour>
      <point x="84" y="167" type="curve"/>
      <point x="146" y="179" type="line"/>
      <point x="152" y="140"/>
      <point x="163" y="111"/>
      <point x="178" y="92" type="curve" smooth="yes"/>
      <point x="201" y="63"/>
      <point x="229" y="43"/>
      <point x="261" y="43" type="curve" smooth="yes"/>
      <point x="263" y="43"/>
      <point x="265" y="44"/>
      <point x="267" y="46" type="curve" smooth="yes"/>
      <point x="269" y="48"/>
      <point x="270" y="50"/>
      <point x="270" y="52" type="curve" smooth="yes"/>
      <point x="270" y="297" type="line" smooth="yes"/>
      <point x="270" y="301"/>
      <point x="267" y="304"/>
      <point x="263" y="305" type="curve" smooth="yes"/>
      <point x="232" y="311"/>
      <point x="201" y="323"/>
      <point x="169" y="341" type="curve" smooth="yes"/>
      <point x="146" y="354"/>
      <point x="128" y="371"/>
      <point x="116" y="394" type="curve" smooth="yes"/>
      <point x="103" y="417"/>
      <point x="97" y="444"/>
      <point x="97" y="473" type="curve" smooth="yes"/>
      <point x="97" y="525"/>
      <point x="115" y="567"/>
      <point x="152" y="599" type="curve" smooth="yes"/>
      <point x="177" y="621"/>
      <point x="214" y="634"/>
      <point x="263" y="639" type="curve" smooth="yes"/>
      <point x="267" y="639"/>
      <point x="270" y="643"/>
      <point x="270" y="647" type="curve" smooth="yes"/>
      <point x="270" y="676" type="line"/>
      <point x="299" y="676" type="line"/>
      <point x="299" y="647" type="line" smooth="yes"/>
      <point x="299" y="643"/>
      <point x="302" y="639"/>
      <point x="306" y="639" type="curve" smooth="yes"/>
      <point x="349" y="639"/>
      <point x="383" y="623"/>
      <point x="408" y="602" type="curve" smooth="yes"/>
      <point x="438" y="577"/>
      <point x="457" y="543"/>
      <point x="465" y="500" type="curve"/>
      <point x="402" y="491" type="line"/>
      <point x="397" y="519"/>
      <point x="387" y="540"/>
      <point x="373" y="556" type="curve" smooth="yes"/>
      <point x="357" y="573"/>
      <point x="336" y="584"/>
      <point x="309" y="590" type="curve" smooth="yes"/>
      <point x="307" y="591"/>
      <point x="304" y="591"/>
      <point x="302" y="589" type="curve" smooth="yes"/>
      <point x="300" y="587"/>
      <point x="299" y="584"/>
      <point x="299" y="582" type="curve" smooth="yes"/>
      <point x="299" y="361" type="line" smooth="yes"/>
      <point x="299" y="357"/>
      <point x="301" y="354"/>
      <point x="305" y="353" type="curve" smooth="yes"/>
      <point x="343" y="343"/>
      <point x="369" y="335"/>
      <point x="381" y="330" type="curve" smooth="yes"/>
      <point x="404" y="320"/>
      <point x="423" y="308"/>
      <point x="437" y="294" type="curve" smooth="yes"/>
      <point x="451" y="280"/>
      <point x="462" y="263"/>
      <point x="470" y="243" type="curve" smooth="yes"/>
      <point x="478" y="223"/>
      <point x="481" y="201"/>
      <point x="481" y="178" type="curve" smooth="yes"/>
      <point x="481" y="127"/>
      <point x="465" y="85"/>
      <point x="433" y="51" type="curve" smooth="yes"/>
      <point x="401" y="17"/>
      <point x="359" y="-5"/>
      <point x="307" y="-5" type="curve" smooth="yes"/>
      <point x="303" y="-5"/>
      <point x="299" y="-8"/>
      <point x="299" y="-12" type="curve" smooth="yes"/>
      <point x="299" y="-82" type="line"/>
      <point x="270" y="-82" type="line"/>
      <point x="270" y="-13" type="line" smooth="yes"/>
      <point x="270" y="-9"/>
      <point x="267" y="-6"/>
      <point x="263" y="-5" type="curve" smooth="yes"/>
      <point x="226" y="0"/>
      <point x="197" y="8"/>
      <point x="174" y="20" type="curve" smooth="yes"/>
      <point x="151" y="32"/>
      <point x="130" y="51"/>
      <point x="113" y="77" type="curve" smooth="yes"/>
      <point x="97" y="102"/>
      <point x="84" y="132"/>
    </contour>
    <contour>
      <point x="157" y="479" type="curve" smooth="yes"/>
      <point x="157" y="451"/>
      <point x="165" y="426"/>
      <point x="181" y="407" type="curve" smooth="yes"/>
      <point x="196" y="388"/>
      <point x="222" y="373"/>
      <point x="259" y="362" type="curve" smooth="yes"/>
      <point x="262" y="361"/>
      <point x="265" y="362"/>
      <point x="267" y="364" type="curve" smooth="yes"/>
      <point x="269" y="366"/>
      <point x="270" y="367"/>
      <point x="270" y="370" type="curve" smooth="yes"/>
      <point x="270" y="583" type="line" smooth="yes"/>
      <point x="270" y="585"/>
      <point x="269" y="588"/>
      <point x="267" y="590" type="curve" smooth="yes"/>
      <point x="265" y="592"/>
      <point x="263" y="591"/>
      <point x="261" y="591" type="curve" smooth="yes"/>
      <point x="229" y="586"/>
      <point x="203" y="574"/>
      <point x="185" y="553" type="curve" smooth="yes"/>
      <point x="166" y="532"/>
      <point x="157" y="508"/>
    </contour>
    <contour>
      <point x="174" y="479" type="curve" smooth="yes"/>
      <point x="174" y="503"/>
      <point x="183" y="524"/>
      <point x="199" y="542" type="curve" smooth="yes"/>
      <point x="213" y="558"/>
      <point x="231" y="568"/>
      <point x="254" y="573" type="curve"/>
      <point x="254" y="382" type="line"/>
      <point x="227" y="391"/>
      <point x="206" y="403"/>
      <point x="194" y="418" type="curve" smooth="yes"/>
      <point x="181" y="434"/>
      <point x="174" y="455"/>
    </contour>
    <contour>
      <point x="186" y="479" type="curve" smooth="yes"/>
      <point x="186" y="463"/>
      <point x="190" y="449"/>
      <point x="199" y="439" type="curve"/>
      <point x="199" y="517" type="line"/>
      <point x="190" y="506"/>
      <point x="186" y="493"/>
    </contour>
    <contour>
      <point x="328" y="117" type="line"/>
      <point x="329" y="118" type="line" smooth="yes"/>
      <point x="342" y="133"/>
      <point x="348" y="151"/>
      <point x="348" y="173" type="curve" smooth="yes"/>
      <point x="348" y="190"/>
      <point x="345" y="203"/>
      <point x="337" y="213" type="curve" smooth="yes"/>
      <point x="335" y="216"/>
      <point x="331" y="219"/>
      <point x="328" y="222" type="curve"/>
    </contour>
    <contour>
      <point x="299" y="52" type="line" smooth="yes"/>
      <point x="299" y="50"/>
      <point x="300" y="47"/>
      <point x="302" y="45" type="curve" smooth="yes"/>
      <point x="304" y="43"/>
      <point x="306" y="43"/>
      <point x="308" y="43" type="curve" smooth="yes"/>
      <point x="340" y="47"/>
      <point x="367" y="61"/>
      <point x="388" y="85" type="curve" smooth="yes"/>
      <point x="409" y="109"/>
      <point x="419" y="138"/>
      <point x="419" y="173" type="curve" smooth="yes"/>
      <point x="419" y="203"/>
      <point x="411" y="228"/>
      <point x="396" y="246" type="curve" smooth="yes"/>
      <point x="381" y="264"/>
      <point x="353" y="280"/>
      <point x="310" y="294" type="curve" smooth="yes"/>
      <point x="307" y="295"/>
      <point x="304" y="295"/>
      <point x="302" y="293" type="curve" smooth="yes"/>
      <point x="300" y="291"/>
      <point x="299" y="289"/>
      <point x="299" y="286" type="curve" smooth="yes"/>
    </contour>
    <contour>
      <point x="316" y="61" type="curve"/>
      <point x="316" y="274" type="line"/>
      <point x="349" y="262"/>
      <point x="369" y="250"/>
      <point x="381" y="235" type="curve" smooth="yes"/>
      <point x="394" y="219"/>
      <point x="402" y="199"/>
      <point x="402" y="173" type="curve" smooth="yes"/>
      <point x="402" y="142"/>
      <point x="393" y="117"/>
      <point x="375" y="96" type="curve" smooth="yes"/>
      <point x="359" y="78"/>
      <point x="340" y="66"/>
    </contour>
  </outline>
</glyph>
<glyph name="ampersand" format="2">
  <advance width="693"/>
  <unicode hex="0026"/>
  <outline>
    <contour>
      <point x="11" y="173" type="curve" smooth="yes"/>
      <point x="11" y="221"/>
      <point x="27" y="265"/>
      <point x="58" y="304" type="curve" smooth="yes"/>
      <point x="78" y="329"/>
      <point x="104" y="351"/>
      <point x="138" y="372" type="curve"/>
      <point x="124" y="391"/>
      <point x="114" y="407"/>
      <point x="108" y="421" type="curve" smooth="yes"/>
      <point x="96" y="447"/>
      <point x="90" y="473"/>
      <point x="90" y="497" type="curve" smooth="yes"/>
      <point x="90" y="546"/>
      <point x="108" y="590"/>
      <point x="147" y="626" type="curve" smooth="yes"/>
      <point x="184" y="661"/>
      <point x="231" y="679"/>
      <point x="287" y="679" type="curve" smooth="yes"/>
      <point x="342" y="679"/>
      <point x="386" y="661"/>
      <point x="421" y="628" type="curve" smooth="yes"/>
      <point x="457" y="593"/>
      <point x="474" y="551"/>
      <point x="474" y="503" type="curve" smooth="yes"/>
      <point x="474" y="442"/>
      <point x="443" y="387"/>
      <point x="376" y="340" type="curve"/>
      <point x="413" y="292" type="line"/>
      <point x="416" y="304" type="line" smooth="yes"/>
      <point x="420" y="324"/>
      <point x="437" y="336"/>
      <point x="456" y="336" type="curve" smooth="yes"/>
      <point x="459" y="336"/>
      <point x="462" y="337"/>
      <point x="465" y="336" type="curve" smooth="yes"/>
      <point x="545" y="320" type="line" smooth="yes"/>
      <point x="556" y="318"/>
      <point x="566" y="310"/>
      <point x="572" y="300" type="curve" smooth="yes"/>
      <point x="576" y="293"/>
      <point x="578" y="286"/>
      <point x="578" y="278" type="curve" smooth="yes"/>
      <point x="578" y="275"/>
      <point x="578" y="271"/>
      <point x="577" y="268" type="curve" smooth="yes"/>
      <point x="565" y="221"/>
      <point x="549" y="180"/>
      <point x="531" y="146" type="curve"/>
      <point x="553" y="121"/>
      <point x="577" y="100"/>
      <point x="603" y="82" type="curve" smooth="yes"/>
      <point x="613" y="75"/>
      <point x="619" y="64"/>
      <point x="620" y="52" type="curve" smooth="yes"/>
      <point x="620" y="46" type="line" smooth="yes"/>
      <point x="620" y="36"/>
      <point x="617" y="28"/>
      <point x="611" y="20" type="curve" smooth="yes"/>
      <point x="559" y="-41" type="line" smooth="yes"/>
      <point x="551" y="-51"/>
      <point x="539" y="-56"/>
      <point x="527" y="-56" type="curve" smooth="yes"/>
      <point x="519" y="-56"/>
      <point x="511" y="-56"/>
      <point x="504" y="-52" type="curve" smooth="yes"/>
      <point x="479" y="-36"/>
      <point x="455" y="-13"/>
      <point x="429" y="14" type="curve"/>
      <point x="409" y="-3"/>
      <point x="388" y="-17"/>
      <point x="366" y="-27" type="curve" smooth="yes"/>
      <point x="331" y="-44"/>
      <point x="292" y="-52"/>
      <point x="251" y="-52" type="curve" smooth="yes"/>
      <point x="174" y="-52"/>
      <point x="112" y="-25"/>
      <point x="67" y="27" type="curve" smooth="yes"/>
      <point x="30" y="70"/>
      <point x="11" y="119"/>
    </contour>
    <contour>
      <point x="65" y="173" type="curve" smooth="yes"/>
      <point x="65" y="127"/>
      <point x="81" y="86"/>
      <point x="113" y="49" type="curve" smooth="yes"/>
      <point x="152" y="4"/>
      <point x="205" y="-19"/>
      <point x="272" y="-19" type="curve" smooth="yes"/>
      <point x="308" y="-19"/>
      <point x="341" y="-12"/>
      <point x="372" y="3" type="curve" smooth="yes"/>
      <point x="400" y="16"/>
      <point x="427" y="35"/>
      <point x="451" y="61" type="curve"/>
      <point x="483" y="25"/>
      <point x="513" y="-3"/>
      <point x="543" y="-22" type="curve" smooth="yes"/>
      <point x="547" y="-24"/>
      <point x="551" y="-23"/>
      <point x="554" y="-20" type="curve" smooth="yes"/>
      <point x="608" y="41" type="line" smooth="yes"/>
      <point x="610" y="43"/>
      <point x="608" y="46"/>
      <point x="608" y="48" type="curve" smooth="yes"/>
      <point x="608" y="50"/>
      <point x="606" y="52"/>
      <point x="604" y="53" type="curve" smooth="yes"/>
      <point x="570" y="77"/>
      <point x="539" y="108"/>
      <point x="512" y="143" type="curve"/>
      <point x="534" y="178"/>
      <point x="552" y="223"/>
      <point x="565" y="276" type="curve" smooth="yes"/>
      <point x="566" y="278"/>
      <point x="565" y="280"/>
      <point x="564" y="282" type="curve" smooth="yes"/>
      <point x="563" y="284"/>
      <point x="561" y="286"/>
      <point x="559" y="286" type="curve" smooth="yes"/>
      <point x="479" y="303" type="line" smooth="yes"/>
      <point x="475" y="304"/>
      <point x="470" y="301"/>
      <point x="469" y="297" type="curve" smooth="yes"/>
      <point x="463" y="270"/>
      <point x="456" y="245"/>
      <point x="446" y="223" type="curve"/>
      <point x="346" y="348" type="line"/>
      <point x="423" y="391"/>
      <point x="462" y="443"/>
      <point x="462" y="503" type="curve" smooth="yes"/>
      <point x="462" y="542"/>
      <point x="447" y="576"/>
      <point x="418" y="604" type="curve" smooth="yes"/>
      <point x="389" y="632"/>
      <point x="353" y="645"/>
      <point x="308" y="645" type="curve" smooth="yes"/>
      <point x="261" y="645"/>
      <point x="222" y="630"/>
      <point x="191" y="601" type="curve" smooth="yes"/>
      <point x="160" y="572"/>
      <point x="144" y="537"/>
      <point x="144" y="497" type="curve" smooth="yes"/>
      <point x="144" y="477"/>
      <point x="149" y="456"/>
      <point x="159" y="435" type="curve" smooth="yes"/>
      <point x="168" y="416"/>
      <point x="184" y="392"/>
      <point x="209" y="362" type="curve"/>
      <point x="163" y="339"/>
      <point x="128" y="313"/>
      <point x="104" y="283" type="curve" smooth="yes"/>
      <point x="78" y="250"/>
      <point x="65" y="214"/>
    </contour>
    <contour>
      <point x="82" y="173" type="curve" smooth="yes"/>
      <point x="82" y="210"/>
      <point x="93" y="242"/>
      <point x="117" y="272" type="curve" smooth="yes"/>
      <point x="141" y="302"/>
      <point x="178" y="329"/>
      <point x="226" y="352" type="curve" smooth="yes"/>
      <point x="228" y="353"/>
      <point x="230" y="355"/>
      <point x="231" y="358" type="curve" smooth="yes"/>
      <point x="232" y="361"/>
      <point x="231" y="363"/>
      <point x="229" y="365" type="curve" smooth="yes"/>
      <point x="201" y="397"/>
      <point x="183" y="422"/>
      <point x="174" y="442" type="curve" smooth="yes"/>
      <point x="165" y="461"/>
      <point x="161" y="479"/>
      <point x="161" y="497" type="curve" smooth="yes"/>
      <point x="161" y="532"/>
      <point x="174" y="563"/>
      <point x="202" y="589" type="curve" smooth="yes"/>
      <point x="230" y="615"/>
      <point x="266" y="629"/>
      <point x="308" y="629" type="curve" smooth="yes"/>
      <point x="348" y="629"/>
      <point x="381" y="617"/>
      <point x="407" y="592" type="curve" smooth="yes"/>
      <point x="432" y="567"/>
      <point x="445" y="537"/>
      <point x="445" y="503" type="curve" smooth="yes"/>
      <point x="445" y="446"/>
      <point x="406" y="398"/>
      <point x="331" y="358" type="curve" smooth="yes"/>
      <point x="329" y="357"/>
      <point x="328" y="354"/>
      <point x="327" y="352" type="curve" smooth="yes"/>
      <point x="326" y="350"/>
      <point x="327" y="348"/>
      <point x="329" y="346" type="curve" smooth="yes"/>
      <point x="441" y="202" type="line" smooth="yes"/>
      <point x="443" y="200"/>
      <point x="445" y="199"/>
      <point x="448" y="199" type="curve" smooth="yes"/>
      <point x="451" y="199"/>
      <point x="454" y="201"/>
      <point x="455" y="204" type="curve" smooth="yes"/>
      <point x="467" y="228"/>
      <point x="477" y="255"/>
      <point x="484" y="285" type="curve"/>
      <point x="547" y="271" type="line"/>
      <point x="534" y="221"/>
      <point x="517" y="180"/>
      <point x="495" y="147" type="curve" smooth="yes"/>
      <point x="493" y="144"/>
      <point x="493" y="141"/>
      <point x="495" y="138" type="curve" smooth="yes"/>
      <point x="522" y="102"/>
      <point x="553" y="70"/>
      <point x="587" y="45" type="curve"/>
      <point x="546" y="-2" type="line"/>
      <point x="517" y="17"/>
      <point x="488" y="43"/>
      <point x="458" y="79" type="curve" smooth="yes"/>
      <point x="456" y="81"/>
      <point x="454" y="82"/>
      <point x="452" y="82" type="curve" smooth="yes"/>
      <point x="450" y="82"/>
      <point x="448" y="81"/>
      <point x="446" y="79" type="curve" smooth="yes"/>
      <point x="421" y="52"/>
      <point x="394" y="32"/>
      <point x="365" y="18" type="curve" smooth="yes"/>
      <point x="336" y="4"/>
      <point x="305" y="-2"/>
      <point x="272" y="-2" type="curve" smooth="yes"/>
      <point x="211" y="-2"/>
      <point x="163" y="19"/>
      <point x="127" y="60" type="curve" smooth="yes"/>
      <point x="98" y="94"/>
      <point x="82" y="131"/>
    </contour>
    <contour>
      <point x="148" y="177" type="curve" smooth="yes"/>
      <point x="148" y="150"/>
      <point x="159" y="122"/>
      <point x="180" y="93" type="curve" smooth="yes"/>
      <point x="202" y="63"/>
      <point x="233" y="49"/>
      <point x="273" y="49" type="curve" smooth="yes"/>
      <point x="297" y="49"/>
      <point x="320" y="57"/>
      <point x="346" y="72" type="curve" smooth="yes"/>
      <point x="372" y="87"/>
      <point x="394" y="106"/>
      <point x="410" y="130" type="curve" smooth="yes"/>
      <point x="412" y="133"/>
      <point x="412" y="137"/>
      <point x="410" y="140" type="curve" smooth="yes"/>
      <point x="269" y="315" type="line" smooth="yes"/>
      <point x="266" y="318"/>
      <point x="262" y="318"/>
      <point x="258" y="316" type="curve" smooth="yes"/>
      <point x="215" y="290"/>
      <point x="186" y="267"/>
      <point x="171" y="245" type="curve" smooth="yes"/>
      <point x="155" y="222"/>
      <point x="148" y="199"/>
    </contour>
    <contour>
      <point x="165" y="177" type="curve" smooth="yes"/>
      <point x="165" y="196"/>
      <point x="172" y="216"/>
      <point x="185" y="236" type="curve" smooth="yes"/>
      <point x="198" y="255"/>
      <point x="224" y="275"/>
      <point x="261" y="298" type="curve"/>
      <point x="393" y="134" type="line"/>
      <point x="379" y="115"/>
      <point x="362" y="99"/>
      <point x="340" y="86" type="curve" smooth="yes"/>
      <point x="317" y="72"/>
      <point x="295" y="66"/>
      <point x="273" y="66" type="curve" smooth="yes"/>
      <point x="239" y="66"/>
      <point x="213" y="78"/>
      <point x="194" y="103" type="curve" smooth="yes"/>
      <point x="175" y="129"/>
      <point x="165" y="153"/>
    </contour>
    <contour>
      <point x="177" y="177" type="curve" smooth="yes"/>
      <point x="177" y="159"/>
      <point x="185" y="142"/>
      <point x="199" y="123" type="curve" smooth="yes"/>
      <point x="211" y="106"/>
      <point x="230" y="99"/>
      <point x="252" y="99" type="curve" smooth="yes"/>
      <point x="268" y="99"/>
      <point x="285" y="105"/>
      <point x="302" y="115" type="curve" smooth="yes"/>
      <point x="312" y="121"/>
      <point x="321" y="127"/>
      <point x="329" y="135" type="curve"/>
      <point x="233" y="254" type="line"/>
      <point x="214" y="241"/>
      <point x="200" y="229"/>
      <point x="192" y="217" type="curve" smooth="yes"/>
      <point x="183" y="204"/>
      <point x="177" y="190"/>
    </contour>
    <contour>
      <point x="223" y="505" type="curve" smooth="yes"/>
      <point x="223" y="494"/>
      <point x="225" y="483"/>
      <point x="231" y="471" type="curve" smooth="yes"/>
      <point x="236" y="460"/>
      <point x="245" y="448"/>
      <point x="255" y="435" type="curve" smooth="yes"/>
      <point x="289" y="395" type="line" smooth="yes"/>
      <point x="292" y="392"/>
      <point x="297" y="391"/>
      <point x="300" y="393" type="curve" smooth="yes"/>
      <point x="335" y="414"/>
      <point x="357" y="432"/>
      <point x="367" y="447" type="curve" smooth="yes"/>
      <point x="378" y="463"/>
      <point x="383" y="481"/>
      <point x="383" y="501" type="curve" smooth="yes"/>
      <point x="383" y="525"/>
      <point x="375" y="544"/>
      <point x="360" y="559" type="curve" smooth="yes"/>
      <point x="345" y="574"/>
      <point x="327" y="582"/>
      <point x="304" y="582" type="curve" smooth="yes"/>
      <point x="281" y="582"/>
      <point x="261" y="575"/>
      <point x="246" y="560" type="curve" smooth="yes"/>
      <point x="230" y="545"/>
      <point x="223" y="527"/>
    </contour>
    <contour>
      <point x="240" y="505" type="curve" smooth="yes"/>
      <point x="240" y="522"/>
      <point x="246" y="537"/>
      <point x="258" y="549" type="curve" smooth="yes"/>
      <point x="270" y="561"/>
      <point x="286" y="565"/>
      <point x="304" y="565" type="curve" smooth="yes"/>
      <point x="322" y="565"/>
      <point x="337" y="561"/>
      <point x="349" y="549" type="curve" smooth="yes"/>
      <point x="361" y="537"/>
      <point x="366" y="520"/>
      <point x="366" y="501" type="curve" smooth="yes"/>
      <point x="366" y="485"/>
      <point x="362" y="470"/>
      <point x="353" y="457" type="curve" smooth="yes"/>
      <point x="344" y="444"/>
      <point x="325" y="428"/>
      <point x="297" y="411" type="curve"/>
      <point x="268" y="445" type="line" smooth="yes"/>
      <point x="259" y="456"/>
      <point x="251" y="468"/>
      <point x="246" y="478" type="curve" smooth="yes"/>
      <point x="242" y="487"/>
      <point x="240" y="496"/>
    </contour>
    <contour>
      <point x="252" y="505" type="curve" smooth="yes"/>
      <point x="252" y="501"/>
      <point x="254" y="497"/>
      <point x="256" y="492" type="curve" smooth="yes"/>
      <point x="260" y="484"/>
      <point x="265" y="476"/>
      <point x="272" y="467" type="curve" smooth="yes"/>
      <point x="283" y="455" type="line"/>
      <point x="293" y="462"/>
      <point x="301" y="469"/>
      <point x="305" y="475" type="curve" smooth="yes"/>
      <point x="310" y="483"/>
      <point x="312" y="491"/>
      <point x="312" y="501" type="curve" smooth="yes"/>
      <point x="312" y="510"/>
      <point x="310" y="518"/>
      <point x="304" y="524" type="curve" smooth="yes"/>
      <point x="298" y="530"/>
      <point x="291" y="532"/>
      <point x="283" y="532" type="curve" smooth="yes"/>
      <point x="274" y="532"/>
      <point x="266" y="530"/>
      <point x="260" y="524" type="curve" smooth="yes"/>
      <point x="255" y="519"/>
      <point x="252" y="513"/>
    </contour>
  </outline>
</glyph>
<glyph name="quotesingle" format="2">
  <advance width="287"/>
  <unicode hex="0027"/>
  <outline>
    <contour>
      <point x="23" y="522" type="curve" smooth="yes"/>
      <point x="23" y="626" type="line" smooth="yes"/>
      <point x="23" y="649"/>
      <point x="42" y="668"/>
      <point x="65" y="668" type="curve" smooth="yes"/>
      <point x="152" y="668" type="line" smooth="yes"/>
      <point x="175" y="668"/>
      <point x="194" y="650"/>
      <point x="194" y="627" type="curve" smooth="yes"/>
      <point x="194" y="626" type="line"/>
      <point x="194" y="522" type="line"/>
      <point x="194" y="521" type="line" smooth="yes"/>
      <point x="194" y="519"/>
      <point x="193" y="516"/>
      <point x="193" y="514" type="curve" smooth="yes"/>
      <point x="173" y="397" type="line" smooth="yes"/>
      <point x="170" y="377"/>
      <point x="152" y="363"/>
      <point x="132" y="363" type="curve" smooth="yes"/>
      <point x="84" y="363" type="line" smooth="yes"/>
      <point x="64" y="363"/>
      <point x="46" y="378"/>
      <point x="43" y="398" type="curve" smooth="yes"/>
      <point x="24" y="515" type="line" smooth="yes"/>
      <point x="24" y="517"/>
      <point x="23" y="520"/>
    </contour>
    <contour>
      <point x="77" y="520" type="line"/>
      <point x="97" y="403" type="line" smooth="yes"/>
      <point x="98" y="399"/>
      <point x="101" y="396"/>
      <point x="105" y="396" type="curve" smooth="yes"/>
      <point x="153" y="396" type="line" smooth="yes"/>
      <point x="157" y="396"/>
      <point x="160" y="399"/>
      <point x="161" y="403" type="curve" smooth="yes"/>
      <point x="181" y="520" type="line"/>
      <point x="181" y="522" type="line"/>
      <point x="181" y="626" type="line" smooth="yes"/>
      <point x="181" y="631"/>
      <point x="178" y="635"/>
      <point x="173" y="635" type="curve" smooth="yes"/>
      <point x="85" y="635" type="line" smooth="yes"/>
      <point x="80" y="635"/>
      <point x="77" y="631"/>
      <point x="77" y="626" type="curve" smooth="yes"/>
      <point x="77" y="522" type="line"/>
    </contour>
    <contour>
      <point x="94" y="522" type="line"/>
      <point x="94" y="618" type="line"/>
      <point x="165" y="618" type="line"/>
      <point x="165" y="522" type="line"/>
      <point x="146" y="413" type="line"/>
      <point x="112" y="413" type="line"/>
    </contour>
  </outline>
</glyph>
<glyph name="parenleft" format="2">
  <advance width="356"/>
  <unicode hex="0028"/>
  <outline>
    <contour>
      <point x="9" y="295" type="curve" smooth="yes"/>
      <point x="9" y="368"/>
      <point x="20" y="437"/>
      <point x="43" y="504" type="curve" smooth="yes"/>
      <point x="70" y="580"/>
      <point x="113" y="655"/>
      <point x="169" y="730" type="curve" smooth="yes"/>
      <point x="177" y="741"/>
      <point x="190" y="747"/>
      <point x="203" y="747" type="curve" smooth="yes"/>
      <point x="258" y="747" type="line" smooth="yes"/>
      <point x="273" y="747"/>
      <point x="287" y="739"/>
      <point x="294" y="726" type="curve" smooth="yes"/>
      <point x="298" y="720"/>
      <point x="300" y="712"/>
      <point x="300" y="705" type="curve" smooth="yes"/>
      <point x="300" y="698"/>
      <point x="298" y="690"/>
      <point x="294" y="684" type="curve" smooth="yes"/>
      <point x="261" y="627"/>
      <point x="239" y="586"/>
      <point x="228" y="561" type="curve" smooth="yes"/>
      <point x="212" y="524"/>
      <point x="198" y="486"/>
      <point x="189" y="446" type="curve" smooth="yes"/>
      <point x="177" y="396"/>
      <point x="172" y="345"/>
      <point x="172" y="294" type="curve" smooth="yes"/>
      <point x="172" y="164"/>
      <point x="212" y="35"/>
      <point x="293" y="-94" type="curve" smooth="yes"/>
      <point x="297" y="-101"/>
      <point x="300" y="-108"/>
      <point x="300" y="-116" type="curve" smooth="yes"/>
      <point x="300" y="-123"/>
      <point x="297" y="-130"/>
      <point x="294" y="-136" type="curve" smooth="yes"/>
      <point x="287" y="-149"/>
      <point x="273" y="-158"/>
      <point x="258" y="-158" type="curve" smooth="yes"/>
      <point x="203" y="-158" type="line" smooth="yes"/>
      <point x="190" y="-158"/>
      <point x="178" y="-152"/>
      <point x="170" y="-142" type="curve" smooth="yes"/>
      <point x="125" y="-86"/>
      <point x="88" y="-20"/>
      <point x="57" y="56" type="curve" smooth="yes"/>
      <point x="26" y="133"/>
      <point x="9" y="213"/>
    </contour>
    <contour>
      <point x="64" y="295" type="curve" smooth="yes"/>
      <point x="64" y="217"/>
      <point x="78" y="142"/>
      <point x="108" y="69" type="curve" smooth="yes"/>
      <point x="138" y="-4"/>
      <point x="174" y="-67"/>
      <point x="217" y="-121" type="curve" smooth="yes"/>
      <point x="219" y="-123"/>
      <point x="221" y="-124"/>
      <point x="224" y="-124" type="curve" smooth="yes"/>
      <point x="279" y="-124" type="line" smooth="yes"/>
      <point x="282" y="-124"/>
      <point x="285" y="-123"/>
      <point x="286" y="-120" type="curve" smooth="yes"/>
      <point x="287" y="-117"/>
      <point x="288" y="-115"/>
      <point x="286" y="-112" type="curve" smooth="yes"/>
      <point x="202" y="23"/>
      <point x="159" y="158"/>
      <point x="159" y="294" type="curve" smooth="yes"/>
      <point x="159" y="347"/>
      <point x="166" y="400"/>
      <point x="178" y="453" type="curve" smooth="yes"/>
      <point x="188" y="495"/>
      <point x="201" y="536"/>
      <point x="218" y="575" type="curve" smooth="yes"/>
      <point x="229" y="600"/>
      <point x="252" y="642"/>
      <point x="286" y="701" type="curve" smooth="yes"/>
      <point x="287" y="704"/>
      <point x="287" y="706"/>
      <point x="286" y="709" type="curve" smooth="yes"/>
      <point x="285" y="712"/>
      <point x="282" y="713"/>
      <point x="279" y="713" type="curve" smooth="yes"/>
      <point x="224" y="713" type="line" smooth="yes"/>
      <point x="221" y="713"/>
      <point x="219" y="712"/>
      <point x="217" y="710" type="curve" smooth="yes"/>
      <point x="163" y="638"/>
      <point x="123" y="565"/>
      <point x="97" y="492" type="curve" smooth="yes"/>
      <point x="75" y="429"/>
      <point x="64" y="364"/>
    </contour>
    <contour>
      <point x="80" y="295" type="curve" smooth="yes"/>
      <point x="80" y="362"/>
      <point x="91" y="426"/>
      <point x="113" y="487" type="curve" smooth="yes"/>
      <point x="138" y="557"/>
      <point x="176" y="627"/>
      <point x="228" y="697" type="curve"/>
      <point x="264" y="697" type="line"/>
      <point x="233" y="644"/>
      <point x="213" y="605"/>
      <point x="203" y="581" type="curve" smooth="yes"/>
      <point x="185" y="541"/>
      <point x="169" y="500"/>
      <point x="159" y="457" type="curve" smooth="yes"/>
      <point x="147" y="403"/>
      <point x="143" y="348"/>
      <point x="143" y="294" type="curve" smooth="yes"/>
      <point x="143" y="160"/>
      <point x="183" y="26"/>
      <point x="264" y="-108" type="curve"/>
      <point x="228" y="-108" type="line"/>
      <point x="187" y="-56"/>
      <point x="150" y="5"/>
      <point x="122" y="75" type="curve" smooth="yes"/>
      <point x="93" y="146"/>
      <point x="80" y="219"/>
    </contour>
  </outline>
</glyph>
<glyph name="parenright" format="2">
  <advance width="356"/>
  <unicode hex="0029"/>
  <outline>
    <contour>
      <point x="9" y="-116" type="curve" smooth="yes"/>
      <point x="9" y="-108"/>
      <point x="12" y="-101"/>
      <point x="16" y="-94" type="curve" smooth="yes"/>
      <point x="97" y="35"/>
      <point x="137" y="164"/>
      <point x="137" y="294" type="curve" smooth="yes"/>
      <point x="137" y="344"/>
      <point x="132" y="394"/>
      <point x="120" y="444" type="curve"/>
      <point x="120" y="445" type="line"/>
      <point x="111" y="485"/>
      <point x="98" y="523"/>
      <point x="82" y="560" type="curve" smooth="yes"/>
      <point x="71" y="585"/>
      <point x="49" y="626"/>
      <point x="15" y="684" type="curve" smooth="yes"/>
      <point x="11" y="690"/>
      <point x="9" y="698"/>
      <point x="9" y="705" type="curve" smooth="yes"/>
      <point x="9" y="712"/>
      <point x="11" y="720"/>
      <point x="15" y="726" type="curve" smooth="yes"/>
      <point x="22" y="739"/>
      <point x="36" y="747"/>
      <point x="51" y="747" type="curve" smooth="yes"/>
      <point x="106" y="747" type="line" smooth="yes"/>
      <point x="119" y="747"/>
      <point x="132" y="741"/>
      <point x="140" y="730" type="curve" smooth="yes"/>
      <point x="196" y="655"/>
      <point x="237" y="580"/>
      <point x="264" y="504" type="curve" smooth="yes"/>
      <point x="287" y="438"/>
      <point x="300" y="369"/>
      <point x="300" y="297" type="curve" smooth="yes"/>
      <point x="300" y="295" type="line" smooth="yes"/>
      <point x="300" y="213"/>
      <point x="282" y="133"/>
      <point x="250" y="56" type="curve" smooth="yes"/>
      <point x="219" y="-20"/>
      <point x="181" y="-86"/>
      <point x="137" y="-142" type="curve" smooth="yes"/>
      <point x="129" y="-152"/>
      <point x="119" y="-158"/>
      <point x="106" y="-158" type="curve" smooth="yes"/>
      <point x="51" y="-158" type="line" smooth="yes"/>
      <point x="36" y="-158"/>
      <point x="22" y="-149"/>
      <point x="15" y="-136" type="curve" smooth="yes"/>
      <point x="12" y="-130"/>
      <point x="9" y="-123"/>
    </contour>
    <contour>
      <point x="65" y="-112" type="curve" smooth="yes"/>
      <point x="63" y="-115"/>
      <point x="64" y="-117"/>
      <point x="65" y="-120" type="curve" smooth="yes"/>
      <point x="66" y="-123"/>
      <point x="69" y="-124"/>
      <point x="72" y="-124" type="curve" smooth="yes"/>
      <point x="127" y="-124" type="line" smooth="yes"/>
      <point x="130" y="-124"/>
      <point x="132" y="-123"/>
      <point x="134" y="-121" type="curve" smooth="yes"/>
      <point x="177" y="-67"/>
      <point x="212" y="-4"/>
      <point x="242" y="69" type="curve" smooth="yes"/>
      <point x="272" y="142"/>
      <point x="287" y="217"/>
      <point x="287" y="295" type="curve" smooth="yes"/>
      <point x="287" y="364"/>
      <point x="276" y="429"/>
      <point x="254" y="492" type="curve" smooth="yes"/>
      <point x="228" y="565"/>
      <point x="188" y="638"/>
      <point x="134" y="710" type="curve" smooth="yes"/>
      <point x="132" y="712"/>
      <point x="130" y="713"/>
      <point x="127" y="713" type="curve" smooth="yes"/>
      <point x="72" y="713" type="line" smooth="yes"/>
      <point x="69" y="713"/>
      <point x="66" y="712"/>
      <point x="65" y="709" type="curve" smooth="yes"/>
      <point x="64" y="706"/>
      <point x="64" y="704"/>
      <point x="65" y="701" type="curve" smooth="yes"/>
      <point x="100" y="642"/>
      <point x="122" y="599"/>
      <point x="133" y="574" type="curve"/>
      <point x="133" y="573" type="line"/>
      <point x="150" y="534"/>
      <point x="161" y="494"/>
      <point x="171" y="452" type="curve" smooth="yes"/>
      <point x="183" y="400"/>
      <point x="191" y="347"/>
      <point x="191" y="294" type="curve" smooth="yes"/>
      <point x="191" y="158"/>
      <point x="149" y="23"/>
    </contour>
    <contour>
      <point x="86" y="697" type="curve"/>
      <point x="123" y="697" type="line"/>
      <point x="175" y="627"/>
      <point x="213" y="557"/>
      <point x="238" y="487" type="curve" smooth="yes"/>
      <point x="260" y="426"/>
      <point x="270" y="362"/>
      <point x="270" y="295" type="curve" smooth="yes"/>
      <point x="270" y="219"/>
      <point x="256" y="146"/>
      <point x="227" y="75" type="curve" smooth="yes"/>
      <point x="198" y="5"/>
      <point x="164" y="-56"/>
      <point x="123" y="-108" type="curve"/>
      <point x="87" y="-108" type="line"/>
      <point x="168" y="26"/>
      <point x="208" y="160"/>
      <point x="208" y="294" type="curve" smooth="yes"/>
      <point x="208" y="348"/>
      <point x="201" y="403"/>
      <point x="189" y="456" type="curve" smooth="yes"/>
      <point x="179" y="499"/>
      <point x="166" y="540"/>
      <point x="148" y="580" type="curve" smooth="yes"/>
      <point x="138" y="604"/>
      <point x="117" y="643"/>
    </contour>
  </outline>
</glyph>
<glyph name="asterisk" format="2">
  <advance width="448"/>
  <unicode hex="002A"/>
  <outline>
    <contour>
      <point x="9" y="511" type="curve" smooth="yes"/>
      <point x="9" y="515"/>
      <point x="10" y="520"/>
      <point x="11" y="524" type="curve" smooth="yes"/>
      <point x="31" y="585" type="line" smooth="yes"/>
      <point x="34" y="596"/>
      <point x="42" y="604"/>
      <point x="52" y="609" type="curve" smooth="yes"/>
      <point x="58" y="612"/>
      <point x="64" y="614"/>
      <point x="70" y="614" type="curve" smooth="yes"/>
      <point x="75" y="614"/>
      <point x="80" y="613"/>
      <point x="84" y="611" type="curve" smooth="yes"/>
      <point x="97" y="606"/>
      <point x="110" y="602"/>
      <point x="121" y="598" type="curve"/>
      <point x="120" y="615"/>
      <point x="119" y="627"/>
      <point x="119" y="637" type="curve" smooth="yes"/>
      <point x="119" y="648"/>
      <point x="123" y="658"/>
      <point x="131" y="666" type="curve" smooth="yes"/>
      <point x="139" y="674"/>
      <point x="149" y="679"/>
      <point x="160" y="679" type="curve" smooth="yes"/>
      <point x="222" y="679" type="line" smooth="yes"/>
      <point x="233" y="679"/>
      <point x="244" y="674"/>
      <point x="252" y="666" type="curve" smooth="yes"/>
      <point x="260" y="658"/>
      <point x="264" y="648"/>
      <point x="264" y="637" type="curve" smooth="yes"/>
      <point x="264" y="636" type="line" smooth="yes"/>
      <point x="264" y="625"/>
      <point x="263" y="612"/>
      <point x="262" y="598" type="curve"/>
      <point x="274" y="603"/>
      <point x="287" y="608"/>
      <point x="300" y="612" type="curve" smooth="yes"/>
      <point x="304" y="613"/>
      <point x="309" y="614"/>
      <point x="313" y="614" type="curve" smooth="yes"/>
      <point x="319" y="614"/>
      <point x="326" y="612"/>
      <point x="332" y="609" type="curve" smooth="yes"/>
      <point x="342" y="604"/>
      <point x="350" y="596"/>
      <point x="353" y="585" type="curve" smooth="yes"/>
      <point x="373" y="524" type="line" smooth="yes"/>
      <point x="374" y="520"/>
      <point x="375" y="515"/>
      <point x="375" y="511" type="curve" smooth="yes"/>
      <point x="375" y="494"/>
      <point x="363" y="478"/>
      <point x="346" y="472" type="curve" smooth="yes"/>
      <point x="334" y="468"/>
      <point x="321" y="464"/>
      <point x="309" y="461" type="curve"/>
      <point x="316" y="452"/>
      <point x="324" y="443"/>
      <point x="332" y="433" type="curve" smooth="yes"/>
      <point x="338" y="425"/>
      <point x="342" y="417"/>
      <point x="342" y="407" type="curve" smooth="yes"/>
      <point x="342" y="405"/>
      <point x="341" y="403"/>
      <point x="341" y="401" type="curve" smooth="yes"/>
      <point x="339" y="390"/>
      <point x="333" y="380"/>
      <point x="324" y="373" type="curve" smooth="yes"/>
      <point x="273" y="336" type="line" smooth="yes"/>
      <point x="266" y="331"/>
      <point x="257" y="329"/>
      <point x="249" y="329" type="curve" smooth="yes"/>
      <point x="236" y="329"/>
      <point x="223" y="335"/>
      <point x="215" y="346" type="curve" smooth="yes"/>
      <point x="208" y="356"/>
      <point x="200" y="367"/>
      <point x="192" y="380" type="curve"/>
      <point x="184" y="366"/>
      <point x="175" y="355"/>
      <point x="168" y="345" type="curve" smooth="yes"/>
      <point x="160" y="334"/>
      <point x="148" y="329"/>
      <point x="135" y="329" type="curve" smooth="yes"/>
      <point x="127" y="329"/>
      <point x="117" y="332"/>
      <point x="110" y="337" type="curve" smooth="yes"/>
      <point x="60" y="373" type="line" smooth="yes"/>
      <point x="51" y="380"/>
      <point x="45" y="390"/>
      <point x="43" y="401" type="curve" smooth="yes"/>
      <point x="43" y="407" type="line" smooth="yes"/>
      <point x="43" y="417"/>
      <point x="46" y="426"/>
      <point x="52" y="433" type="curve" smooth="yes"/>
      <point x="61" y="444"/>
      <point x="69" y="453"/>
      <point x="76" y="462" type="curve"/>
      <point x="40" y="471" type="line" smooth="yes"/>
      <point x="29" y="474"/>
      <point x="19" y="482"/>
      <point x="14" y="492" type="curve" smooth="yes"/>
      <point x="11" y="498"/>
      <point x="9" y="504"/>
    </contour>
    <contour>
      <point x="63" y="514" type="line" smooth="yes"/>
      <point x="62" y="512"/>
      <point x="63" y="509"/>
      <point x="64" y="507" type="curve" smooth="yes"/>
      <point x="65" y="505"/>
      <point x="67" y="504"/>
      <point x="69" y="503" type="curve" smooth="yes"/>
      <point x="98" y="495"/>
      <point x="128" y="488"/>
      <point x="159" y="482" type="curve"/>
      <point x="145" y="467"/>
      <point x="125" y="444"/>
      <point x="99" y="412" type="curve" smooth="yes"/>
      <point x="98" y="410"/>
      <point x="97" y="408"/>
      <point x="97" y="406" type="curve" smooth="yes"/>
      <point x="97" y="404"/>
      <point x="98" y="401"/>
      <point x="100" y="400" type="curve" smooth="yes"/>
      <point x="151" y="364" type="line" smooth="yes"/>
      <point x="155" y="361"/>
      <point x="159" y="361"/>
      <point x="162" y="365" type="curve" smooth="yes"/>
      <point x="176" y="384"/>
      <point x="193" y="411"/>
      <point x="211" y="445" type="curve"/>
      <point x="231" y="412"/>
      <point x="248" y="385"/>
      <point x="263" y="365" type="curve" smooth="yes"/>
      <point x="266" y="361"/>
      <point x="270" y="361"/>
      <point x="274" y="364" type="curve" smooth="yes"/>
      <point x="326" y="400" type="line" smooth="yes"/>
      <point x="328" y="401"/>
      <point x="329" y="404"/>
      <point x="329" y="406" type="curve" smooth="yes"/>
      <point x="329" y="408"/>
      <point x="328" y="410"/>
      <point x="327" y="412" type="curve" smooth="yes"/>
      <point x="302" y="442"/>
      <point x="282" y="466"/>
      <point x="266" y="482" type="curve"/>
      <point x="296" y="486"/>
      <point x="325" y="494"/>
      <point x="356" y="504" type="curve" smooth="yes"/>
      <point x="360" y="505"/>
      <point x="363" y="510"/>
      <point x="362" y="514" type="curve" smooth="yes"/>
      <point x="342" y="575" type="line" smooth="yes"/>
      <point x="341" y="577"/>
      <point x="340" y="579"/>
      <point x="338" y="580" type="curve" smooth="yes"/>
      <point x="336" y="581"/>
      <point x="333" y="581"/>
      <point x="331" y="580" type="curve" smooth="yes"/>
      <point x="299" y="569"/>
      <point x="270" y="557"/>
      <point x="244" y="545" type="curve"/>
      <point x="249" y="581"/>
      <point x="250" y="612"/>
      <point x="251" y="637" type="curve" smooth="yes"/>
      <point x="251" y="639"/>
      <point x="251" y="641"/>
      <point x="249" y="643" type="curve" smooth="yes"/>
      <point x="247" y="645"/>
      <point x="245" y="645"/>
      <point x="243" y="645" type="curve" smooth="yes"/>
      <point x="181" y="645" type="line" smooth="yes"/>
      <point x="179" y="645"/>
      <point x="177" y="645"/>
      <point x="175" y="643" type="curve" smooth="yes"/>
      <point x="173" y="641"/>
      <point x="173" y="639"/>
      <point x="173" y="637" type="curve" smooth="yes"/>
      <point x="173" y="619"/>
      <point x="176" y="589"/>
      <point x="180" y="545" type="curve"/>
      <point x="159" y="555"/>
      <point x="131" y="567"/>
      <point x="94" y="580" type="curve" smooth="yes"/>
      <point x="92" y="581"/>
      <point x="89" y="581"/>
      <point x="87" y="580" type="curve" smooth="yes"/>
      <point x="85" y="579"/>
      <point x="84" y="577"/>
      <point x="83" y="575" type="curve" smooth="yes"/>
    </contour>
    <contour>
      <point x="82" y="517" type="curve"/>
      <point x="96" y="561" type="line"/>
      <point x="137" y="546"/>
      <point x="167" y="534"/>
      <point x="186" y="523" type="curve" smooth="yes"/>
      <point x="189" y="521"/>
      <point x="191" y="522"/>
      <point x="194" y="524" type="curve" smooth="yes"/>
      <point x="197" y="526"/>
      <point x="198" y="529"/>
      <point x="198" y="532" type="curve" smooth="yes"/>
      <point x="193" y="576"/>
      <point x="191" y="609"/>
      <point x="190" y="629" type="curve"/>
      <point x="234" y="629" type="line"/>
      <point x="233" y="603"/>
      <point x="230" y="570"/>
      <point x="225" y="532" type="curve" smooth="yes"/>
      <point x="225" y="529"/>
      <point x="225" y="526"/>
      <point x="228" y="524" type="curve" smooth="yes"/>
      <point x="231" y="522"/>
      <point x="234" y="523"/>
      <point x="237" y="524" type="curve" smooth="yes"/>
      <point x="264" y="538"/>
      <point x="295" y="550"/>
      <point x="329" y="562" type="curve"/>
      <point x="343" y="517" type="line"/>
      <point x="310" y="507"/>
      <point x="278" y="500"/>
      <point x="246" y="496" type="curve" smooth="yes"/>
      <point x="243" y="496"/>
      <point x="240" y="493"/>
      <point x="239" y="490" type="curve" smooth="yes"/>
      <point x="238" y="487"/>
      <point x="240" y="483"/>
      <point x="242" y="481" type="curve" smooth="yes"/>
      <point x="258" y="467"/>
      <point x="281" y="443"/>
      <point x="309" y="408" type="curve"/>
      <point x="272" y="382" type="line"/>
      <point x="257" y="404"/>
      <point x="238" y="431"/>
      <point x="218" y="466" type="curve" smooth="yes"/>
      <point x="216" y="469"/>
      <point x="214" y="471"/>
      <point x="211" y="471" type="curve" smooth="yes"/>
      <point x="208" y="471"/>
      <point x="205" y="469"/>
      <point x="204" y="466" type="curve" smooth="yes"/>
      <point x="185" y="430"/>
      <point x="169" y="402"/>
      <point x="154" y="382" type="curve"/>
      <point x="117" y="408" type="line"/>
      <point x="147" y="444"/>
      <point x="169" y="469"/>
      <point x="182" y="481" type="curve" smooth="yes"/>
      <point x="184" y="483"/>
      <point x="185" y="487"/>
      <point x="184" y="490" type="curve" smooth="yes"/>
      <point x="183" y="493"/>
      <point x="181" y="495"/>
      <point x="178" y="496" type="curve" smooth="yes"/>
      <point x="145" y="502"/>
      <point x="112" y="509"/>
    </contour>
  </outline>
</glyph>
<glyph name="plus" format="2">
  <advance width="580"/>
  <unicode hex="002B"/>
  <outline>
    <contour>
      <point x="36" y="273" type="curve" smooth="yes"/>
      <point x="36" y="345" type="line" smooth="yes"/>
      <point x="36" y="368"/>
      <point x="55" y="386"/>
      <point x="78" y="386" type="curve" smooth="yes"/>
      <point x="207" y="386" type="line"/>
      <point x="207" y="515" type="line" smooth="yes"/>
      <point x="207" y="538"/>
      <point x="225" y="557"/>
      <point x="248" y="557" type="curve" smooth="yes"/>
      <point x="321" y="557" type="line" smooth="yes"/>
      <point x="344" y="557"/>
      <point x="363" y="538"/>
      <point x="363" y="515" type="curve" smooth="yes"/>
      <point x="363" y="386" type="line"/>
      <point x="491" y="386" type="line" smooth="yes"/>
      <point x="514" y="386"/>
      <point x="533" y="368"/>
      <point x="533" y="345" type="curve" smooth="yes"/>
      <point x="533" y="273" type="line" smooth="yes"/>
      <point x="533" y="250"/>
      <point x="514" y="231"/>
      <point x="491" y="231" type="curve" smooth="yes"/>
      <point x="363" y="231" type="line"/>
      <point x="363" y="101" type="line" smooth="yes"/>
      <point x="363" y="78"/>
      <point x="344" y="60"/>
      <point x="321" y="60" type="curve" smooth="yes"/>
      <point x="248" y="60" type="line" smooth="yes"/>
      <point x="225" y="60"/>
      <point x="207" y="78"/>
      <point x="207" y="101" type="curve" smooth="yes"/>
      <point x="207" y="231" type="line"/>
      <point x="78" y="231" type="line" smooth="yes"/>
      <point x="55" y="231"/>
      <point x="36" y="250"/>
    </contour>
    <contour>
      <point x="90" y="273" type="line" smooth="yes"/>
      <point x="90" y="268"/>
      <point x="94" y="265"/>
      <point x="99" y="265" type="curve" smooth="yes"/>
      <point x="261" y="265" type="line"/>
      <point x="261" y="101" type="line" smooth="yes"/>
      <point x="261" y="96"/>
      <point x="264" y="93"/>
      <point x="269" y="93" type="curve" smooth="yes"/>
      <point x="342" y="93" type="line" smooth="yes"/>
      <point x="347" y="93"/>
      <point x="350" y="96"/>
      <point x="350" y="101" type="curve" smooth="yes"/>
      <point x="350" y="265" type="line"/>
      <point x="512" y="265" type="line" smooth="yes"/>
      <point x="517" y="265"/>
      <point x="521" y="268"/>
      <point x="521" y="273" type="curve" smooth="yes"/>
      <point x="521" y="345" type="line" smooth="yes"/>
      <point x="521" y="350"/>
      <point x="517" y="353"/>
      <point x="512" y="353" type="curve" smooth="yes"/>
      <point x="350" y="353" type="line"/>
      <point x="350" y="515" type="line" smooth="yes"/>
      <point x="350" y="520"/>
      <point x="347" y="524"/>
      <point x="342" y="524" type="curve" smooth="yes"/>
      <point x="269" y="524" type="line" smooth="yes"/>
      <point x="264" y="524"/>
      <point x="261" y="520"/>
      <point x="261" y="515" type="curve" smooth="yes"/>
      <point x="261" y="353" type="line"/>
      <point x="99" y="353" type="line" smooth="yes"/>
      <point x="94" y="353"/>
      <point x="90" y="350"/>
      <point x="90" y="345" type="curve" smooth="yes"/>
    </contour>
    <contour>
      <point x="107" y="281" type="line"/>
      <point x="107" y="336" type="line"/>
      <point x="269" y="336" type="line" smooth="yes"/>
      <point x="274" y="336"/>
      <point x="278" y="340"/>
      <point x="278" y="345" type="curve" smooth="yes"/>
      <point x="278" y="507" type="line"/>
      <point x="333" y="507" type="line"/>
      <point x="333" y="345" type="line" smooth="yes"/>
      <point x="333" y="340"/>
      <point x="337" y="336"/>
      <point x="342" y="336" type="curve" smooth="yes"/>
      <point x="504" y="336" type="line"/>
      <point x="504" y="281" type="line"/>
      <point x="342" y="281" type="line" smooth="yes"/>
      <point x="337" y="281"/>
      <point x="333" y="278"/>
      <point x="333" y="273" type="curve" smooth="yes"/>
      <point x="333" y="110" type="line"/>
      <point x="278" y="110" type="line"/>
      <point x="278" y="273" type="line" smooth="yes"/>
      <point x="278" y="278"/>
      <point x="274" y="281"/>
      <point x="269" y="281" type="curve" smooth="yes"/>
    </contour>
  </outline>
</glyph>
<glyph name="comma" format="2">
  <advance width="266"/>
  <unicode hex="002C"/>
  <outline>
    <contour>
      <point x="11" y="-91" type="curve" smooth="yes"/>
      <point x="11" y="-87"/>
      <point x="12" y="-83"/>
      <point x="13" y="-79" type="curve" smooth="yes"/>
      <point x="17" y="-67"/>
      <point x="25" y="-58"/>
      <point x="36" y="-53" type="curve" smooth="yes"/>
      <point x="42" y="-50"/>
      <point x="48" y="-46"/>
      <point x="51" y="-41" type="curve"/>
      <point x="31" y="-38"/>
      <point x="16" y="-21"/>
      <point x="16" y="0" type="curve" smooth="yes"/>
      <point x="16" y="88" type="line" smooth="yes"/>
      <point x="16" y="111"/>
      <point x="35" y="129"/>
      <point x="58" y="129" type="curve" smooth="yes"/>
      <point x="146" y="129" type="line" smooth="yes"/>
      <point x="169" y="129"/>
      <point x="187" y="111"/>
      <point x="187" y="88" type="curve" smooth="yes"/>
      <point x="187" y="0" type="line"/>
      <point x="187" y="-1" type="line" smooth="yes"/>
      <point x="187" y="-41"/>
      <point x="179" y="-74"/>
      <point x="165" y="-99" type="curve" smooth="yes"/>
      <point x="149" y="-126"/>
      <point x="125" y="-147"/>
      <point x="91" y="-162" type="curve" smooth="yes"/>
      <point x="86" y="-164"/>
      <point x="80" y="-166"/>
      <point x="74" y="-166" type="curve" smooth="yes"/>
      <point x="60" y="-166"/>
      <point x="47" y="-159"/>
      <point x="39" y="-147" type="curve" smooth="yes"/>
      <point x="18" y="-114" type="line" smooth="yes"/>
      <point x="14" y="-107"/>
      <point x="11" y="-99"/>
    </contour>
    <contour>
      <point x="66" y="-89" type="curve" smooth="yes"/>
      <point x="65" y="-91"/>
      <point x="66" y="-94"/>
      <point x="67" y="-96" type="curve" smooth="yes"/>
      <point x="88" y="-128" type="line" smooth="yes"/>
      <point x="90" y="-131"/>
      <point x="94" y="-134"/>
      <point x="98" y="-132" type="curve" smooth="yes"/>
      <point x="125" y="-120"/>
      <point x="144" y="-103"/>
      <point x="156" y="-82" type="curve" smooth="yes"/>
      <point x="168" y="-61"/>
      <point x="175" y="-34"/>
      <point x="175" y="0" type="curve" smooth="yes"/>
      <point x="175" y="88" type="line" smooth="yes"/>
      <point x="175" y="93"/>
      <point x="171" y="96"/>
      <point x="166" y="96" type="curve" smooth="yes"/>
      <point x="79" y="96" type="line" smooth="yes"/>
      <point x="74" y="96"/>
      <point x="70" y="93"/>
      <point x="70" y="88" type="curve" smooth="yes"/>
      <point x="70" y="0" type="line" smooth="yes"/>
      <point x="70" y="-5"/>
      <point x="74" y="-8"/>
      <point x="79" y="-8" type="curve" smooth="yes"/>
      <point x="114" y="-8" type="line"/>
      <point x="113" y="-28"/>
      <point x="108" y="-45"/>
      <point x="102" y="-56" type="curve" smooth="yes"/>
      <point x="95" y="-68"/>
      <point x="84" y="-77"/>
      <point x="70" y="-83" type="curve" smooth="yes"/>
      <point x="68" y="-84"/>
      <point x="67" y="-87"/>
    </contour>
    <contour>
      <point x="86" y="-94" type="line"/>
      <point x="100" y="-86"/>
      <point x="110" y="-77"/>
      <point x="117" y="-64" type="curve" smooth="yes"/>
      <point x="125" y="-49"/>
      <point x="130" y="-28"/>
      <point x="131" y="0" type="curve" smooth="yes"/>
      <point x="131" y="2"/>
      <point x="130" y="4"/>
      <point x="128" y="6" type="curve" smooth="yes"/>
      <point x="126" y="8"/>
      <point x="124" y="8"/>
      <point x="122" y="8" type="curve" smooth="yes"/>
      <point x="87" y="8" type="line"/>
      <point x="87" y="79" type="line"/>
      <point x="158" y="79" type="line"/>
      <point x="158" y="0" type="line" smooth="yes"/>
      <point x="158" y="-30"/>
      <point x="153" y="-55"/>
      <point x="142" y="-74" type="curve" smooth="yes"/>
      <point x="132" y="-91"/>
      <point x="118" y="-103"/>
      <point x="98" y="-113" type="curve"/>
    </contour>
  </outline>
</glyph>
<glyph name="hyphen" format="2">
  <advance width="580"/>
  <unicode hex="002D"/>
  <outline>
    <contour>
      <point x="100" y="188" type="curve" smooth="yes"/>
      <point x="100" y="265" type="line" smooth="yes"/>
      <point x="100" y="288"/>
      <point x="119" y="307"/>
      <point x="142" y="307" type="curve" smooth="yes"/>
      <point x="378" y="307" type="line" smooth="yes"/>
      <point x="401" y="307"/>
      <point x="420" y="289"/>
      <point x="420" y="266" type="curve" smooth="yes"/>
      <point x="420" y="265" type="line"/>
      <point x="420" y="188" type="line" smooth="yes"/>
      <point x="420" y="165"/>
      <point x="401" y="146"/>
      <point x="378" y="146" type="curve" smooth="yes"/>
      <point x="142" y="146" type="line" smooth="yes"/>
      <point x="119" y="146"/>
      <point x="100" y="165"/>
    </contour>
    <contour>
      <point x="154" y="188" type="line" smooth="yes"/>
      <point x="154" y="183"/>
      <point x="158" y="180"/>
      <point x="163" y="180" type="curve" smooth="yes"/>
      <point x="399" y="180" type="line" smooth="yes"/>
      <point x="404" y="180"/>
      <point x="407" y="183"/>
      <point x="407" y="188" type="curve" smooth="yes"/>
      <point x="407" y="265" type="line" smooth="yes"/>
      <point x="407" y="270"/>
      <point x="404" y="274"/>
      <point x="399" y="274" type="curve" smooth="yes"/>
      <point x="163" y="274" type="line" smooth="yes"/>
      <point x="158" y="274"/>
      <point x="154" y="270"/>
      <point x="154" y="265" type="curve" smooth="yes"/>
    </contour>
    <contour>
      <point x="171" y="196" type="line"/>
      <point x="171" y="257" type="line"/>
      <point x="391" y="257" type="line"/>
      <point x="391" y="196" type="line"/>
    </contour>
  </outline>
</glyph>
<glyph name="period" format="2">
  <advance width="260"/>
  <unicode hex="002E"/>
  <outline>
    <contour>
      <point x="13" y="0" type="curve" smooth="yes"/>
      <point x="13" y="88" type="line" smooth="yes"/>
      <point x="13" y="111"/>
      <point x="31" y="129"/>
      <point x="54" y="129" type="curve" smooth="yes"/>
      <point x="142" y="129" type="line" smooth="yes"/>
      <point x="165" y="129"/>
      <point x="184" y="111"/>
      <point x="184" y="88" type="curve" smooth="yes"/>
      <point x="184" y="0" type="line" smooth="yes"/>
      <point x="184" y="-23"/>
      <point x="165" y="-42"/>
      <point x="142" y="-42" type="curve" smooth="yes"/>
      <point x="54" y="-42" type="line" smooth="yes"/>
      <point x="31" y="-42"/>
      <point x="13" y="-23"/>
    </contour>
    <contour>
      <point x="71" y="0" type="line" smooth="yes"/>
      <point x="71" y="-5"/>
      <point x="74" y="-8"/>
      <point x="79" y="-8" type="curve" smooth="yes"/>
      <point x="167" y="-8" type="line" smooth="yes"/>
      <point x="172" y="-8"/>
      <point x="175" y="-5"/>
      <point x="175" y="0" type="curve" smooth="yes"/>
      <point x="175" y="88" type="line" smooth="yes"/>
      <point x="175" y="93"/>
      <point x="172" y="96"/>
      <point x="167" y="96" type="curve" smooth="yes"/>
      <point x="79" y="96" type="line" smooth="yes"/>
      <point x="74" y="96"/>
      <point x="71" y="93"/>
      <point x="71" y="88" type="curve" smooth="yes"/>
    </contour>
    <contour>
      <point x="88" y="8" type="line"/>
      <point x="88" y="79" type="line"/>
      <point x="159" y="79" type="line"/>
      <point x="159" y="8" type="line"/>
    </contour>
  </outline>
</glyph>
<glyph name="slash" format="2">
  <advance width="400"/>
  <unicode hex="002F"/>
  <outline>
    <contour>
      <point x="10" y="-11" type="curve" smooth="yes"/>
      <point x="10" y="-7"/>
      <point x="11" y="-3"/>
      <point x="12" y="1" type="curve" smooth="yes"/>
      <point x="193" y="648" type="line" smooth="yes"/>
      <point x="198" y="666"/>
      <point x="215" y="679"/>
      <point x="234" y="679" type="curve" smooth="yes"/>
      <point x="295" y="679" type="line" smooth="yes"/>
      <point x="308" y="679"/>
      <point x="320" y="672"/>
      <point x="328" y="662" type="curve" smooth="yes"/>
      <point x="334" y="655"/>
      <point x="337" y="646"/>
      <point x="337" y="637" type="curve" smooth="yes"/>
      <point x="337" y="633"/>
      <point x="336" y="630"/>
      <point x="335" y="626" type="curve" smooth="yes"/>
      <point x="154" y="-22" type="line" smooth="yes"/>
      <point x="149" y="-40"/>
      <point x="133" y="-52"/>
      <point x="114" y="-52" type="curve" smooth="yes"/>
      <point x="52" y="-52" type="line" smooth="yes"/>
      <point x="39" y="-52"/>
      <point x="27" y="-46"/>
      <point x="19" y="-36" type="curve" smooth="yes"/>
      <point x="13" y="-29"/>
      <point x="10" y="-20"/>
    </contour>
    <contour>
      <point x="69" y="-8" type="line" smooth="yes"/>
      <point x="68" y="-11"/>
      <point x="68" y="-14"/>
      <point x="70" y="-16" type="curve" smooth="yes"/>
      <point x="72" y="-18"/>
      <point x="74" y="-19"/>
      <point x="77" y="-19" type="curve" smooth="yes"/>
      <point x="139" y="-19" type="line" smooth="yes"/>
      <point x="143" y="-19"/>
      <point x="146" y="-17"/>
      <point x="147" y="-13" type="curve" smooth="yes"/>
      <point x="328" y="635" type="line" smooth="yes"/>
      <point x="329" y="638"/>
      <point x="329" y="640"/>
      <point x="327" y="642" type="curve" smooth="yes"/>
      <point x="325" y="644"/>
      <point x="323" y="645"/>
      <point x="320" y="645" type="curve" smooth="yes"/>
      <point x="259" y="645" type="line" smooth="yes"/>
      <point x="255" y="645"/>
      <point x="252" y="643"/>
      <point x="251" y="639" type="curve" smooth="yes"/>
    </contour>
    <contour>
      <point x="88" y="-2" type="line"/>
      <point x="265" y="629" type="line"/>
      <point x="309" y="629" type="line"/>
      <point x="309" y="629"/>
      <point x="151" y="63"/>
      <point x="133" y="-2" type="curve"/>
    </contour>
  </outline>
</glyph>
<glyph name="zero" format="2">
  <advance width="580"/>
  <unicode hex="0030"/>
  <outline>
    <contour>
      <point x="14" y="309" type="curve" smooth="yes"/>
      <point x="14" y="389"/>
      <point x="23" y="452"/>
      <point x="39" y="501" type="curve" smooth="yes"/>
      <point x="57" y="555"/>
      <point x="84" y="595"/>
      <point x="120" y="624" type="curve" smooth="yes"/>
      <point x="157" y="654"/>
      <point x="204" y="671"/>
      <point x="260" y="671" type="curve" smooth="yes"/>
      <point x="301" y="671"/>
      <point x="337" y="662"/>
      <point x="368" y="645" type="curve" smooth="yes"/>
      <point x="400" y="628"/>
      <point x="425" y="606"/>
      <point x="446" y="574" type="curve" smooth="yes"/>
      <point x="465" y="545"/>
      <point x="479" y="508"/>
      <point x="490" y="467" type="curve" smooth="yes"/>
      <point x="499" y="430"/>
      <point x="505" y="382"/>
      <point x="506" y="321" type="curve" smooth="yes"/>
      <point x="506" y="318" type="line"/>
      <point x="506" y="312" type="line"/>
      <point x="506" y="305" type="line"/>
      <point x="506" y="298" type="line" smooth="yes"/>
      <point x="505" y="224"/>
      <point x="496" y="164"/>
      <point x="481" y="118" type="curve" smooth="yes"/>
      <point x="463" y="64"/>
      <point x="436" y="23"/>
      <point x="400" y="-6" type="curve" smooth="yes"/>
      <point x="363" y="-36"/>
      <point x="317" y="-52"/>
      <point x="260" y="-52" type="curve" smooth="yes"/>
      <point x="186" y="-52"/>
      <point x="127" y="-25"/>
      <point x="85" y="28" type="curve" smooth="yes"/>
      <point x="39" y="86"/>
      <point x="14" y="179"/>
    </contour>
    <contour>
      <point x="68" y="309" type="curve" smooth="yes"/>
      <point x="68" y="189"/>
      <point x="90" y="102"/>
      <point x="132" y="49" type="curve" smooth="yes"/>
      <point x="168" y="4"/>
      <point x="218" y="-19"/>
      <point x="281" y="-19" type="curve" smooth="yes"/>
      <point x="329" y="-19"/>
      <point x="369" y="-6"/>
      <point x="400" y="20" type="curve" smooth="yes"/>
      <point x="431" y="46"/>
      <point x="454" y="81"/>
      <point x="470" y="128" type="curve" smooth="yes"/>
      <point x="485" y="174"/>
      <point x="493" y="234"/>
      <point x="493" y="309" type="curve" smooth="yes"/>
      <point x="493" y="372"/>
      <point x="489" y="422"/>
      <point x="479" y="459" type="curve" smooth="yes"/>
      <point x="469" y="497"/>
      <point x="456" y="529"/>
      <point x="439" y="555" type="curve" smooth="yes"/>
      <point x="422" y="582"/>
      <point x="400" y="602"/>
      <point x="373" y="616" type="curve" smooth="yes"/>
      <point x="347" y="630"/>
      <point x="316" y="637"/>
      <point x="281" y="637" type="curve" smooth="yes"/>
      <point x="233" y="637"/>
      <point x="195" y="625"/>
      <point x="164" y="599" type="curve" smooth="yes"/>
      <point x="133" y="574"/>
      <point x="107" y="537"/>
      <point x="91" y="490" type="curve" smooth="yes"/>
      <point x="76" y="444"/>
      <point x="68" y="384"/>
    </contour>
    <contour>
      <point x="85" y="309" type="curve" smooth="yes"/>
      <point x="85" y="382"/>
      <point x="92" y="441"/>
      <point x="107" y="485" type="curve" smooth="yes"/>
      <point x="122" y="528"/>
      <point x="143" y="562"/>
      <point x="172" y="586" type="curve" smooth="yes"/>
      <point x="201" y="609"/>
      <point x="238" y="621"/>
      <point x="281" y="621" type="curve" smooth="yes"/>
      <point x="313" y="621"/>
      <point x="341" y="614"/>
      <point x="365" y="601" type="curve" smooth="yes"/>
      <point x="389" y="588"/>
      <point x="409" y="570"/>
      <point x="425" y="546" type="curve" smooth="yes"/>
      <point x="441" y="521"/>
      <point x="454" y="491"/>
      <point x="463" y="455" type="curve" smooth="yes"/>
      <point x="472" y="419"/>
      <point x="476" y="370"/>
      <point x="476" y="309" type="curve" smooth="yes"/>
      <point x="476" y="237"/>
      <point x="471" y="178"/>
      <point x="456" y="134" type="curve" smooth="yes"/>
      <point x="441" y="91"/>
      <point x="418" y="57"/>
      <point x="389" y="33" type="curve" smooth="yes"/>
      <point x="360" y="10"/>
      <point x="325" y="-2"/>
      <point x="281" y="-2" type="curve" smooth="yes"/>
      <point x="223" y="-2"/>
      <point x="178" y="20"/>
      <point x="145" y="61" type="curve" smooth="yes"/>
      <point x="105" y="112"/>
      <point x="85" y="194"/>
    </contour>
    <contour>
      <point x="147" y="309" type="curve" smooth="yes"/>
      <point x="147" y="204"/>
      <point x="160" y="134"/>
      <point x="185" y="99" type="curve" smooth="yes"/>
      <point x="211" y="62"/>
      <point x="243" y="44"/>
      <point x="281" y="44" type="curve" smooth="yes"/>
      <point x="319" y="44"/>
      <point x="351" y="62"/>
      <point x="377" y="99" type="curve" smooth="yes"/>
      <point x="402" y="134"/>
      <point x="414" y="204"/>
      <point x="414" y="309" type="curve" smooth="yes"/>
      <point x="414" y="415"/>
      <point x="402" y="484"/>
      <point x="377" y="519" type="curve" smooth="yes"/>
      <point x="351" y="555"/>
      <point x="319" y="574"/>
      <point x="280" y="574" type="curve" smooth="yes"/>
      <point x="242" y="574"/>
      <point x="211" y="557"/>
      <point x="188" y="525" type="curve" smooth="yes"/>
      <point x="161" y="486"/>
      <point x="147" y="414"/>
    </contour>
    <contour>
      <point x="164" y="309" type="curve" smooth="yes"/>
      <point x="164" y="409"/>
      <point x="176" y="479"/>
      <point x="202" y="516" type="curve" smooth="yes"/>
      <point x="221" y="543"/>
      <point x="248" y="557"/>
      <point x="280" y="557" type="curve" smooth="yes"/>
      <point x="313" y="557"/>
      <point x="341" y="541"/>
      <point x="363" y="510" type="curve" smooth="yes"/>
      <point x="386" y="477"/>
      <point x="397" y="410"/>
      <point x="397" y="309" type="curve" smooth="yes"/>
      <point x="397" y="209"/>
      <point x="386" y="142"/>
      <point x="363" y="109" type="curve" smooth="yes"/>
      <point x="341" y="77"/>
      <point x="314" y="61"/>
      <point x="281" y="61" type="curve" smooth="yes"/>
      <point x="248" y="61"/>
      <point x="220" y="76"/>
      <point x="198" y="108" type="curve" smooth="yes"/>
      <point x="175" y="141"/>
      <point x="164" y="209"/>
    </contour>
    <contour>
      <point x="176" y="309" type="curve" smooth="yes"/>
      <point x="176" y="253"/>
      <point x="179" y="208"/>
      <point x="186" y="174" type="curve" smooth="yes"/>
      <point x="190" y="154"/>
      <point x="197" y="139"/>
      <point x="205" y="128" type="curve" smooth="yes"/>
      <point x="220" y="107"/>
      <point x="238" y="94"/>
      <point x="260" y="94" type="curve" smooth="yes"/>
      <point x="282" y="94"/>
      <point x="300" y="107"/>
      <point x="315" y="128" type="curve" smooth="yes"/>
      <point x="336" y="158"/>
      <point x="343" y="219"/>
      <point x="343" y="309" type="curve" smooth="yes"/>
      <point x="343" y="400"/>
      <point x="336" y="460"/>
      <point x="315" y="490" type="curve" smooth="yes"/>
      <point x="300" y="511"/>
      <point x="282" y="524"/>
      <point x="259" y="524" type="curve" smooth="yes"/>
      <point x="238" y="524"/>
      <point x="221" y="514"/>
      <point x="208" y="496" type="curve" smooth="yes"/>
      <point x="197" y="481"/>
      <point x="190" y="460"/>
      <point x="185" y="433" type="curve" smooth="yes"/>
      <point x="179" y="400"/>
      <point x="176" y="358"/>
    </contour>
  </outline>
</glyph>
<glyph name="one" format="2">
  <advance width="580"/>
  <unicode hex="0031"/>
  <outline>
    <contour>
      <point x="83" y="397" type="curve" smooth="yes"/>
      <point x="83" y="472" type="line" smooth="yes"/>
      <point x="83" y="488"/>
      <point x="92" y="502"/>
      <point x="107" y="509" type="curve" smooth="yes"/>
      <point x="146" y="527"/>
      <point x="180" y="550"/>
      <point x="209" y="576" type="curve" smooth="yes"/>
      <point x="236" y="601"/>
      <point x="259" y="624"/>
      <point x="270" y="647" type="curve" smooth="yes"/>
      <point x="277" y="661"/>
      <point x="291" y="671"/>
      <point x="307" y="671" type="curve" smooth="yes"/>
      <point x="355" y="671" type="line" smooth="yes"/>
      <point x="378" y="671"/>
      <point x="397" y="652"/>
      <point x="397" y="629" type="curve" smooth="yes"/>
      <point x="397" y="0" type="line" smooth="yes"/>
      <point x="397" y="-23"/>
      <point x="378" y="-42"/>
      <point x="355" y="-42" type="curve" smooth="yes"/>
      <point x="278" y="-42" type="line" smooth="yes"/>
      <point x="255" y="-42"/>
      <point x="237" y="-23"/>
      <point x="237" y="0" type="curve" smooth="yes"/>
      <point x="237" y="407" type="line"/>
      <point x="234" y="405"/>
      <point x="230" y="403"/>
      <point x="227" y="401" type="curve" smooth="yes"/>
      <point x="194" y="382"/>
      <point x="165" y="366"/>
      <point x="139" y="356" type="curve" smooth="yes"/>
      <point x="134" y="354"/>
      <point x="129" y="356"/>
      <point x="124" y="356" type="curve" smooth="yes"/>
      <point x="116" y="356"/>
      <point x="108" y="358"/>
      <point x="101" y="363" type="curve" smooth="yes"/>
      <point x="90" y="371"/>
      <point x="83" y="383"/>
    </contour>
    <contour>
      <point x="137" y="397" type="line" smooth="yes"/>
      <point x="137" y="394"/>
      <point x="139" y="392"/>
      <point x="141" y="390" type="curve" smooth="yes"/>
      <point x="143" y="388"/>
      <point x="145" y="389"/>
      <point x="148" y="390" type="curve" smooth="yes"/>
      <point x="172" y="399"/>
      <point x="199" y="412"/>
      <point x="230" y="430" type="curve" smooth="yes"/>
      <point x="254" y="444"/>
      <point x="274" y="457"/>
      <point x="291" y="471" type="curve"/>
      <point x="291" y="0" type="line" smooth="yes"/>
      <point x="291" y="-5"/>
      <point x="294" y="-8"/>
      <point x="299" y="-8" type="curve" smooth="yes"/>
      <point x="376" y="-8" type="line" smooth="yes"/>
      <point x="381" y="-8"/>
      <point x="384" y="-5"/>
      <point x="384" y="0" type="curve" smooth="yes"/>
      <point x="384" y="629" type="line" smooth="yes"/>
      <point x="384" y="634"/>
      <point x="381" y="637"/>
      <point x="376" y="637" type="curve" smooth="yes"/>
      <point x="326" y="637" type="line" smooth="yes"/>
      <point x="323" y="637"/>
      <point x="320" y="636"/>
      <point x="319" y="633" type="curve" smooth="yes"/>
      <point x="306" y="607"/>
      <point x="284" y="579"/>
      <point x="253" y="551" type="curve" smooth="yes"/>
      <point x="221" y="523"/>
      <point x="184" y="499"/>
      <point x="142" y="479" type="curve" smooth="yes"/>
      <point x="139" y="478"/>
      <point x="137" y="475"/>
      <point x="137" y="472" type="curve" smooth="yes"/>
    </contour>
    <contour>
      <point x="154" y="410" type="curve"/>
      <point x="154" y="466" type="line"/>
      <point x="196" y="486"/>
      <point x="232" y="511"/>
      <point x="264" y="539" type="curve" smooth="yes"/>
      <point x="295" y="567"/>
      <point x="318" y="595"/>
      <point x="332" y="621" type="curve"/>
      <point x="368" y="621" type="line"/>
      <point x="368" y="8" type="line"/>
      <point x="307" y="8" type="line"/>
      <point x="307" y="490" type="line" smooth="yes"/>
      <point x="307" y="493"/>
      <point x="305" y="497"/>
      <point x="302" y="498" type="curve" smooth="yes"/>
      <point x="299" y="499"/>
      <point x="295" y="498"/>
      <point x="293" y="496" type="curve" smooth="yes"/>
      <point x="275" y="479"/>
      <point x="251" y="461"/>
      <point x="222" y="444" type="curve" smooth="yes"/>
      <point x="197" y="429"/>
      <point x="175" y="418"/>
    </contour>
  </outline>
</glyph>
<glyph name="two" format="2">
  <advance width="580"/>
  <unicode hex="0032"/>
  <outline>
    <contour>
      <point x="9" y="-1" type="curve" smooth="yes"/>
      <point x="9" y="4" type="line" smooth="yes"/>
      <point x="9" y="26"/>
      <point x="13" y="48"/>
      <point x="21" y="68" type="curve" smooth="yes"/>
      <point x="33" y="100"/>
      <point x="53" y="133"/>
      <point x="80" y="164" type="curve" smooth="yes"/>
      <point x="104" y="193"/>
      <point x="138" y="226"/>
      <point x="184" y="264" type="curve" smooth="yes"/>
      <point x="248" y="317"/>
      <point x="292" y="358"/>
      <point x="315" y="389" type="curve" smooth="yes"/>
      <point x="333" y="413"/>
      <point x="343" y="436"/>
      <point x="343" y="457" type="curve" smooth="yes"/>
      <point x="343" y="476"/>
      <point x="336" y="491"/>
      <point x="323" y="504" type="curve" smooth="yes"/>
      <point x="309" y="518"/>
      <point x="290" y="524"/>
      <point x="267" y="524" type="curve" smooth="yes"/>
      <point x="242" y="524"/>
      <point x="222" y="517"/>
      <point x="207" y="502" type="curve" smooth="yes"/>
      <point x="192" y="487"/>
      <point x="186" y="466"/>
      <point x="186" y="439" type="curve" smooth="yes"/>
      <point x="186" y="427"/>
      <point x="182" y="417"/>
      <point x="173" y="409" type="curve" smooth="yes"/>
      <point x="165" y="402"/>
      <point x="154" y="398"/>
      <point x="144" y="398" type="curve" smooth="yes"/>
      <point x="140" y="398" type="line"/>
      <point x="61" y="406" type="line" smooth="yes"/>
      <point x="40" y="408"/>
      <point x="24" y="427"/>
      <point x="24" y="448" type="curve" smooth="yes"/>
      <point x="24" y="519"/>
      <point x="59" y="579"/>
      <point x="99" y="614" type="curve" smooth="yes"/>
      <point x="141" y="651"/>
      <point x="198" y="671"/>
      <point x="269" y="671" type="curve" smooth="yes"/>
      <point x="341" y="671"/>
      <point x="398" y="649"/>
      <point x="440" y="609" type="curve" smooth="yes"/>
      <point x="483" y="568"/>
      <point x="505" y="517"/>
      <point x="505" y="456" type="curve" smooth="yes"/>
      <point x="505" y="455" type="line" smooth="yes"/>
      <point x="505" y="424"/>
      <point x="500" y="395"/>
      <point x="487" y="365" type="curve" smooth="yes"/>
      <point x="475" y="337"/>
      <point x="456" y="308"/>
      <point x="429" y="277" type="curve" smooth="yes"/>
      <point x="404" y="249"/>
      <point x="363" y="211"/>
      <point x="306" y="163" type="curve"/>
      <point x="306" y="162" type="line"/>
      <point x="284" y="143"/>
      <point x="265" y="129"/>
      <point x="251" y="116" type="curve"/>
      <point x="465" y="116" type="line" smooth="yes"/>
      <point x="488" y="116"/>
      <point x="506" y="97"/>
      <point x="506" y="74" type="curve" smooth="yes"/>
      <point x="506" y="0" type="line" smooth="yes"/>
      <point x="506" y="-23"/>
      <point x="488" y="-42"/>
      <point x="465" y="-42" type="curve" smooth="yes"/>
      <point x="51" y="-42" type="line" smooth="yes"/>
      <point x="28" y="-42"/>
      <point x="10" y="-23"/>
    </contour>
    <contour>
      <point x="63" y="4" type="curve" smooth="yes"/>
      <point x="63" y="-3"/>
      <point x="64" y="-8"/>
      <point x="71" y="-8" type="curve" smooth="yes"/>
      <point x="485" y="-8" type="line" smooth="yes"/>
      <point x="490" y="-8"/>
      <point x="494" y="-5"/>
      <point x="494" y="0" type="curve" smooth="yes"/>
      <point x="494" y="74" type="line" smooth="yes"/>
      <point x="494" y="79"/>
      <point x="490" y="82"/>
      <point x="485" y="82" type="curve" smooth="yes"/>
      <point x="194" y="82" type="line"/>
      <point x="201" y="91"/>
      <point x="208" y="101"/>
      <point x="217" y="110" type="curve" smooth="yes"/>
      <point x="230" y="124"/>
      <point x="259" y="150"/>
      <point x="305" y="188" type="curve" smooth="yes"/>
      <point x="361" y="235"/>
      <point x="400" y="272"/>
      <point x="424" y="299" type="curve" smooth="yes"/>
      <point x="448" y="327"/>
      <point x="466" y="353"/>
      <point x="477" y="378" type="curve" smooth="yes"/>
      <point x="488" y="403"/>
      <point x="494" y="429"/>
      <point x="494" y="455" type="curve" smooth="yes"/>
      <point x="494" y="507"/>
      <point x="475" y="550"/>
      <point x="438" y="585" type="curve" smooth="yes"/>
      <point x="402" y="620"/>
      <point x="352" y="637"/>
      <point x="289" y="637" type="curve" smooth="yes"/>
      <point x="227" y="637"/>
      <point x="179" y="621"/>
      <point x="142" y="589" type="curve" smooth="yes"/>
      <point x="105" y="557"/>
      <point x="86" y="510"/>
      <point x="80" y="449" type="curve" smooth="yes"/>
      <point x="80" y="444"/>
      <point x="80" y="439"/>
      <point x="85" y="439" type="curve" smooth="yes"/>
      <point x="164" y="431" type="line" smooth="yes"/>
      <point x="166" y="431"/>
      <point x="171" y="431"/>
      <point x="173" y="433" type="curve" smooth="yes"/>
      <point x="175" y="435"/>
      <point x="173" y="438"/>
      <point x="173" y="440" type="curve" smooth="yes"/>
      <point x="173" y="477"/>
      <point x="184" y="505"/>
      <point x="205" y="526" type="curve" smooth="yes"/>
      <point x="226" y="547"/>
      <point x="253" y="557"/>
      <point x="288" y="557" type="curve" smooth="yes"/>
      <point x="321" y="557"/>
      <point x="347" y="548"/>
      <point x="367" y="528" type="curve" smooth="yes"/>
      <point x="387" y="509"/>
      <point x="397" y="485"/>
      <point x="397" y="457" type="curve" smooth="yes"/>
      <point x="397" y="429"/>
      <point x="386" y="400"/>
      <point x="363" y="369" type="curve" smooth="yes"/>
      <point x="339" y="337"/>
      <point x="293" y="293"/>
      <point x="226" y="238" type="curve" smooth="yes"/>
      <point x="182" y="202"/>
      <point x="148" y="170"/>
      <point x="125" y="142" type="curve" smooth="yes"/>
      <point x="101" y="114"/>
      <point x="84" y="85"/>
      <point x="73" y="56" type="curve" smooth="yes"/>
      <point x="67" y="39"/>
      <point x="63" y="22"/>
    </contour>
    <contour>
      <point x="80" y="8" type="line"/>
      <point x="80" y="23"/>
      <point x="83" y="35"/>
      <point x="88" y="49" type="curve" smooth="yes"/>
      <point x="98" y="76"/>
      <point x="114" y="104"/>
      <point x="137" y="131" type="curve" smooth="yes"/>
      <point x="160" y="158"/>
      <point x="194" y="190"/>
      <point x="237" y="225" type="curve" smooth="yes"/>
      <point x="306" y="281"/>
      <point x="352" y="326"/>
      <point x="376" y="359" type="curve" smooth="yes"/>
      <point x="401" y="393"/>
      <point x="414" y="426"/>
      <point x="414" y="457" type="curve" smooth="yes"/>
      <point x="414" y="490"/>
      <point x="402" y="517"/>
      <point x="379" y="540" type="curve" smooth="yes"/>
      <point x="356" y="562"/>
      <point x="325" y="574"/>
      <point x="288" y="574" type="curve" smooth="yes"/>
      <point x="248" y="574"/>
      <point x="217" y="564"/>
      <point x="193" y="540" type="curve" smooth="yes"/>
      <point x="171" y="518"/>
      <point x="159" y="486"/>
      <point x="157" y="449" type="curve"/>
      <point x="95" y="455" type="line"/>
      <point x="101" y="507"/>
      <point x="121" y="546"/>
      <point x="153" y="574" type="curve" smooth="yes"/>
      <point x="187" y="604"/>
      <point x="232" y="621"/>
      <point x="289" y="621" type="curve" smooth="yes"/>
      <point x="347" y="621"/>
      <point x="392" y="606"/>
      <point x="426" y="574" type="curve" smooth="yes"/>
      <point x="459" y="542"/>
      <point x="476" y="502"/>
      <point x="476" y="455" type="curve" smooth="yes"/>
      <point x="476" y="431"/>
      <point x="472" y="407"/>
      <point x="462" y="384" type="curve" smooth="yes"/>
      <point x="452" y="360"/>
      <point x="437" y="336"/>
      <point x="414" y="310" type="curve" smooth="yes"/>
      <point x="390" y="283"/>
      <point x="349" y="247"/>
      <point x="294" y="201" type="curve" smooth="yes"/>
      <point x="248" y="162"/>
      <point x="218" y="135"/>
      <point x="205" y="121" type="curve" smooth="yes"/>
      <point x="191" y="107"/>
      <point x="182" y="92"/>
      <point x="173" y="78" type="curve" smooth="yes"/>
      <point x="171" y="75"/>
      <point x="172" y="73"/>
      <point x="173" y="70" type="curve" smooth="yes"/>
      <point x="174" y="67"/>
      <point x="175" y="66"/>
      <point x="178" y="66" type="curve" smooth="yes"/>
      <point x="477" y="66" type="line"/>
      <point x="477" y="8" type="line"/>
    </contour>
  </outline>
</glyph>
<glyph name="four" format="2">
  <advance width="580"/>
  <unicode hex="0034"/>
  <outline>
    <contour>
      <point x="9" y="150" type="curve" smooth="yes"/>
      <point x="9" y="220" type="line" smooth="yes"/>
      <point x="9" y="229"/>
      <point x="11" y="237"/>
      <point x="16" y="244" type="curve" smooth="yes"/>
      <point x="302" y="651" type="line" smooth="yes"/>
      <point x="310" y="662"/>
      <point x="322" y="668"/>
      <point x="336" y="668" type="curve" smooth="yes"/>
      <point x="399" y="668" type="line" smooth="yes"/>
      <point x="422" y="668"/>
      <point x="441" y="649"/>
      <point x="441" y="626" type="curve" smooth="yes"/>
      <point x="441" y="262" type="line"/>
      <point x="484" y="262" type="line" smooth="yes"/>
      <point x="507" y="262"/>
      <point x="525" y="243"/>
      <point x="525" y="220" type="curve" smooth="yes"/>
      <point x="525" y="150" type="line" smooth="yes"/>
      <point x="525" y="127"/>
      <point x="507" y="108"/>
      <point x="484" y="108" type="curve" smooth="yes"/>
      <point x="441" y="108" type="line"/>
      <point x="441" y="0" type="line" smooth="yes"/>
      <point x="441" y="-23"/>
      <point x="422" y="-42"/>
      <point x="399" y="-42" type="curve" smooth="yes"/>
      <point x="322" y="-42" type="line" smooth="yes"/>
      <point x="299" y="-42"/>
      <point x="280" y="-23"/>
      <point x="280" y="0" type="curve" smooth="yes"/>
      <point x="280" y="108" type="line"/>
      <point x="50" y="108" type="line" smooth="yes"/>
      <point x="27" y="108"/>
      <point x="9" y="127"/>
    </contour>
    <contour>
      <point x="63" y="150" type="line" smooth="yes"/>
      <point x="63" y="145"/>
      <point x="66" y="142"/>
      <point x="71" y="142" type="curve" smooth="yes"/>
      <point x="335" y="142" type="line"/>
      <point x="335" y="0" type="line" smooth="yes"/>
      <point x="335" y="-5"/>
      <point x="338" y="-8"/>
      <point x="343" y="-8" type="curve" smooth="yes"/>
      <point x="420" y="-8" type="line" smooth="yes"/>
      <point x="425" y="-8"/>
      <point x="428" y="-5"/>
      <point x="428" y="0" type="curve" smooth="yes"/>
      <point x="428" y="142" type="line"/>
      <point x="504" y="142" type="line" smooth="yes"/>
      <point x="509" y="142"/>
      <point x="513" y="145"/>
      <point x="513" y="150" type="curve" smooth="yes"/>
      <point x="513" y="220" type="line" smooth="yes"/>
      <point x="513" y="225"/>
      <point x="509" y="229"/>
      <point x="504" y="229" type="curve" smooth="yes"/>
      <point x="428" y="229" type="line"/>
      <point x="428" y="626" type="line" smooth="yes"/>
      <point x="428" y="631"/>
      <point x="425" y="635"/>
      <point x="420" y="635" type="curve" smooth="yes"/>
      <point x="357" y="635" type="line" smooth="yes"/>
      <point x="354" y="635"/>
      <point x="353" y="633"/>
      <point x="351" y="631" type="curve" smooth="yes"/>
      <point x="64" y="225" type="line" smooth="yes"/>
      <point x="63" y="224"/>
      <point x="63" y="222"/>
      <point x="63" y="220" type="curve" smooth="yes"/>
    </contour>
    <contour>
      <point x="79" y="158" type="line"/>
      <point x="79" y="218" type="line"/>
      <point x="361" y="618" type="line"/>
      <point x="411" y="618" type="line"/>
      <point x="411" y="220" type="line" smooth="yes"/>
      <point x="411" y="215"/>
      <point x="415" y="212"/>
      <point x="420" y="212" type="curve" smooth="yes"/>
      <point x="496" y="212" type="line"/>
      <point x="496" y="158" type="line"/>
      <point x="420" y="158" type="line" smooth="yes"/>
      <point x="415" y="158"/>
      <point x="411" y="155"/>
      <point x="411" y="150" type="curve" smooth="yes"/>
      <point x="411" y="8" type="line"/>
      <point x="351" y="8" type="line"/>
      <point x="351" y="150" type="line" smooth="yes"/>
      <point x="351" y="155"/>
      <point x="348" y="158"/>
      <point x="343" y="158" type="curve" smooth="yes"/>
    </contour>
    <contour>
      <point x="139" y="217" type="curve" smooth="yes"/>
      <point x="140" y="214"/>
      <point x="144" y="212"/>
      <point x="147" y="212" type="curve" smooth="yes"/>
      <point x="343" y="212" type="line" smooth="yes"/>
      <point x="348" y="212"/>
      <point x="351" y="215"/>
      <point x="351" y="220" type="curve" smooth="yes"/>
      <point x="351" y="503" type="line" smooth="yes"/>
      <point x="351" y="507"/>
      <point x="348" y="510"/>
      <point x="345" y="511" type="curve" smooth="yes"/>
      <point x="342" y="512"/>
      <point x="338" y="511"/>
      <point x="336" y="508" type="curve" smooth="yes"/>
      <point x="140" y="225" type="line" smooth="yes"/>
      <point x="138" y="222"/>
      <point x="138" y="220"/>
    </contour>
    <contour>
      <point x="163" y="229" type="line"/>
      <point x="335" y="476" type="line"/>
      <point x="335" y="229" type="line"/>
    </contour>
    <contour>
      <point x="206" y="262" type="line"/>
      <point x="280" y="262" type="line"/>
      <point x="280" y="370" type="line"/>
    </contour>
  </outline>
</glyph>
<glyph name="five" format="2">
  <advance width="580"/>
  <unicode hex="0035"/>
  <outline>
    <contour>
      <point x="11" y="164" type="curve" smooth="yes"/>
      <point x="11" y="174"/>
      <point x="14" y="183"/>
      <point x="20" y="191" type="curve" smooth="yes"/>
      <point x="27" y="200"/>
      <point x="38" y="205"/>
      <point x="49" y="206" type="curve" smooth="yes"/>
      <point x="130" y="212" type="line" smooth="yes"/>
      <point x="131" y="212"/>
      <point x="132" y="213"/>
      <point x="133" y="213" type="curve" smooth="yes"/>
      <point x="153" y="213"/>
      <point x="171" y="198"/>
      <point x="174" y="177" type="curve" smooth="yes"/>
      <point x="178" y="149"/>
      <point x="187" y="127"/>
      <point x="203" y="113" type="curve" smooth="yes"/>
      <point x="217" y="100"/>
      <point x="234" y="94"/>
      <point x="254" y="94" type="curve" smooth="yes"/>
      <point x="279" y="94"/>
      <point x="300" y="104"/>
      <point x="317" y="123" type="curve" smooth="yes"/>
      <point x="336" y="144"/>
      <point x="344" y="172"/>
      <point x="344" y="206" type="curve" smooth="yes"/>
      <point x="344" y="237"/>
      <point x="337" y="262"/>
      <point x="319" y="280" type="curve" smooth="yes"/>
      <point x="302" y="297"/>
      <point x="279" y="306"/>
      <point x="252" y="306" type="curve" smooth="yes"/>
      <point x="235" y="306"/>
      <point x="220" y="302"/>
      <point x="206" y="294" type="curve" smooth="yes"/>
      <point x="192" y="286"/>
      <point x="182" y="276"/>
      <point x="174" y="264" type="curve" smooth="yes"/>
      <point x="166" y="252"/>
      <point x="152" y="245"/>
      <point x="138" y="245" type="curve" smooth="yes"/>
      <point x="133" y="245" type="line"/>
      <point x="61" y="255" type="line" smooth="yes"/>
      <point x="50" y="256"/>
      <point x="39" y="263"/>
      <point x="32" y="272" type="curve" smooth="yes"/>
      <point x="27" y="279"/>
      <point x="24" y="287"/>
      <point x="24" y="296" type="curve" smooth="yes"/>
      <point x="24" y="299"/>
      <point x="25" y="303"/>
      <point x="25" y="306" type="curve" smooth="yes"/>
      <point x="86" y="626" type="line" smooth="yes"/>
      <point x="90" y="646"/>
      <point x="107" y="659"/>
      <point x="127" y="659" type="curve" smooth="yes"/>
      <point x="438" y="659" type="line" smooth="yes"/>
      <point x="461" y="659"/>
      <point x="480" y="641"/>
      <point x="480" y="618" type="curve" smooth="yes"/>
      <point x="480" y="544" type="line" smooth="yes"/>
      <point x="480" y="521"/>
      <point x="461" y="503"/>
      <point x="438" y="503" type="curve" smooth="yes"/>
      <point x="222" y="503" type="line"/>
      <point x="212" y="449" type="line"/>
      <point x="232" y="454"/>
      <point x="252" y="457"/>
      <point x="273" y="457" type="curve" smooth="yes"/>
      <point x="339" y="457"/>
      <point x="395" y="436"/>
      <point x="441" y="390" type="curve" smooth="yes"/>
      <point x="486" y="345"/>
      <point x="509" y="285"/>
      <point x="509" y="214" type="curve" smooth="yes"/>
      <point x="509" y="211" type="line" smooth="yes"/>
      <point x="509" y="145"/>
      <point x="490" y="87"/>
      <point x="451" y="39" type="curve" smooth="yes"/>
      <point x="403" y="-22"/>
      <point x="337" y="-52"/>
      <point x="254" y="-52" type="curve" smooth="yes"/>
      <point x="186" y="-52"/>
      <point x="130" y="-32"/>
      <point x="87" y="6" type="curve" smooth="yes"/>
      <point x="45" y="43"/>
      <point x="11" y="99"/>
    </contour>
    <contour>
      <point x="65" y="163" type="curve" smooth="yes"/>
      <point x="70" y="108"/>
      <point x="92" y="64"/>
      <point x="130" y="31" type="curve" smooth="yes"/>
      <point x="167" y="-2"/>
      <point x="216" y="-19"/>
      <point x="275" y="-19" type="curve" smooth="yes"/>
      <point x="347" y="-19"/>
      <point x="404" y="8"/>
      <point x="446" y="61" type="curve" smooth="yes"/>
      <point x="480" y="104"/>
      <point x="497" y="153"/>
      <point x="497" y="212" type="curve" smooth="yes"/>
      <point x="497" y="274"/>
      <point x="477" y="325"/>
      <point x="438" y="364" type="curve" smooth="yes"/>
      <point x="399" y="404"/>
      <point x="351" y="424"/>
      <point x="294" y="424" type="curve" smooth="yes"/>
      <point x="257" y="424"/>
      <point x="221" y="414"/>
      <point x="187" y="394" type="curve"/>
      <point x="216" y="536" type="line"/>
      <point x="459" y="536" type="line" smooth="yes"/>
      <point x="464" y="536"/>
      <point x="467" y="539"/>
      <point x="467" y="544" type="curve" smooth="yes"/>
      <point x="467" y="618" type="line" smooth="yes"/>
      <point x="467" y="623"/>
      <point x="464" y="626"/>
      <point x="459" y="626" type="curve" smooth="yes"/>
      <point x="148" y="626" type="line" smooth="yes"/>
      <point x="144" y="626"/>
      <point x="140" y="623"/>
      <point x="139" y="619" type="curve" smooth="yes"/>
      <point x="79" y="298" type="line" smooth="yes"/>
      <point x="79" y="296"/>
      <point x="79" y="293"/>
      <point x="80" y="291" type="curve" smooth="yes"/>
      <point x="81" y="289"/>
      <point x="84" y="288"/>
      <point x="86" y="288" type="curve" smooth="yes"/>
      <point x="158" y="278" type="line" smooth="yes"/>
      <point x="161" y="278"/>
      <point x="164" y="279"/>
      <point x="166" y="282" type="curve" smooth="yes"/>
      <point x="177" y="299"/>
      <point x="191" y="311"/>
      <point x="210" y="322" type="curve" smooth="yes"/>
      <point x="229" y="333"/>
      <point x="250" y="339"/>
      <point x="273" y="339" type="curve" smooth="yes"/>
      <point x="310" y="339"/>
      <point x="341" y="330"/>
      <point x="364" y="306" type="curve" smooth="yes"/>
      <point x="387" y="282"/>
      <point x="399" y="247"/>
      <point x="399" y="206" type="curve" smooth="yes"/>
      <point x="399" y="162"/>
      <point x="386" y="126"/>
      <point x="362" y="100" type="curve" smooth="yes"/>
      <point x="338" y="74"/>
      <point x="310" y="61"/>
      <point x="275" y="61" type="curve" smooth="yes"/>
      <point x="246" y="61"/>
      <point x="221" y="70"/>
      <point x="201" y="88" type="curve" smooth="yes"/>
      <point x="180" y="107"/>
      <point x="168" y="135"/>
      <point x="162" y="172" type="curve" smooth="yes"/>
      <point x="161" y="176"/>
      <point x="157" y="179"/>
      <point x="153" y="179" type="curve" smooth="yes"/>
      <point x="73" y="172" type="line" smooth="yes"/>
      <point x="71" y="172"/>
      <point x="68" y="171"/>
      <point x="67" y="169" type="curve" smooth="yes"/>
      <point x="66" y="167"/>
      <point x="65" y="165"/>
    </contour>
    <contour>
      <point x="83" y="156" type="curve"/>
      <point x="147" y="162" type="line"/>
      <point x="154" y="124"/>
      <point x="168" y="98"/>
      <point x="190" y="78" type="curve" smooth="yes"/>
      <point x="213" y="57"/>
      <point x="242" y="44"/>
      <point x="275" y="44" type="curve" smooth="yes"/>
      <point x="314" y="44"/>
      <point x="348" y="59"/>
      <point x="375" y="89" type="curve" smooth="yes"/>
      <point x="402" y="118"/>
      <point x="415" y="157"/>
      <point x="415" y="206" type="curve" smooth="yes"/>
      <point x="415" y="252"/>
      <point x="404" y="288"/>
      <point x="378" y="315" type="curve" smooth="yes"/>
      <point x="352" y="342"/>
      <point x="315" y="356"/>
      <point x="273" y="356" type="curve" smooth="yes"/>
      <point x="247" y="356"/>
      <point x="223" y="350"/>
      <point x="202" y="338" type="curve" smooth="yes"/>
      <point x="182" y="327"/>
      <point x="167" y="313"/>
      <point x="155" y="296" type="curve"/>
      <point x="97" y="303" type="line"/>
      <point x="155" y="609" type="line"/>
      <point x="451" y="609" type="line"/>
      <point x="451" y="553" type="line"/>
      <point x="209" y="553" type="line" smooth="yes"/>
      <point x="205" y="553"/>
      <point x="202" y="550"/>
      <point x="201" y="546" type="curve" smooth="yes"/>
      <point x="167" y="378" type="line" smooth="yes"/>
      <point x="166" y="375"/>
      <point x="168" y="371"/>
      <point x="171" y="369" type="curve" smooth="yes"/>
      <point x="174" y="367"/>
      <point x="177" y="367"/>
      <point x="180" y="369" type="curve" smooth="yes"/>
      <point x="216" y="394"/>
      <point x="254" y="407"/>
      <point x="294" y="407" type="curve" smooth="yes"/>
      <point x="346" y="407"/>
      <point x="390" y="389"/>
      <point x="426" y="353" type="curve" smooth="yes"/>
      <point x="462" y="317"/>
      <point x="480" y="269"/>
      <point x="480" y="212" type="curve" smooth="yes"/>
      <point x="480" y="157"/>
      <point x="465" y="111"/>
      <point x="433" y="71" type="curve" smooth="yes"/>
      <point x="394" y="22"/>
      <point x="342" y="-2"/>
      <point x="275" y="-2" type="curve" smooth="yes"/>
      <point x="220" y="-2"/>
      <point x="176" y="12"/>
      <point x="141" y="43" type="curve" smooth="yes"/>
      <point x="108" y="72"/>
      <point x="89" y="109"/>
    </contour>
  </outline>
</glyph>
<glyph name="six" format="2">
  <advance width="580"/>
  <unicode hex="0036"/>
  <outline>
    <contour>
      <point x="12" y="293" type="curve" smooth="yes"/>
      <point x="12" y="426"/>
      <point x="40" y="522"/>
      <point x="89" y="583" type="curve" smooth="yes"/>
      <point x="136" y="641"/>
      <point x="199" y="671"/>
      <point x="279" y="671" type="curve" smooth="yes"/>
      <point x="340" y="671"/>
      <point x="388" y="653"/>
      <point x="427" y="619" type="curve" smooth="yes"/>
      <point x="466" y="585"/>
      <point x="489" y="538"/>
      <point x="497" y="478" type="curve"/>
      <point x="497" y="473" type="line" smooth="yes"/>
      <point x="497" y="463"/>
      <point x="495" y="454"/>
      <point x="489" y="447" type="curve" smooth="yes"/>
      <point x="482" y="438"/>
      <point x="470" y="432"/>
      <point x="459" y="431" type="curve" smooth="yes"/>
      <point x="381" y="425" type="line"/>
      <point x="403" y="414"/>
      <point x="425" y="398"/>
      <point x="444" y="378" type="curve" smooth="yes"/>
      <point x="487" y="333"/>
      <point x="509" y="276"/>
      <point x="509" y="205" type="curve" smooth="yes"/>
      <point x="509" y="201" type="line" smooth="yes"/>
      <point x="509" y="156"/>
      <point x="499" y="114"/>
      <point x="479" y="75" type="curve" smooth="yes"/>
      <point x="458" y="34"/>
      <point x="430" y="3"/>
      <point x="394" y="-19" type="curve" smooth="yes"/>
      <point x="358" y="-41"/>
      <point x="318" y="-52"/>
      <point x="272" y="-52" type="curve" smooth="yes"/>
      <point x="195" y="-52"/>
      <point x="132" y="-24"/>
      <point x="83" y="33" type="curve" smooth="yes"/>
      <point x="38" y="86"/>
      <point x="12" y="172"/>
    </contour>
    <contour>
      <point x="67" y="293" type="curve" smooth="yes"/>
      <point x="67" y="182"/>
      <point x="88" y="103"/>
      <point x="129" y="55" type="curve" smooth="yes"/>
      <point x="171" y="6"/>
      <point x="225" y="-19"/>
      <point x="292" y="-19" type="curve" smooth="yes"/>
      <point x="331" y="-19"/>
      <point x="367" y="-10"/>
      <point x="398" y="9" type="curve" smooth="yes"/>
      <point x="429" y="28"/>
      <point x="452" y="55"/>
      <point x="470" y="90" type="curve" smooth="yes"/>
      <point x="488" y="125"/>
      <point x="497" y="162"/>
      <point x="497" y="203" type="curve" smooth="yes"/>
      <point x="497" y="265"/>
      <point x="477" y="316"/>
      <point x="440" y="355" type="curve" smooth="yes"/>
      <point x="402" y="394"/>
      <point x="357" y="415"/>
      <point x="303" y="415" type="curve" smooth="yes"/>
      <point x="272" y="415"/>
      <point x="244" y="407"/>
      <point x="216" y="393" type="curve" smooth="yes"/>
      <point x="195" y="382"/>
      <point x="176" y="366"/>
      <point x="160" y="347" type="curve"/>
      <point x="162" y="396"/>
      <point x="169" y="437"/>
      <point x="181" y="465" type="curve" smooth="yes"/>
      <point x="194" y="497"/>
      <point x="212" y="521"/>
      <point x="235" y="538" type="curve" smooth="yes"/>
      <point x="252" y="551"/>
      <point x="272" y="557"/>
      <point x="295" y="557" type="curve" smooth="yes"/>
      <point x="323" y="557"/>
      <point x="347" y="547"/>
      <point x="366" y="527" type="curve" smooth="yes"/>
      <point x="378" y="514"/>
      <point x="387" y="493"/>
      <point x="393" y="465" type="curve" smooth="yes"/>
      <point x="394" y="461"/>
      <point x="398" y="459"/>
      <point x="402" y="459" type="curve" smooth="yes"/>
      <point x="478" y="465" type="line" smooth="yes"/>
      <point x="480" y="465"/>
      <point x="485" y="466"/>
      <point x="486" y="468" type="curve" smooth="yes"/>
      <point x="487" y="470"/>
      <point x="486" y="472"/>
      <point x="486" y="474" type="curve" smooth="yes"/>
      <point x="479" y="525"/>
      <point x="459" y="565"/>
      <point x="426" y="594" type="curve" smooth="yes"/>
      <point x="393" y="623"/>
      <point x="352" y="637"/>
      <point x="300" y="637" type="curve" smooth="yes"/>
      <point x="231" y="637"/>
      <point x="175" y="612"/>
      <point x="134" y="562" type="curve" smooth="yes"/>
      <point x="88" y="506"/>
      <point x="67" y="417"/>
    </contour>
    <contour>
      <point x="83" y="293" type="curve" smooth="yes"/>
      <point x="83" y="412"/>
      <point x="104" y="498"/>
      <point x="148" y="552" type="curve" smooth="yes"/>
      <point x="185" y="598"/>
      <point x="237" y="621"/>
      <point x="300" y="621" type="curve" smooth="yes"/>
      <point x="347" y="621"/>
      <point x="385" y="607"/>
      <point x="415" y="581" type="curve" smooth="yes"/>
      <point x="443" y="556"/>
      <point x="461" y="523"/>
      <point x="468" y="481" type="curve"/>
      <point x="407" y="476" type="line"/>
      <point x="400" y="504"/>
      <point x="390" y="525"/>
      <point x="378" y="538" type="curve"/>
      <point x="378" y="541" type="line"/>
      <point x="356" y="565"/>
      <point x="328" y="574"/>
      <point x="295" y="574" type="curve" smooth="yes"/>
      <point x="269" y="574"/>
      <point x="245" y="567"/>
      <point x="225" y="552" type="curve" smooth="yes"/>
      <point x="200" y="534"/>
      <point x="180" y="506"/>
      <point x="165" y="471" type="curve" smooth="yes"/>
      <point x="151" y="436"/>
      <point x="144" y="387"/>
      <point x="143" y="323" type="curve" smooth="yes"/>
      <point x="143" y="319"/>
      <point x="145" y="314"/>
      <point x="149" y="313" type="curve" smooth="yes"/>
      <point x="153" y="312"/>
      <point x="156" y="315"/>
      <point x="158" y="318" type="curve" smooth="yes"/>
      <point x="176" y="345"/>
      <point x="197" y="365"/>
      <point x="223" y="378" type="curve" smooth="yes"/>
      <point x="249" y="391"/>
      <point x="275" y="398"/>
      <point x="303" y="398" type="curve" smooth="yes"/>
      <point x="352" y="398"/>
      <point x="394" y="380"/>
      <point x="428" y="344" type="curve" smooth="yes"/>
      <point x="463" y="308"/>
      <point x="480" y="260"/>
      <point x="480" y="203" type="curve" smooth="yes"/>
      <point x="480" y="165"/>
      <point x="472" y="131"/>
      <point x="456" y="98" type="curve" smooth="yes"/>
      <point x="440" y="66"/>
      <point x="417" y="40"/>
      <point x="389" y="23" type="curve" smooth="yes"/>
      <point x="361" y="6"/>
      <point x="328" y="-2"/>
      <point x="292" y="-2" type="curve" smooth="yes"/>
      <point x="231" y="-2"/>
      <point x="181" y="20"/>
      <point x="142" y="65" type="curve" smooth="yes"/>
      <point x="103" y="111"/>
      <point x="83" y="187"/>
    </contour>
    <contour>
      <point x="155" y="203" type="curve" smooth="yes"/>
      <point x="155" y="175"/>
      <point x="160" y="148"/>
      <point x="172" y="123" type="curve" smooth="yes"/>
      <point x="184" y="97"/>
      <point x="201" y="79"/>
      <point x="223" y="65" type="curve" smooth="yes"/>
      <point x="245" y="51"/>
      <point x="267" y="44"/>
      <point x="291" y="44" type="curve" smooth="yes"/>
      <point x="326" y="44"/>
      <point x="356" y="58"/>
      <point x="381" y="86" type="curve" smooth="yes"/>
      <point x="406" y="114"/>
      <point x="418" y="152"/>
      <point x="418" y="199" type="curve" smooth="yes"/>
      <point x="418" y="245"/>
      <point x="405" y="281"/>
      <point x="381" y="307" type="curve" smooth="yes"/>
      <point x="356" y="334"/>
      <point x="325" y="347"/>
      <point x="288" y="347" type="curve" smooth="yes"/>
      <point x="251" y="347"/>
      <point x="220" y="334"/>
      <point x="194" y="307" type="curve" smooth="yes"/>
      <point x="168" y="281"/>
      <point x="155" y="246"/>
    </contour>
    <contour>
      <point x="172" y="203" type="curve" smooth="yes"/>
      <point x="172" y="241"/>
      <point x="183" y="274"/>
      <point x="206" y="297" type="curve" smooth="yes"/>
      <point x="229" y="320"/>
      <point x="256" y="330"/>
      <point x="288" y="330" type="curve" smooth="yes"/>
      <point x="321" y="330"/>
      <point x="348" y="320"/>
      <point x="369" y="297" type="curve" smooth="yes"/>
      <point x="391" y="273"/>
      <point x="402" y="240"/>
      <point x="402" y="199" type="curve" smooth="yes"/>
      <point x="402" y="156"/>
      <point x="391" y="122"/>
      <point x="369" y="97" type="curve" smooth="yes"/>
      <point x="347" y="73"/>
      <point x="321" y="61"/>
      <point x="291" y="61" type="curve" smooth="yes"/>
      <point x="270" y="61"/>
      <point x="251" y="66"/>
      <point x="232" y="78" type="curve" smooth="yes"/>
      <point x="213" y="90"/>
      <point x="199" y="107"/>
      <point x="188" y="130" type="curve" smooth="yes"/>
      <point x="177" y="153"/>
      <point x="172" y="178"/>
    </contour>
    <contour>
      <point x="182" y="425" type="curve"/>
      <point x="214" y="441"/>
      <point x="248" y="448"/>
      <point x="283" y="448" type="curve" smooth="yes"/>
      <point x="307" y="448"/>
      <point x="329" y="445"/>
      <point x="350" y="438" type="curve"/>
      <point x="345" y="443"/>
      <point x="341" y="450"/>
      <point x="339" y="458" type="curve" smooth="yes"/>
      <point x="334" y="479"/>
      <point x="329" y="494"/>
      <point x="320" y="504" type="curve" smooth="yes"/>
      <point x="307" y="517"/>
      <point x="292" y="524"/>
      <point x="274" y="524" type="curve" smooth="yes"/>
      <point x="259" y="524"/>
      <point x="245" y="520"/>
      <point x="234" y="512" type="curve" smooth="yes"/>
      <point x="215" y="498"/>
      <point x="202" y="478"/>
      <point x="191" y="452" type="curve" smooth="yes"/>
      <point x="188" y="444"/>
      <point x="184" y="435"/>
    </contour>
    <contour>
      <point x="184" y="203" type="line" smooth="yes"/>
      <point x="184" y="183"/>
      <point x="188" y="163"/>
      <point x="197" y="144" type="curve" smooth="yes"/>
      <point x="205" y="128"/>
      <point x="215" y="116"/>
      <point x="229" y="107" type="curve" smooth="yes"/>
      <point x="242" y="99"/>
      <point x="255" y="94"/>
      <point x="270" y="94" type="curve" smooth="yes"/>
      <point x="291" y="94"/>
      <point x="308" y="103"/>
      <point x="323" y="120" type="curve" smooth="yes"/>
      <point x="340" y="139"/>
      <point x="347" y="166"/>
      <point x="347" y="199" type="curve" smooth="yes"/>
      <point x="347" y="230"/>
      <point x="341" y="255"/>
      <point x="324" y="273" type="curve" smooth="yes"/>
      <point x="309" y="289"/>
      <point x="290" y="297"/>
      <point x="267" y="297" type="curve" smooth="yes"/>
      <point x="244" y="297"/>
      <point x="225" y="288"/>
      <point x="209" y="272" type="curve" smooth="yes"/>
      <point x="192" y="255"/>
      <point x="184" y="232"/>
      <point x="184" y="204" type="curve" smooth="yes"/>
    </contour>
  </outline>
</glyph>
<glyph name="seven" format="2">
  <advance width="580"/>
  <unicode hex="0037"/>
  <outline>
    <contour>
      <point x="18" y="544" type="curve" smooth="yes"/>
      <point x="18" y="618" type="line" smooth="yes"/>
      <point x="18" y="641"/>
      <point x="37" y="660"/>
      <point x="60" y="660" type="curve" smooth="yes"/>
      <point x="465" y="660" type="line" smooth="yes"/>
      <point x="488" y="660"/>
      <point x="507" y="641"/>
      <point x="507" y="618" type="curve" smooth="yes"/>
      <point x="507" y="558" type="line" smooth="yes"/>
      <point x="507" y="548"/>
      <point x="501" y="538"/>
      <point x="494" y="530" type="curve" smooth="yes"/>
      <point x="456" y="490"/>
      <point x="420" y="436"/>
      <point x="383" y="369" type="curve" smooth="yes"/>
      <point x="345" y="301"/>
      <point x="316" y="232"/>
      <point x="296" y="161" type="curve"/>
      <point x="296" y="160" type="line"/>
      <point x="281" y="110"/>
      <point x="272" y="56"/>
      <point x="268" y="-3" type="curve" smooth="yes"/>
      <point x="267" y="-25"/>
      <point x="248" y="-42"/>
      <point x="226" y="-42" type="curve" smooth="yes"/>
      <point x="147" y="-42" type="line" smooth="yes"/>
      <point x="136" y="-42"/>
      <point x="125" y="-37"/>
      <point x="117" y="-29" type="curve" smooth="yes"/>
      <point x="109" y="-21"/>
      <point x="106" y="-11"/>
      <point x="106" y="0" type="curve" smooth="yes"/>
      <point x="106" y="52"/>
      <point x="116" y="115"/>
      <point x="136" y="189" type="curve" smooth="yes"/>
      <point x="155" y="262"/>
      <point x="183" y="332"/>
      <point x="219" y="400" type="curve" smooth="yes"/>
      <point x="239" y="437"/>
      <point x="260" y="472"/>
      <point x="281" y="503" type="curve"/>
      <point x="60" y="503" type="line" smooth="yes"/>
      <point x="37" y="503"/>
      <point x="18" y="521"/>
    </contour>
    <contour>
      <point x="72" y="544" type="line" smooth="yes"/>
      <point x="72" y="539"/>
      <point x="75" y="536"/>
      <point x="80" y="536" type="curve" smooth="yes"/>
      <point x="369" y="536" type="line"/>
      <point x="334" y="494"/>
      <point x="300" y="443"/>
      <point x="269" y="384" type="curve" smooth="yes"/>
      <point x="234" y="319"/>
      <point x="208" y="251"/>
      <point x="189" y="181" type="curve" smooth="yes"/>
      <point x="170" y="110"/>
      <point x="161" y="50"/>
      <point x="160" y="0" type="curve" smooth="yes"/>
      <point x="160" y="-2"/>
      <point x="160" y="-4"/>
      <point x="162" y="-6" type="curve" smooth="yes"/>
      <point x="164" y="-8"/>
      <point x="166" y="-8"/>
      <point x="168" y="-8" type="curve" smooth="yes"/>
      <point x="247" y="-8" type="line" smooth="yes"/>
      <point x="251" y="-8"/>
      <point x="255" y="-5"/>
      <point x="255" y="-1" type="curve" smooth="yes"/>
      <point x="259" y="61"/>
      <point x="270" y="118"/>
      <point x="285" y="170" type="curve" smooth="yes"/>
      <point x="306" y="244"/>
      <point x="336" y="315"/>
      <point x="375" y="385" type="curve" smooth="yes"/>
      <point x="414" y="455"/>
      <point x="455" y="511"/>
      <point x="494" y="553" type="curve" smooth="yes"/>
      <point x="495" y="555"/>
      <point x="494" y="556"/>
      <point x="494" y="558" type="curve" smooth="yes"/>
      <point x="494" y="618" type="line" smooth="yes"/>
      <point x="494" y="623"/>
      <point x="491" y="627"/>
      <point x="486" y="627" type="curve" smooth="yes"/>
      <point x="80" y="627" type="line" smooth="yes"/>
      <point x="75" y="627"/>
      <point x="72" y="623"/>
      <point x="72" y="618" type="curve" smooth="yes"/>
    </contour>
    <contour>
      <point x="89" y="553" type="line"/>
      <point x="89" y="610" type="line"/>
      <point x="478" y="610" type="line"/>
      <point x="478" y="562" type="line"/>
      <point x="438" y="519"/>
      <point x="399" y="463"/>
      <point x="360" y="393" type="curve" smooth="yes"/>
      <point x="321" y="322"/>
      <point x="291" y="249"/>
      <point x="269" y="174" type="curve" smooth="yes"/>
      <point x="254" y="123"/>
      <point x="244" y="68"/>
      <point x="239" y="8" type="curve"/>
      <point x="177" y="8" type="line"/>
      <point x="179" y="55"/>
      <point x="188" y="111"/>
      <point x="205" y="176" type="curve" smooth="yes"/>
      <point x="223" y="245"/>
      <point x="250" y="313"/>
      <point x="284" y="377" type="curve" smooth="yes"/>
      <point x="318" y="441"/>
      <point x="354" y="495"/>
      <point x="393" y="539" type="curve" smooth="yes"/>
      <point x="395" y="541"/>
      <point x="396" y="545"/>
      <point x="395" y="548" type="curve" smooth="yes"/>
      <point x="394" y="551"/>
      <point x="390" y="553"/>
      <point x="387" y="553" type="curve" smooth="yes"/>
    </contour>
  </outline>
</glyph>
<glyph name="eight" format="2">
  <advance width="580"/>
  <unicode hex="0038"/>
  <outline>
    <contour>
      <point x="12" y="181" type="curve" smooth="yes"/>
      <point x="12" y="232"/>
      <point x="25" y="275"/>
      <point x="51" y="309" type="curve" smooth="yes"/>
      <point x="61" y="322"/>
      <point x="73" y="334"/>
      <point x="86" y="344" type="curve"/>
      <point x="79" y="351"/>
      <point x="73" y="358"/>
      <point x="68" y="366" type="curve" smooth="yes"/>
      <point x="48" y="394"/>
      <point x="37" y="427"/>
      <point x="37" y="467" type="curve" smooth="yes"/>
      <point x="37" y="525"/>
      <point x="58" y="574"/>
      <point x="99" y="613" type="curve" smooth="yes"/>
      <point x="139" y="651"/>
      <point x="193" y="671"/>
      <point x="259" y="671" type="curve" smooth="yes"/>
      <point x="326" y="671"/>
      <point x="376" y="650"/>
      <point x="417" y="611" type="curve" smooth="yes"/>
      <point x="459" y="571"/>
      <point x="482" y="524"/>
      <point x="482" y="467" type="curve" smooth="yes"/>
      <point x="482" y="464" type="line" smooth="yes"/>
      <point x="482" y="426"/>
      <point x="472" y="393"/>
      <point x="452" y="365" type="curve" smooth="yes"/>
      <point x="446" y="357"/>
      <point x="439" y="351"/>
      <point x="432" y="344" type="curve"/>
      <point x="447" y="333"/>
      <point x="459" y="318"/>
      <point x="470" y="303" type="curve" smooth="yes"/>
      <point x="495" y="269"/>
      <point x="508" y="228"/>
      <point x="508" y="181" type="curve" smooth="yes"/>
      <point x="508" y="178" type="line" smooth="yes"/>
      <point x="508" y="113"/>
      <point x="484" y="58"/>
      <point x="438" y="14" type="curve" smooth="yes"/>
      <point x="393" y="-30"/>
      <point x="334" y="-52"/>
      <point x="260" y="-52" type="curve" smooth="yes"/>
      <point x="186" y="-52"/>
      <point x="128" y="-30"/>
      <point x="83" y="14" type="curve" smooth="yes"/>
      <point x="37" y="59"/>
      <point x="12" y="114"/>
    </contour>
    <contour>
      <point x="66" y="181" type="curve" smooth="yes"/>
      <point x="66" y="124"/>
      <point x="84" y="76"/>
      <point x="124" y="38" type="curve" smooth="yes"/>
      <point x="163" y="0"/>
      <point x="217" y="-19"/>
      <point x="281" y="-19" type="curve" smooth="yes"/>
      <point x="345" y="-19"/>
      <point x="397" y="0"/>
      <point x="436" y="38" type="curve" smooth="yes"/>
      <point x="476" y="76"/>
      <point x="496" y="123"/>
      <point x="496" y="179" type="curve" smooth="yes"/>
      <point x="496" y="220"/>
      <point x="485" y="255"/>
      <point x="464" y="284" type="curve" smooth="yes"/>
      <point x="447" y="308"/>
      <point x="422" y="327"/>
      <point x="391" y="340" type="curve"/>
      <point x="414" y="352"/>
      <point x="432" y="367"/>
      <point x="445" y="385" type="curve" smooth="yes"/>
      <point x="461" y="408"/>
      <point x="470" y="434"/>
      <point x="470" y="465" type="curve" smooth="yes"/>
      <point x="470" y="513"/>
      <point x="452" y="554"/>
      <point x="417" y="587" type="curve" smooth="yes"/>
      <point x="382" y="620"/>
      <point x="337" y="637"/>
      <point x="280" y="637" type="curve" smooth="yes"/>
      <point x="223" y="637"/>
      <point x="177" y="620"/>
      <point x="143" y="588" type="curve" smooth="yes"/>
      <point x="109" y="555"/>
      <point x="91" y="515"/>
      <point x="91" y="467" type="curve" smooth="yes"/>
      <point x="91" y="435"/>
      <point x="100" y="408"/>
      <point x="116" y="385" type="curve" smooth="yes"/>
      <point x="129" y="367"/>
      <point x="147" y="352"/>
      <point x="170" y="341" type="curve"/>
      <point x="140" y="330"/>
      <point x="117" y="311"/>
      <point x="99" y="288" type="curve" smooth="yes"/>
      <point x="77" y="259"/>
      <point x="66" y="224"/>
    </contour>
    <contour>
      <point x="83" y="181" type="curve" smooth="yes"/>
      <point x="83" y="220"/>
      <point x="92" y="252"/>
      <point x="112" y="278" type="curve" smooth="yes"/>
      <point x="132" y="304"/>
      <point x="160" y="323"/>
      <point x="196" y="332" type="curve" smooth="yes"/>
      <point x="200" y="333"/>
      <point x="202" y="335"/>
      <point x="202" y="339" type="curve" smooth="yes"/>
      <point x="202" y="343"/>
      <point x="200" y="346"/>
      <point x="197" y="347" type="curve" smooth="yes"/>
      <point x="167" y="358"/>
      <point x="145" y="374"/>
      <point x="130" y="394" type="curve" smooth="yes"/>
      <point x="116" y="414"/>
      <point x="108" y="439"/>
      <point x="108" y="467" type="curve" smooth="yes"/>
      <point x="108" y="510"/>
      <point x="124" y="545"/>
      <point x="155" y="574" type="curve" smooth="yes"/>
      <point x="186" y="604"/>
      <point x="228" y="621"/>
      <point x="280" y="621" type="curve" smooth="yes"/>
      <point x="332" y="621"/>
      <point x="374" y="604"/>
      <point x="406" y="574" type="curve" smooth="yes"/>
      <point x="438" y="544"/>
      <point x="453" y="508"/>
      <point x="453" y="465" type="curve" smooth="yes"/>
      <point x="453" y="438"/>
      <point x="446" y="414"/>
      <point x="432" y="394" type="curve" smooth="yes"/>
      <point x="418" y="374"/>
      <point x="395" y="358"/>
      <point x="366" y="347" type="curve" smooth="yes"/>
      <point x="363" y="346"/>
      <point x="361" y="343"/>
      <point x="361" y="339" type="curve" smooth="yes"/>
      <point x="361" y="335"/>
      <point x="364" y="333"/>
      <point x="367" y="332" type="curve" smooth="yes"/>
      <point x="404" y="320"/>
      <point x="431" y="301"/>
      <point x="450" y="274" type="curve" smooth="yes"/>
      <point x="469" y="247"/>
      <point x="479" y="216"/>
      <point x="479" y="179" type="curve" smooth="yes"/>
      <point x="479" y="128"/>
      <point x="461" y="85"/>
      <point x="425" y="50" type="curve" smooth="yes"/>
      <point x="389" y="15"/>
      <point x="340" y="-2"/>
      <point x="281" y="-2" type="curve" smooth="yes"/>
      <point x="222" y="-2"/>
      <point x="173" y="15"/>
      <point x="137" y="50" type="curve" smooth="yes"/>
      <point x="101" y="85"/>
      <point x="83" y="129"/>
    </contour>
    <contour>
      <point x="145" y="181" type="curve" smooth="yes"/>
      <point x="145" y="158"/>
      <point x="151" y="135"/>
      <point x="162" y="113" type="curve" smooth="yes"/>
      <point x="173" y="91"/>
      <point x="189" y="73"/>
      <point x="211" y="61" type="curve" smooth="yes"/>
      <point x="233" y="49"/>
      <point x="257" y="44"/>
      <point x="282" y="44" type="curve" smooth="yes"/>
      <point x="321" y="44"/>
      <point x="354" y="57"/>
      <point x="379" y="82" type="curve" smooth="yes"/>
      <point x="405" y="107"/>
      <point x="417" y="139"/>
      <point x="417" y="178" type="curve" smooth="yes"/>
      <point x="417" y="217"/>
      <point x="405" y="250"/>
      <point x="379" y="276" type="curve" smooth="yes"/>
      <point x="353" y="302"/>
      <point x="318" y="315"/>
      <point x="279" y="315" type="curve" smooth="yes"/>
      <point x="240" y="315"/>
      <point x="208" y="302"/>
      <point x="183" y="276" type="curve" smooth="yes"/>
      <point x="158" y="250"/>
      <point x="145" y="219"/>
    </contour>
    <contour>
      <point x="162" y="181" type="curve" smooth="yes"/>
      <point x="162" y="215"/>
      <point x="173" y="243"/>
      <point x="195" y="265" type="curve" smooth="yes"/>
      <point x="217" y="287"/>
      <point x="245" y="298"/>
      <point x="279" y="298" type="curve" smooth="yes"/>
      <point x="314" y="298"/>
      <point x="343" y="287"/>
      <point x="366" y="264" type="curve" smooth="yes"/>
      <point x="389" y="241"/>
      <point x="400" y="213"/>
      <point x="400" y="178" type="curve" smooth="yes"/>
      <point x="400" y="144"/>
      <point x="389" y="116"/>
      <point x="367" y="94" type="curve" smooth="yes"/>
      <point x="345" y="72"/>
      <point x="316" y="61"/>
      <point x="282" y="61" type="curve" smooth="yes"/>
      <point x="260" y="61"/>
      <point x="238" y="67"/>
      <point x="219" y="78" type="curve" smooth="yes"/>
      <point x="200" y="88"/>
      <point x="187" y="102"/>
      <point x="177" y="121" type="curve" smooth="yes"/>
      <point x="167" y="140"/>
      <point x="162" y="160"/>
    </contour>
    <contour>
      <point x="170" y="470" type="curve" smooth="yes"/>
      <point x="170" y="438"/>
      <point x="181" y="411"/>
      <point x="202" y="391" type="curve" smooth="yes"/>
      <point x="223" y="371"/>
      <point x="248" y="361"/>
      <point x="281" y="361" type="curve" smooth="yes"/>
      <point x="313" y="361"/>
      <point x="340" y="371"/>
      <point x="360" y="391" type="curve" smooth="yes"/>
      <point x="381" y="411"/>
      <point x="391" y="437"/>
      <point x="391" y="466" type="curve" smooth="yes"/>
      <point x="391" y="497"/>
      <point x="380" y="520"/>
      <point x="359" y="541" type="curve" smooth="yes"/>
      <point x="338" y="562"/>
      <point x="311" y="574"/>
      <point x="280" y="574" type="curve" smooth="yes"/>
      <point x="248" y="574"/>
      <point x="223" y="561"/>
      <point x="202" y="541" type="curve" smooth="yes"/>
      <point x="181" y="521"/>
      <point x="170" y="499"/>
    </contour>
    <contour>
      <point x="174" y="181" type="line" smooth="yes"/>
      <point x="174" y="166"/>
      <point x="180" y="150"/>
      <point x="187" y="136" type="curve" smooth="yes"/>
      <point x="194" y="123"/>
      <point x="202" y="113"/>
      <point x="215" y="106" type="curve" smooth="yes"/>
      <point x="229" y="98"/>
      <point x="245" y="94"/>
      <point x="261" y="94" type="curve" smooth="yes"/>
      <point x="286" y="94"/>
      <point x="307" y="102"/>
      <point x="323" y="118" type="curve" smooth="yes"/>
      <point x="339" y="134"/>
      <point x="346" y="154"/>
      <point x="346" y="178" type="curve" smooth="yes"/>
      <point x="346" y="203"/>
      <point x="337" y="224"/>
      <point x="320" y="240" type="curve" smooth="yes"/>
      <point x="303" y="257"/>
      <point x="283" y="265"/>
      <point x="258" y="265" type="curve" smooth="yes"/>
      <point x="234" y="265"/>
      <point x="214" y="257"/>
      <point x="198" y="241" type="curve" smooth="yes"/>
      <point x="182" y="225"/>
      <point x="174" y="206"/>
      <point x="174" y="182" type="curve" smooth="yes"/>
    </contour>
    <contour>
      <point x="187" y="470" type="curve" smooth="yes"/>
      <point x="187" y="494"/>
      <point x="195" y="514"/>
      <point x="213" y="531" type="curve" smooth="yes"/>
      <point x="231" y="548"/>
      <point x="253" y="557"/>
      <point x="280" y="557" type="curve" smooth="yes"/>
      <point x="307" y="557"/>
      <point x="328" y="549"/>
      <point x="346" y="531" type="curve" smooth="yes"/>
      <point x="364" y="513"/>
      <point x="374" y="492"/>
      <point x="374" y="466" type="curve" smooth="yes"/>
      <point x="374" y="441"/>
      <point x="363" y="420"/>
      <point x="346" y="403" type="curve" smooth="yes"/>
      <point x="329" y="386"/>
      <point x="308" y="377"/>
      <point x="281" y="377" type="curve" smooth="yes"/>
      <point x="253" y="377"/>
      <point x="231" y="386"/>
      <point x="213" y="403" type="curve" smooth="yes"/>
      <point x="195" y="420"/>
      <point x="187" y="443"/>
    </contour>
    <contour>
      <point x="199" y="469" type="line" smooth="yes"/>
      <point x="199" y="452"/>
      <point x="204" y="438"/>
      <point x="215" y="427" type="curve" smooth="yes"/>
      <point x="227" y="416"/>
      <point x="242" y="411"/>
      <point x="260" y="411" type="curve" smooth="yes"/>
      <point x="278" y="411"/>
      <point x="293" y="416"/>
      <point x="304" y="427" type="curve" smooth="yes"/>
      <point x="315" y="438"/>
      <point x="320" y="451"/>
      <point x="320" y="466" type="curve" smooth="yes"/>
      <point x="320" y="482"/>
      <point x="314" y="496"/>
      <point x="303" y="507" type="curve" smooth="yes"/>
      <point x="291" y="518"/>
      <point x="277" y="524"/>
      <point x="260" y="524" type="curve" smooth="yes"/>
      <point x="242" y="524"/>
      <point x="228" y="519"/>
      <point x="216" y="508" type="curve" smooth="yes"/>
      <point x="205" y="498"/>
      <point x="199" y="485"/>
      <point x="199" y="471" type="curve" smooth="yes"/>
    </contour>
  </outline>
</glyph>
<glyph name="equal" format="2">
  <advance width="580"/>
  <unicode hex="003D"/>
  <outline>
    <contour>
      <point x="26" y="178" type="curve" smooth="yes"/>
      <point x="26" y="250" type="line" smooth="yes"/>
      <point x="26" y="273"/>
      <point x="45" y="292"/>
      <point x="68" y="292" type="curve" smooth="yes"/>
      <point x="481" y="292" type="line" smooth="yes"/>
      <point x="504" y="292"/>
      <point x="523" y="273"/>
      <point x="523" y="250" type="curve" smooth="yes"/>
      <point x="523" y="178" type="line" smooth="yes"/>
      <point x="523" y="155"/>
      <point x="504" y="136"/>
      <point x="481" y="136" type="curve" smooth="yes"/>
      <point x="68" y="136" type="line" smooth="yes"/>
      <point x="45" y="136"/>
      <point x="26" y="155"/>
    </contour>
    <contour>
      <point x="26" y="368" type="curve" smooth="yes"/>
      <point x="26" y="440" type="line" smooth="yes"/>
      <point x="26" y="463"/>
      <point x="45" y="482"/>
      <point x="68" y="482" type="curve" smooth="yes"/>
      <point x="481" y="482" type="line" smooth="yes"/>
      <point x="504" y="482"/>
      <point x="523" y="463"/>
      <point x="523" y="440" type="curve" smooth="yes"/>
      <point x="523" y="368" type="line" smooth="yes"/>
      <point x="523" y="345"/>
      <point x="504" y="327"/>
      <point x="481" y="327" type="curve" smooth="yes"/>
      <point x="68" y="327" type="line" smooth="yes"/>
      <point x="45" y="327"/>
      <point x="26" y="345"/>
    </contour>
    <contour>
      <point x="80" y="178" type="line" smooth="yes"/>
      <point x="80" y="173"/>
      <point x="84" y="170"/>
      <point x="89" y="170" type="curve" smooth="yes"/>
      <point x="502" y="170" type="line" smooth="yes"/>
      <point x="507" y="170"/>
      <point x="511" y="173"/>
      <point x="511" y="178" type="curve" smooth="yes"/>
      <point x="511" y="250" type="line" smooth="yes"/>
      <point x="511" y="255"/>
      <point x="507" y="258"/>
      <point x="502" y="258" type="curve" smooth="yes"/>
      <point x="89" y="258" type="line" smooth="yes"/>
      <point x="84" y="258"/>
      <point x="80" y="255"/>
      <point x="80" y="250" type="curve" smooth="yes"/>
    </contour>
    <contour>
      <point x="80" y="368" type="line" smooth="yes"/>
      <point x="80" y="363"/>
      <point x="84" y="360"/>
      <point x="89" y="360" type="curve" smooth="yes"/>
      <point x="502" y="360" type="line" smooth="yes"/>
      <point x="507" y="360"/>
      <point x="511" y="363"/>
      <point x="511" y="368" type="curve" smooth="yes"/>
      <point x="511" y="440" type="line" smooth="yes"/>
      <point x="511" y="445"/>
      <point x="507" y="448"/>
      <point x="502" y="448" type="curve" smooth="yes"/>
      <point x="89" y="448" type="line" smooth="yes"/>
      <point x="84" y="448"/>
      <point x="80" y="445"/>
      <point x="80" y="440" type="curve" smooth="yes"/>
    </contour>
    <contour>
      <point x="97" y="186" type="line"/>
      <point x="97" y="242" type="line"/>
      <point x="494" y="242" type="line"/>
      <point x="494" y="186" type="line"/>
    </contour>
    <contour>
      <point x="97" y="377" type="line"/>
      <point x="97" y="432" type="line"/>
      <point x="494" y="432" type="line"/>
      <point x="494" y="377" type="line"/>
    </contour>
  </outline>
</glyph>
<glyph name="greater" format="2">
  <advance width="580"/>
  <unicode hex="003E"/>
  <outline>
    <contour>
      <point x="26" y="97" type="curve" smooth="yes"/>
      <point x="26" y="173" type="line" smooth="yes"/>
      <point x="26" y="190"/>
      <point x="36" y="206"/>
      <point x="52" y="212" type="curve" smooth="yes"/>
      <point x="287" y="309" type="line"/>
      <point x="52" y="406" type="line" smooth="yes"/>
      <point x="36" y="412"/>
      <point x="26" y="427"/>
      <point x="26" y="444" type="curve" smooth="yes"/>
      <point x="26" y="521" type="line" smooth="yes"/>
      <point x="26" y="535"/>
      <point x="33" y="548"/>
      <point x="45" y="556" type="curve" smooth="yes"/>
      <point x="52" y="561"/>
      <point x="60" y="562"/>
      <point x="68" y="562" type="curve" smooth="yes"/>
      <point x="73" y="562"/>
      <point x="79" y="561"/>
      <point x="84" y="559" type="curve" smooth="yes"/>
      <point x="499" y="384" type="line" smooth="yes"/>
      <point x="514" y="378"/>
      <point x="525" y="363"/>
      <point x="525" y="346" type="curve" smooth="yes"/>
      <point x="525" y="274" type="line" smooth="yes"/>
      <point x="525" y="257"/>
      <point x="514" y="243"/>
      <point x="499" y="236" type="curve" smooth="yes"/>
      <point x="84" y="58" type="line" smooth="yes"/>
      <point x="79" y="56"/>
      <point x="74" y="55"/>
      <point x="68" y="55" type="curve" smooth="yes"/>
      <point x="60" y="55"/>
      <point x="52" y="57"/>
      <point x="45" y="62" type="curve" smooth="yes"/>
      <point x="33" y="70"/>
      <point x="26" y="83"/>
    </contour>
    <contour>
      <point x="81" y="97" type="line" smooth="yes"/>
      <point x="81" y="94"/>
      <point x="82" y="92"/>
      <point x="84" y="90" type="curve" smooth="yes"/>
      <point x="86" y="88"/>
      <point x="89" y="88"/>
      <point x="92" y="89" type="curve" smooth="yes"/>
      <point x="507" y="266" type="line" smooth="yes"/>
      <point x="510" y="267"/>
      <point x="512" y="271"/>
      <point x="512" y="274" type="curve" smooth="yes"/>
      <point x="512" y="346" type="line" smooth="yes"/>
      <point x="512" y="349"/>
      <point x="510" y="352"/>
      <point x="507" y="353" type="curve" smooth="yes"/>
      <point x="92" y="528" type="line" smooth="yes"/>
      <point x="89" y="529"/>
      <point x="86" y="530"/>
      <point x="84" y="528" type="curve" smooth="yes"/>
      <point x="82" y="526"/>
      <point x="81" y="524"/>
      <point x="81" y="521" type="curve" smooth="yes"/>
      <point x="81" y="444" type="line" smooth="yes"/>
      <point x="81" y="441"/>
      <point x="83" y="438"/>
      <point x="86" y="437" type="curve" smooth="yes"/>
      <point x="396" y="309" type="line"/>
      <point x="86" y="181" type="line" smooth="yes"/>
      <point x="83" y="180"/>
      <point x="81" y="176"/>
      <point x="81" y="173" type="curve" smooth="yes"/>
    </contour>
    <contour>
      <point x="97" y="109" type="line"/>
      <point x="97" y="167" type="line"/>
      <point x="421" y="302" type="line" smooth="yes"/>
      <point x="424" y="303"/>
      <point x="426" y="306"/>
      <point x="426" y="309" type="curve" smooth="yes"/>
      <point x="426" y="312"/>
      <point x="424" y="316"/>
      <point x="421" y="317" type="curve" smooth="yes"/>
      <point x="97" y="450" type="line"/>
      <point x="97" y="508" type="line"/>
      <point x="495" y="340" type="line"/>
      <point x="495" y="279" type="line"/>
    </contour>
  </outline>
</glyph>
<glyph name="question" format="2">
  <advance width="560"/>
  <unicode hex="003F"/>
  <outline>
    <contour>
      <point x="10" y="456" type="curve" smooth="yes"/>
      <point x="10" y="461" type="line"/>
      <point x="19" y="531"/>
      <point x="45" y="585"/>
      <point x="87" y="622" type="curve" smooth="yes"/>
      <point x="129" y="659"/>
      <point x="185" y="679"/>
      <point x="254" y="679" type="curve" smooth="yes"/>
      <point x="327" y="679"/>
      <point x="385" y="658"/>
      <point x="429" y="618" type="curve" smooth="yes"/>
      <point x="475" y="576"/>
      <point x="497" y="525"/>
      <point x="497" y="466" type="curve" smooth="yes"/>
      <point x="497" y="465" type="line" smooth="yes"/>
      <point x="497" y="431"/>
      <point x="489" y="399"/>
      <point x="473" y="370" type="curve" smooth="yes"/>
      <point x="459" y="344"/>
      <point x="431" y="312"/>
      <point x="389" y="275" type="curve" smooth="yes"/>
      <point x="367" y="256"/>
      <point x="353" y="242"/>
      <point x="346" y="233" type="curve" smooth="yes"/>
      <point x="341" y="226"/>
      <point x="337" y="219"/>
      <point x="335" y="210" type="curve" smooth="yes"/>
      <point x="333" y="203"/>
      <point x="332" y="194"/>
      <point x="331" y="182" type="curve" smooth="yes"/>
      <point x="331" y="167" type="line"/>
      <point x="331" y="165" type="line" smooth="yes"/>
      <point x="331" y="161"/>
      <point x="330" y="157"/>
      <point x="330" y="153" type="curve" smooth="yes"/>
      <point x="330" y="141"/>
      <point x="325" y="131"/>
      <point x="317" y="124" type="curve"/>
      <point x="330" y="117"/>
      <point x="339" y="104"/>
      <point x="339" y="88" type="curve" smooth="yes"/>
      <point x="339" y="0" type="line" smooth="yes"/>
      <point x="339" y="-23"/>
      <point x="321" y="-42"/>
      <point x="298" y="-42" type="curve" smooth="yes"/>
      <point x="210" y="-42" type="line" smooth="yes"/>
      <point x="187" y="-42"/>
      <point x="168" y="-23"/>
      <point x="168" y="0" type="curve" smooth="yes"/>
      <point x="168" y="88" type="line" smooth="yes"/>
      <point x="168" y="103"/>
      <point x="175" y="116"/>
      <point x="187" y="123" type="curve"/>
      <point x="178" y="130"/>
      <point x="173" y="141"/>
      <point x="173" y="153" type="curve" smooth="yes"/>
      <point x="173" y="177" type="line" smooth="yes"/>
      <point x="173" y="213"/>
      <point x="178" y="244"/>
      <point x="188" y="270" type="curve" smooth="yes"/>
      <point x="196" y="290"/>
      <point x="208" y="311"/>
      <point x="225" y="332" type="curve" smooth="yes"/>
      <point x="236" y="345"/>
      <point x="256" y="365"/>
      <point x="285" y="390" type="curve" smooth="yes"/>
      <point x="307" y="409"/>
      <point x="321" y="425"/>
      <point x="328" y="436" type="curve" smooth="yes"/>
      <point x="332" y="444"/>
      <point x="335" y="452"/>
      <point x="335" y="461" type="curve" smooth="yes"/>
      <point x="335" y="480"/>
      <point x="328" y="496"/>
      <point x="313" y="510" type="curve" smooth="yes"/>
      <point x="298" y="525"/>
      <point x="278" y="532"/>
      <point x="256" y="532" type="curve" smooth="yes"/>
      <point x="235" y="532"/>
      <point x="216" y="526"/>
      <point x="202" y="513" type="curve" smooth="yes"/>
      <point x="186" y="498"/>
      <point x="177" y="472"/>
      <point x="172" y="440" type="curve" smooth="yes"/>
      <point x="169" y="420"/>
      <point x="151" y="405"/>
      <point x="131" y="405" type="curve" smooth="yes"/>
      <point x="129" y="405"/>
      <point x="128" y="406"/>
      <point x="126" y="406" type="curve" smooth="yes"/>
      <point x="47" y="415" type="line" smooth="yes"/>
      <point x="36" y="416"/>
      <point x="26" y="422"/>
      <point x="19" y="431" type="curve" smooth="yes"/>
      <point x="13" y="438"/>
      <point x="10" y="447"/>
    </contour>
    <contour>
      <point x="68" y="457" type="curve" smooth="yes"/>
      <point x="68" y="455"/>
      <point x="69" y="453"/>
      <point x="70" y="451" type="curve" smooth="yes"/>
      <point x="71" y="449"/>
      <point x="73" y="448"/>
      <point x="75" y="448" type="curve" smooth="yes"/>
      <point x="155" y="439" type="line" smooth="yes"/>
      <point x="159" y="438"/>
      <point x="163" y="442"/>
      <point x="164" y="446" type="curve" smooth="yes"/>
      <point x="170" y="487"/>
      <point x="183" y="518"/>
      <point x="204" y="537" type="curve" smooth="yes"/>
      <point x="224" y="556"/>
      <point x="251" y="565"/>
      <point x="281" y="565" type="curve" smooth="yes"/>
      <point x="313" y="565"/>
      <point x="339" y="555"/>
      <point x="361" y="534" type="curve" smooth="yes"/>
      <point x="383" y="513"/>
      <point x="393" y="489"/>
      <point x="393" y="461" type="curve" smooth="yes"/>
      <point x="393" y="446"/>
      <point x="389" y="432"/>
      <point x="382" y="419" type="curve" smooth="yes"/>
      <point x="374" y="406"/>
      <point x="358" y="388"/>
      <point x="332" y="365" type="curve" smooth="yes"/>
      <point x="305" y="341"/>
      <point x="286" y="323"/>
      <point x="276" y="311" type="curve" smooth="yes"/>
      <point x="261" y="293"/>
      <point x="251" y="275"/>
      <point x="244" y="258" type="curve" smooth="yes"/>
      <point x="235" y="235"/>
      <point x="231" y="208"/>
      <point x="231" y="177" type="curve" smooth="yes"/>
      <point x="231" y="154" type="line" smooth="yes"/>
      <point x="231" y="149"/>
      <point x="235" y="146"/>
      <point x="240" y="146" type="curve" smooth="yes"/>
      <point x="314" y="146" type="line" smooth="yes"/>
      <point x="319" y="146"/>
      <point x="322" y="149"/>
      <point x="322" y="154" type="curve" smooth="yes"/>
      <point x="323" y="184"/>
      <point x="324" y="206"/>
      <point x="328" y="219" type="curve" smooth="yes"/>
      <point x="331" y="232"/>
      <point x="337" y="242"/>
      <point x="344" y="252" type="curve" smooth="yes"/>
      <point x="351" y="262"/>
      <point x="368" y="278"/>
      <point x="392" y="300" type="curve" smooth="yes"/>
      <point x="430" y="334"/>
      <point x="456" y="362"/>
      <point x="469" y="386" type="curve" smooth="yes"/>
      <point x="483" y="410"/>
      <point x="489" y="437"/>
      <point x="489" y="466" type="curve" smooth="yes"/>
      <point x="489" y="516"/>
      <point x="470" y="558"/>
      <point x="432" y="593" type="curve" smooth="yes"/>
      <point x="394" y="628"/>
      <point x="343" y="645"/>
      <point x="279" y="645" type="curve" smooth="yes"/>
      <point x="219" y="645"/>
      <point x="171" y="629"/>
      <point x="134" y="597" type="curve" smooth="yes"/>
      <point x="97" y="565"/>
      <point x="75" y="518"/>
    </contour>
    <contour>
      <point x="86" y="464" type="line"/>
      <point x="94" y="516"/>
      <point x="113" y="556"/>
      <point x="145" y="584" type="curve" smooth="yes"/>
      <point x="179" y="614"/>
      <point x="223" y="629"/>
      <point x="279" y="629" type="curve" smooth="yes"/>
      <point x="338" y="629"/>
      <point x="385" y="613"/>
      <point x="420" y="581" type="curve" smooth="yes"/>
      <point x="455" y="549"/>
      <point x="472" y="511"/>
      <point x="472" y="466" type="curve" smooth="yes"/>
      <point x="472" y="440"/>
      <point x="466" y="417"/>
      <point x="454" y="395" type="curve" smooth="yes"/>
      <point x="442" y="373"/>
      <point x="417" y="345"/>
      <point x="381" y="313" type="curve" smooth="yes"/>
      <point x="355" y="290"/>
      <point x="338" y="273"/>
      <point x="330" y="262" type="curve" smooth="yes"/>
      <point x="322" y="251"/>
      <point x="316" y="238"/>
      <point x="312" y="223" type="curve" smooth="yes"/>
      <point x="309" y="210"/>
      <point x="306" y="190"/>
      <point x="305" y="163" type="curve"/>
      <point x="248" y="163" type="line"/>
      <point x="248" y="177" type="line" smooth="yes"/>
      <point x="248" y="206"/>
      <point x="252" y="231"/>
      <point x="260" y="252" type="curve"/>
      <point x="260" y="253" type="line"/>
      <point x="266" y="269"/>
      <point x="276" y="284"/>
      <point x="289" y="300" type="curve" smooth="yes"/>
      <point x="299" y="312"/>
      <point x="317" y="330"/>
      <point x="343" y="353" type="curve" smooth="yes"/>
      <point x="371" y="377"/>
      <point x="389" y="397"/>
      <point x="397" y="411" type="curve" smooth="yes"/>
      <point x="406" y="426"/>
      <point x="410" y="443"/>
      <point x="410" y="461" type="curve" smooth="yes"/>
      <point x="410" y="493"/>
      <point x="397" y="522"/>
      <point x="372" y="546" type="curve" smooth="yes"/>
      <point x="347" y="570"/>
      <point x="317" y="582"/>
      <point x="281" y="582" type="curve" smooth="yes"/>
      <point x="246" y="582"/>
      <point x="216" y="571"/>
      <point x="193" y="549" type="curve" smooth="yes"/>
      <point x="171" y="529"/>
      <point x="157" y="498"/>
      <point x="149" y="456" type="curve"/>
    </contour>
    <contour>
      <point x="227" y="0" type="line" smooth="yes"/>
      <point x="227" y="-5"/>
      <point x="230" y="-8"/>
      <point x="235" y="-8" type="curve" smooth="yes"/>
      <point x="323" y="-8" type="line" smooth="yes"/>
      <point x="328" y="-8"/>
      <point x="331" y="-5"/>
      <point x="331" y="0" type="curve" smooth="yes"/>
      <point x="331" y="88" type="line" smooth="yes"/>
      <point x="331" y="93"/>
      <point x="328" y="96"/>
      <point x="323" y="96" type="curve" smooth="yes"/>
      <point x="235" y="96" type="line" smooth="yes"/>
      <point x="230" y="96"/>
      <point x="227" y="93"/>
      <point x="227" y="88" type="curve" smooth="yes"/>
    </contour>
    <contour>
      <point x="243" y="8" type="line"/>
      <point x="243" y="79" type="line"/>
      <point x="314" y="79" type="line"/>
      <point x="314" y="8" type="line"/>
    </contour>
  </outline>
</glyph>
<glyph name="B" format="2">
  <advance width="629"/>
  <unicode hex="0042"/>
  <outline>
    <contour>
      <point x="13" y="0" type="curve" smooth="yes"/>
      <point x="13" y="626" type="line" smooth="yes"/>
      <point x="13" y="649"/>
      <point x="32" y="668"/>
      <point x="55" y="668" type="curve" smooth="yes"/>
      <point x="290" y="668" type="line" smooth="yes"/>
      <point x="345" y="668"/>
      <point x="389" y="660"/>
      <point x="422" y="645" type="curve" smooth="yes"/>
      <point x="459" y="629"/>
      <point x="488" y="605"/>
      <point x="509" y="571" type="curve" smooth="yes"/>
      <point x="530" y="538"/>
      <point x="539" y="502"/>
      <point x="539" y="466" type="curve" smooth="yes"/>
      <point x="539" y="432"/>
      <point x="530" y="399"/>
      <point x="511" y="369" type="curve" smooth="yes"/>
      <point x="505" y="359"/>
      <point x="498" y="350"/>
      <point x="490" y="341" type="curve"/>
      <point x="506" y="330"/>
      <point x="520" y="317"/>
      <point x="531" y="302" type="curve" smooth="yes"/>
      <point x="556" y="269"/>
      <point x="570" y="229"/>
      <point x="570" y="184" type="curve" smooth="yes"/>
      <point x="570" y="180" type="line" smooth="yes"/>
      <point x="570" y="145"/>
      <point x="562" y="111"/>
      <point x="547" y="81" type="curve" smooth="yes"/>
      <point x="531" y="49"/>
      <point x="512" y="25"/>
      <point x="489" y="8" type="curve" smooth="yes"/>
      <point x="467" y="-9"/>
      <point x="438" y="-22"/>
      <point x="405" y="-30" type="curve" smooth="yes"/>
      <point x="375" y="-38"/>
      <point x="338" y="-42"/>
      <point x="294" y="-42" type="curve" smooth="yes"/>
      <point x="55" y="-42" type="line" smooth="yes"/>
      <point x="32" y="-42"/>
      <point x="13" y="-23"/>
    </contour>
    <contour>
      <point x="72" y="0" type="line" smooth="yes"/>
      <point x="72" y="-5"/>
      <point x="75" y="-8"/>
      <point x="80" y="-8" type="curve" smooth="yes"/>
      <point x="319" y="-8" type="line" smooth="yes"/>
      <point x="360" y="-8"/>
      <point x="394" y="-5"/>
      <point x="422" y="2" type="curve" smooth="yes"/>
      <point x="451" y="9"/>
      <point x="475" y="21"/>
      <point x="494" y="35" type="curve" smooth="yes"/>
      <point x="513" y="49"/>
      <point x="529" y="69"/>
      <point x="542" y="96" type="curve" smooth="yes"/>
      <point x="555" y="122"/>
      <point x="561" y="151"/>
      <point x="561" y="182" type="curve" smooth="yes"/>
      <point x="561" y="220"/>
      <point x="550" y="253"/>
      <point x="529" y="281" type="curve" smooth="yes"/>
      <point x="511" y="305"/>
      <point x="487" y="323"/>
      <point x="456" y="335" type="curve"/>
      <point x="479" y="349"/>
      <point x="496" y="366"/>
      <point x="508" y="386" type="curve" smooth="yes"/>
      <point x="523" y="411"/>
      <point x="531" y="438"/>
      <point x="531" y="466" type="curve" smooth="yes"/>
      <point x="531" y="496"/>
      <point x="522" y="525"/>
      <point x="505" y="553" type="curve" smooth="yes"/>
      <point x="488" y="581"/>
      <point x="464" y="602"/>
      <point x="434" y="615" type="curve" smooth="yes"/>
      <point x="404" y="628"/>
      <point x="364" y="635"/>
      <point x="315" y="635" type="curve" smooth="yes"/>
      <point x="80" y="635" type="line" smooth="yes"/>
      <point x="75" y="635"/>
      <point x="72" y="631"/>
      <point x="72" y="626" type="curve" smooth="yes"/>
    </contour>
    <contour>
      <point x="88" y="8" type="line"/>
      <point x="88" y="618" type="line"/>
      <point x="315" y="618" type="line" smooth="yes"/>
      <point x="361" y="618"/>
      <point x="399" y="612"/>
      <point x="427" y="600" type="curve" smooth="yes"/>
      <point x="454" y="588"/>
      <point x="476" y="569"/>
      <point x="491" y="544" type="curve" smooth="yes"/>
      <point x="507" y="519"/>
      <point x="514" y="493"/>
      <point x="514" y="466" type="curve" smooth="yes"/>
      <point x="514" y="441"/>
      <point x="508" y="417"/>
      <point x="494" y="395" type="curve" smooth="yes"/>
      <point x="480" y="373"/>
      <point x="459" y="355"/>
      <point x="431" y="341" type="curve" smooth="yes"/>
      <point x="428" y="339"/>
      <point x="427" y="336"/>
      <point x="427" y="333" type="curve" smooth="yes"/>
      <point x="427" y="330"/>
      <point x="430" y="326"/>
      <point x="433" y="325" type="curve" smooth="yes"/>
      <point x="469" y="314"/>
      <point x="497" y="296"/>
      <point x="516" y="271" type="curve" smooth="yes"/>
      <point x="535" y="246"/>
      <point x="545" y="217"/>
      <point x="545" y="182" type="curve" smooth="yes"/>
      <point x="545" y="154"/>
      <point x="539" y="127"/>
      <point x="527" y="103" type="curve" smooth="yes"/>
      <point x="515" y="79"/>
      <point x="501" y="61"/>
      <point x="484" y="48" type="curve" smooth="yes"/>
      <point x="467" y="35"/>
      <point x="444" y="26"/>
      <point x="418" y="19" type="curve" smooth="yes"/>
      <point x="391" y="12"/>
      <point x="358" y="8"/>
      <point x="319" y="8" type="curve" smooth="yes"/>
    </contour>
    <contour>
      <point x="155" y="74" type="line" smooth="yes"/>
      <point x="155" y="69"/>
      <point x="158" y="66"/>
      <point x="163" y="66" type="curve" smooth="yes"/>
      <point x="319" y="66" type="line" smooth="yes"/>
      <point x="346" y="66"/>
      <point x="366" y="67"/>
      <point x="377" y="69" type="curve" smooth="yes"/>
      <point x="397" y="73"/>
      <point x="414" y="79"/>
      <point x="428" y="87" type="curve" smooth="yes"/>
      <point x="442" y="96"/>
      <point x="453" y="108"/>
      <point x="462" y="125" type="curve" smooth="yes"/>
      <point x="471" y="141"/>
      <point x="476" y="161"/>
      <point x="476" y="182" type="curve" smooth="yes"/>
      <point x="476" y="207"/>
      <point x="469" y="228"/>
      <point x="456" y="247" type="curve" smooth="yes"/>
      <point x="443" y="266"/>
      <point x="425" y="279"/>
      <point x="402" y="287" type="curve" smooth="yes"/>
      <point x="380" y="294"/>
      <point x="349" y="298"/>
      <point x="308" y="298" type="curve" smooth="yes"/>
      <point x="163" y="298" type="line" smooth="yes"/>
      <point x="158" y="298"/>
      <point x="155" y="294"/>
      <point x="155" y="289" type="curve" smooth="yes"/>
    </contour>
    <contour>
      <point x="155" y="363" type="line" smooth="yes"/>
      <point x="155" y="358"/>
      <point x="158" y="355"/>
      <point x="163" y="355" type="curve" smooth="yes"/>
      <point x="298" y="355" type="line" smooth="yes"/>
      <point x="336" y="355"/>
      <point x="364" y="357"/>
      <point x="380" y="362" type="curve" smooth="yes"/>
      <point x="403" y="369"/>
      <point x="420" y="381"/>
      <point x="432" y="397" type="curve" smooth="yes"/>
      <point x="444" y="413"/>
      <point x="449" y="432"/>
      <point x="449" y="456" type="curve" smooth="yes"/>
      <point x="449" y="478"/>
      <point x="444" y="499"/>
      <point x="433" y="516" type="curve" smooth="yes"/>
      <point x="422" y="533"/>
      <point x="406" y="546"/>
      <point x="386" y="552" type="curve" smooth="yes"/>
      <point x="367" y="558"/>
      <point x="334" y="561"/>
      <point x="288" y="561" type="curve" smooth="yes"/>
      <point x="163" y="561" type="line" smooth="yes"/>
      <point x="158" y="561"/>
      <point x="155" y="557"/>
      <point x="155" y="552" type="curve" smooth="yes"/>
    </contour>
    <contour>
      <point x="171" y="82" type="line"/>
      <point x="171" y="281" type="line"/>
      <point x="308" y="281" type="line" smooth="yes"/>
      <point x="347" y="281"/>
      <point x="376" y="278"/>
      <point x="397" y="271" type="curve" smooth="yes"/>
      <point x="416" y="265"/>
      <point x="431" y="254"/>
      <point x="442" y="238" type="curve" smooth="yes"/>
      <point x="453" y="222"/>
      <point x="459" y="204"/>
      <point x="459" y="182" type="curve" smooth="yes"/>
      <point x="459" y="164"/>
      <point x="455" y="147"/>
      <point x="447" y="133" type="curve" smooth="yes"/>
      <point x="439" y="119"/>
      <point x="431" y="108"/>
      <point x="419" y="101" type="curve" smooth="yes"/>
      <point x="407" y="94"/>
      <point x="392" y="88"/>
      <point x="374" y="85" type="curve" smooth="yes"/>
      <point x="363" y="83"/>
      <point x="345" y="82"/>
      <point x="319" y="82" type="curve" smooth="yes"/>
    </contour>
    <contour>
      <point x="171" y="371" type="line"/>
      <point x="171" y="544" type="line"/>
      <point x="288" y="544" type="line" smooth="yes"/>
      <point x="332" y="544"/>
      <point x="363" y="542"/>
      <point x="381" y="536" type="curve" smooth="yes"/>
      <point x="398" y="531"/>
      <point x="410" y="521"/>
      <point x="419" y="507" type="curve" smooth="yes"/>
      <point x="428" y="492"/>
      <point x="433" y="475"/>
      <point x="433" y="456" type="curve" smooth="yes"/>
      <point x="433" y="436"/>
      <point x="428" y="420"/>
      <point x="418" y="407" type="curve" smooth="yes"/>
      <point x="408" y="394"/>
      <point x="394" y="384"/>
      <point x="375" y="378" type="curve" smooth="yes"/>
      <point x="360" y="373"/>
      <point x="334" y="371"/>
      <point x="298" y="371" type="curve" smooth="yes"/>
    </contour>
    <contour>
      <point x="180" y="116" type="line"/>
      <point x="294" y="116" type="line" smooth="yes"/>
      <point x="317" y="116"/>
      <point x="334" y="116"/>
      <point x="343" y="118" type="curve" smooth="yes"/>
      <point x="356" y="120"/>
      <point x="367" y="123"/>
      <point x="376" y="129" type="curve" smooth="yes"/>
      <point x="383" y="133"/>
      <point x="388" y="141"/>
      <point x="393" y="149" type="curve" smooth="yes"/>
      <point x="398" y="158"/>
      <point x="401" y="170"/>
      <point x="401" y="182" type="curve" smooth="yes"/>
      <point x="401" y="196"/>
      <point x="397" y="209"/>
      <point x="390" y="219" type="curve" smooth="yes"/>
      <point x="383" y="229"/>
      <point x="373" y="235"/>
      <point x="361" y="239" type="curve" smooth="yes"/>
      <point x="343" y="245"/>
      <point x="317" y="248"/>
      <point x="283" y="248" type="curve" smooth="yes"/>
      <point x="180" y="248" type="line"/>
    </contour>
    <contour>
      <point x="180" y="405" type="line"/>
      <point x="273" y="405" type="line" smooth="yes"/>
      <point x="304" y="405"/>
      <point x="327" y="406"/>
      <point x="340" y="410" type="curve"/>
      <point x="341" y="410" type="line" smooth="yes"/>
      <point x="352" y="413"/>
      <point x="361" y="418"/>
      <point x="367" y="426" type="curve" smooth="yes"/>
      <point x="373" y="434"/>
      <point x="374" y="444"/>
      <point x="374" y="456" type="curve" smooth="yes"/>
      <point x="374" y="468"/>
      <point x="372" y="480"/>
      <point x="366" y="489" type="curve" smooth="yes"/>
      <point x="361" y="496"/>
      <point x="355" y="501"/>
      <point x="346" y="504" type="curve" smooth="yes"/>
      <point x="330" y="509"/>
      <point x="302" y="511"/>
      <point x="263" y="511" type="curve" smooth="yes"/>
      <point x="180" y="511" type="line"/>
    </contour>
  </outline>
</glyph>
<glyph name="C" format="2">
  <advance width="719"/>
  <unicode hex="0043"/>
  <outline>
    <contour>
      <point x="9" y="318" type="curve" smooth="yes"/>
      <point x="9" y="391"/>
      <point x="23" y="454"/>
      <point x="51" y="508" type="curve" smooth="yes"/>
      <point x="80" y="564"/>
      <point x="121" y="607"/>
      <point x="174" y="636" type="curve" smooth="yes"/>
      <point x="226" y="665"/>
      <point x="283" y="679"/>
      <point x="346" y="679" type="curve" smooth="yes"/>
      <point x="419" y="679"/>
      <point x="479" y="660"/>
      <point x="529" y="623" type="curve" smooth="yes"/>
      <point x="579" y="586"/>
      <point x="614" y="533"/>
      <point x="634" y="466" type="curve" smooth="yes"/>
      <point x="635" y="462"/>
      <point x="635" y="459"/>
      <point x="635" y="455" type="curve" smooth="yes"/>
      <point x="635" y="448"/>
      <point x="634" y="440"/>
      <point x="630" y="434" type="curve" smooth="yes"/>
      <point x="624" y="424"/>
      <point x="614" y="417"/>
      <point x="603" y="414" type="curve" smooth="yes"/>
      <point x="522" y="394" type="line" smooth="yes"/>
      <point x="519" y="393"/>
      <point x="515" y="394"/>
      <point x="512" y="394" type="curve" smooth="yes"/>
      <point x="494" y="394"/>
      <point x="478" y="405"/>
      <point x="472" y="423" type="curve" smooth="yes"/>
      <point x="461" y="459"/>
      <point x="446" y="486"/>
      <point x="424" y="502" type="curve" smooth="yes"/>
      <point x="403" y="518"/>
      <point x="377" y="524"/>
      <point x="345" y="524" type="curve" smooth="yes"/>
      <point x="307" y="524"/>
      <point x="274" y="516"/>
      <point x="248" y="498" type="curve" smooth="yes"/>
      <point x="223" y="480"/>
      <point x="205" y="455"/>
      <point x="195" y="425" type="curve" smooth="yes"/>
      <point x="184" y="391"/>
      <point x="178" y="356"/>
      <point x="178" y="320" type="curve" smooth="yes"/>
      <point x="178" y="316" type="line" smooth="yes"/>
      <point x="178" y="269"/>
      <point x="184" y="229"/>
      <point x="198" y="194" type="curve" smooth="yes"/>
      <point x="210" y="164"/>
      <point x="228" y="140"/>
      <point x="253" y="125" type="curve" smooth="yes"/>
      <point x="279" y="109"/>
      <point x="308" y="102"/>
      <point x="338" y="102" type="curve" smooth="yes"/>
      <point x="374" y="102"/>
      <point x="405" y="111"/>
      <point x="430" y="132" type="curve" smooth="yes"/>
      <point x="456" y="153"/>
      <point x="472" y="186"/>
      <point x="481" y="228" type="curve" smooth="yes"/>
      <point x="483" y="239"/>
      <point x="490" y="249"/>
      <point x="500" y="255" type="curve" smooth="yes"/>
      <point x="507" y="259"/>
      <point x="514" y="261"/>
      <point x="522" y="261" type="curve" smooth="yes"/>
      <point x="525" y="261"/>
      <point x="529" y="261"/>
      <point x="532" y="260" type="curve" smooth="yes"/>
      <point x="615" y="239" type="line" smooth="yes"/>
      <point x="626" y="236"/>
      <point x="634" y="230"/>
      <point x="640" y="220" type="curve" smooth="yes"/>
      <point x="644" y="214"/>
      <point x="646" y="206"/>
      <point x="646" y="199" type="curve" smooth="yes"/>
      <point x="646" y="196"/>
      <point x="646" y="191"/>
      <point x="645" y="188" type="curve" smooth="yes"/>
      <point x="625" y="110"/>
      <point x="589" y="51"/>
      <point x="537" y="10" type="curve" smooth="yes"/>
      <point x="485" y="-31"/>
      <point x="420" y="-52"/>
      <point x="345" y="-52" type="curve" smooth="yes"/>
      <point x="268" y="-52"/>
      <point x="206" y="-33"/>
      <point x="158" y="-2" type="curve" smooth="yes"/>
      <point x="109" y="30"/>
      <point x="71" y="74"/>
      <point x="45" y="134" type="curve" smooth="yes"/>
      <point x="21" y="191"/>
      <point x="9" y="252"/>
    </contour>
    <contour>
      <point x="63" y="318" type="curve" smooth="yes"/>
      <point x="63" y="257"/>
      <point x="75" y="200"/>
      <point x="97" y="147" type="curve" smooth="yes"/>
      <point x="120" y="93"/>
      <point x="153" y="52"/>
      <point x="197" y="24" type="curve" smooth="yes"/>
      <point x="240" y="-4"/>
      <point x="297" y="-19"/>
      <point x="366" y="-19" type="curve" smooth="yes"/>
      <point x="433" y="-19"/>
      <point x="490" y="-2"/>
      <point x="537" y="35" type="curve" smooth="yes"/>
      <point x="583" y="72"/>
      <point x="615" y="127"/>
      <point x="633" y="197" type="curve" smooth="yes"/>
      <point x="634" y="199"/>
      <point x="633" y="201"/>
      <point x="632" y="203" type="curve" smooth="yes"/>
      <point x="631" y="205"/>
      <point x="629" y="206"/>
      <point x="627" y="207" type="curve" smooth="yes"/>
      <point x="544" y="228" type="line" smooth="yes"/>
      <point x="542" y="229"/>
      <point x="540" y="228"/>
      <point x="538" y="227" type="curve" smooth="yes"/>
      <point x="536" y="226"/>
      <point x="534" y="223"/>
      <point x="534" y="221" type="curve" smooth="yes"/>
      <point x="523" y="170"/>
      <point x="503" y="133"/>
      <point x="472" y="107" type="curve" smooth="yes"/>
      <point x="441" y="81"/>
      <point x="403" y="69"/>
      <point x="359" y="69" type="curve" smooth="yes"/>
      <point x="322" y="69"/>
      <point x="288" y="78"/>
      <point x="257" y="97" type="curve" smooth="yes"/>
      <point x="226" y="116"/>
      <point x="203" y="144"/>
      <point x="188" y="182" type="curve" smooth="yes"/>
      <point x="173" y="221"/>
      <point x="165" y="266"/>
      <point x="165" y="318" type="curve" smooth="yes"/>
      <point x="165" y="358"/>
      <point x="172" y="398"/>
      <point x="185" y="436" type="curve" smooth="yes"/>
      <point x="198" y="473"/>
      <point x="219" y="503"/>
      <point x="250" y="525" type="curve" smooth="yes"/>
      <point x="281" y="547"/>
      <point x="320" y="558"/>
      <point x="366" y="558" type="curve" smooth="yes"/>
      <point x="406" y="558"/>
      <point x="439" y="548"/>
      <point x="465" y="528" type="curve" smooth="yes"/>
      <point x="491" y="508"/>
      <point x="511" y="477"/>
      <point x="525" y="433" type="curve" smooth="yes"/>
      <point x="526" y="429"/>
      <point x="531" y="426"/>
      <point x="535" y="427" type="curve" smooth="yes"/>
      <point x="617" y="446" type="line" smooth="yes"/>
      <point x="619" y="447"/>
      <point x="621" y="448"/>
      <point x="622" y="450" type="curve" smooth="yes"/>
      <point x="623" y="452"/>
      <point x="624" y="455"/>
      <point x="623" y="457" type="curve" smooth="yes"/>
      <point x="606" y="517"/>
      <point x="574" y="563"/>
      <point x="530" y="596" type="curve" smooth="yes"/>
      <point x="486" y="629"/>
      <point x="432" y="645"/>
      <point x="367" y="645" type="curve" smooth="yes"/>
      <point x="310" y="645"/>
      <point x="258" y="633"/>
      <point x="211" y="607" type="curve" smooth="yes"/>
      <point x="164" y="581"/>
      <point x="128" y="542"/>
      <point x="102" y="492" type="curve" smooth="yes"/>
      <point x="77" y="442"/>
      <point x="63" y="385"/>
    </contour>
    <contour>
      <point x="80" y="318" type="curve" smooth="yes"/>
      <point x="80" y="382"/>
      <point x="92" y="438"/>
      <point x="116" y="485" type="curve" smooth="yes"/>
      <point x="140" y="532"/>
      <point x="174" y="568"/>
      <point x="219" y="592" type="curve" smooth="yes"/>
      <point x="264" y="617"/>
      <point x="313" y="629"/>
      <point x="367" y="629" type="curve" smooth="yes"/>
      <point x="428" y="629"/>
      <point x="479" y="613"/>
      <point x="520" y="582" type="curve" smooth="yes"/>
      <point x="559" y="553"/>
      <point x="587" y="513"/>
      <point x="604" y="461" type="curve"/>
      <point x="539" y="445" type="line"/>
      <point x="524" y="489"/>
      <point x="502" y="520"/>
      <point x="475" y="541" type="curve" smooth="yes"/>
      <point x="446" y="563"/>
      <point x="410" y="574"/>
      <point x="366" y="574" type="curve" smooth="yes"/>
      <point x="316" y="574"/>
      <point x="274" y="562"/>
      <point x="240" y="538" type="curve" smooth="yes"/>
      <point x="206" y="514"/>
      <point x="183" y="482"/>
      <point x="169" y="441" type="curve" smooth="yes"/>
      <point x="156" y="401"/>
      <point x="149" y="360"/>
      <point x="149" y="318" type="curve" smooth="yes"/>
      <point x="149" y="264"/>
      <point x="157" y="217"/>
      <point x="173" y="176" type="curve" smooth="yes"/>
      <point x="189" y="134"/>
      <point x="214" y="106"/>
      <point x="248" y="85" type="curve" smooth="yes"/>
      <point x="282" y="65"/>
      <point x="319" y="52"/>
      <point x="359" y="52" type="curve" smooth="yes"/>
      <point x="408" y="52"/>
      <point x="448" y="66"/>
      <point x="482" y="94" type="curve" smooth="yes"/>
      <point x="514" y="120"/>
      <point x="537" y="158"/>
      <point x="549" y="209" type="curve"/>
      <point x="615" y="193" type="line"/>
      <point x="598" y="131"/>
      <point x="568" y="82"/>
      <point x="526" y="49" type="curve" smooth="yes"/>
      <point x="482" y="14"/>
      <point x="429" y="-2"/>
      <point x="366" y="-2" type="curve" smooth="yes"/>
      <point x="300" y="-2"/>
      <point x="247" y="11"/>
      <point x="206" y="38" type="curve" smooth="yes"/>
      <point x="165" y="65"/>
      <point x="133" y="103"/>
      <point x="112" y="153" type="curve" smooth="yes"/>
      <point x="90" y="204"/>
      <point x="80" y="259"/>
    </contour>
  </outline>
</glyph>
<glyph name="F" format="2">
  <advance width="602"/>
  <unicode hex="0046"/>
  <outline>
    <contour>
      <point x="23" y="0" type="curve" smooth="yes"/>
      <point x="23" y="626" type="line" smooth="yes"/>
      <point x="23" y="649"/>
      <point x="42" y="668"/>
      <point x="65" y="668" type="curve" smooth="yes"/>
      <point x="487" y="668" type="line" smooth="yes"/>
      <point x="510" y="668"/>
      <point x="529" y="649"/>
      <point x="529" y="626" type="curve" smooth="yes"/>
      <point x="529" y="552" type="line" smooth="yes"/>
      <point x="529" y="529"/>
      <point x="510" y="511"/>
      <point x="487" y="511" type="curve" smooth="yes"/>
      <point x="189" y="511" type="line"/>
      <point x="189" y="400" type="line"/>
      <point x="442" y="400" type="line" smooth="yes"/>
      <point x="465" y="400"/>
      <point x="483" y="381"/>
      <point x="483" y="358" type="curve" smooth="yes"/>
      <point x="483" y="285" type="line" smooth="yes"/>
      <point x="483" y="262"/>
      <point x="465" y="243"/>
      <point x="442" y="243" type="curve" smooth="yes"/>
      <point x="189" y="243" type="line"/>
      <point x="189" y="0" type="line" smooth="yes"/>
      <point x="189" y="-23"/>
      <point x="171" y="-42"/>
      <point x="148" y="-42" type="curve" smooth="yes"/>
      <point x="65" y="-42" type="line" smooth="yes"/>
      <point x="42" y="-42"/>
      <point x="23" y="-23"/>
    </contour>
    <contour>
      <point x="81" y="0" type="line" smooth="yes"/>
      <point x="81" y="-5"/>
      <point x="85" y="-8"/>
      <point x="90" y="-8" type="curve" smooth="yes"/>
      <point x="173" y="-8" type="line" smooth="yes"/>
      <point x="178" y="-8"/>
      <point x="181" y="-5"/>
      <point x="181" y="0" type="curve" smooth="yes"/>
      <point x="181" y="276" type="line"/>
      <point x="467" y="276" type="line" smooth="yes"/>
      <point x="472" y="276"/>
      <point x="475" y="280"/>
      <point x="475" y="285" type="curve" smooth="yes"/>
      <point x="475" y="358" type="line" smooth="yes"/>
      <point x="475" y="363"/>
      <point x="472" y="367"/>
      <point x="467" y="367" type="curve" smooth="yes"/>
      <point x="181" y="367" type="line"/>
      <point x="181" y="544" type="line"/>
      <point x="512" y="544" type="line" smooth="yes"/>
      <point x="517" y="544"/>
      <point x="521" y="547"/>
      <point x="521" y="552" type="curve" smooth="yes"/>
      <point x="521" y="626" type="line" smooth="yes"/>
      <point x="521" y="631"/>
      <point x="517" y="635"/>
      <point x="512" y="635" type="curve" smooth="yes"/>
      <point x="90" y="635" type="line" smooth="yes"/>
      <point x="85" y="635"/>
      <point x="81" y="631"/>
      <point x="81" y="626" type="curve" smooth="yes"/>
    </contour>
    <contour>
      <point x="98" y="8" type="line"/>
      <point x="98" y="618" type="line"/>
      <point x="504" y="618" type="line"/>
      <point x="504" y="561" type="line"/>
      <point x="173" y="561" type="line" smooth="yes"/>
      <point x="168" y="561"/>
      <point x="164" y="557"/>
      <point x="164" y="552" type="curve" smooth="yes"/>
      <point x="164" y="358" type="line" smooth="yes"/>
      <point x="164" y="353"/>
      <point x="168" y="350"/>
      <point x="173" y="350" type="curve" smooth="yes"/>
      <point x="458" y="350" type="line"/>
      <point x="458" y="293" type="line"/>
      <point x="173" y="293" type="line" smooth="yes"/>
      <point x="168" y="293"/>
      <point x="164" y="290"/>
      <point x="164" y="285" type="curve" smooth="yes"/>
      <point x="164" y="8" type="line"/>
    </contour>
  </outline>
</glyph>
